<svg id="圖層_1" data-name="圖層 1" xmlns="http://www.w3.org/2000/svg" viewBox="0 0 841.89 595.28"><defs><style>.cls-1{fill:#db7d4e;fill-rule:evenodd;}.cls-2,.cls-3{fill:none;}.cls-2{stroke:#db7d4e;stroke-width:3.91px;}</style></defs><title>框線01</title><path class="cls-1" d="M50.4,501.36a14.79,14.79,0,0,0-3-.31,14,14,0,0,1-3-.63c-1.06-.3-2.13-.53-3.17-.9s-1.84-.66-2.77-1a38.23,38.23,0,0,1-10.89-6.24A34.78,34.78,0,0,1,20.79,485a35.39,35.39,0,0,1,12.39,1.24c3.89,1.26,8.12,2,11.48,4.39a10.78,10.78,0,0,1,2.47,2.24,21.57,21.57,0,0,1,1.66,2.6c1.07,1.83,1.18,3.86,1.61,5.86"/><path class="cls-1" d="M52.14,494.85c-.29-.23-.43-.88-.65-1.2s-.46-.83-.76-1.22a16.86,16.86,0,0,0-2.1-2.21A17.71,17.71,0,0,0,43.55,487c-3.68-1.61-7.78-1.76-11.77-1.82a28.76,28.76,0,0,0-5.93.61l-1.48.29a2.12,2.12,0,0,1-1.32-.22l-2-.7c-.57-.2-.13-.28.21-.51a15.6,15.6,0,0,1,5.38-2.34c.93-.18,1.78-.57,2.71-.76a26.14,26.14,0,0,1,2.89-.52,26.61,26.61,0,0,1,6,0,14.58,14.58,0,0,1,3.08.59c.94.36,1.91.77,2.87,1.08a12.35,12.35,0,0,1,5.07,3.41,11.21,11.21,0,0,1,2.57,5.18c.13.59.12,1.19.25,1.78s-.19,1.15,0,1.77"/><path class="cls-1" d="M94.47,425.59a34.77,34.77,0,0,0,4.14-2.19c1.28-.86,2.68-1.65,4-2.45a21.9,21.9,0,0,0-22.16-5.73A13.93,13.93,0,0,0,75,418.5a13.13,13.13,0,0,0-1.82,2.39,9.9,9.9,0,0,0-1.1,2.95A19.7,19.7,0,0,1,77,420a21.33,21.33,0,0,1,5.46-1.65,19,19,0,0,1,6.11-.09,30.19,30.19,0,0,1,3.28.5c1,.25,2.09.55,3.16.77a1.88,1.88,0,0,1,.48.18,27.75,27.75,0,0,0-5.24,0c-1.95.21-3.87.23-5.81.61a21.37,21.37,0,0,0-5.61,1.4,15.28,15.28,0,0,0-4.36,3.26c-.65.7-1.3,1.39-1.89,2.13a4.79,4.79,0,0,0-.68,1.28c-.18.42-.54.78-.55,1.26a8.52,8.52,0,0,0,3,.21,10.8,10.8,0,0,1,1.39,0c.48,0,1,0,1.45,0a44.86,44.86,0,0,0,6-.63A43.56,43.56,0,0,0,94.47,425.59Z"/><path class="cls-1" d="M81,417.54a7.07,7.07,0,0,0-1.54,1c-.56.38-1.1.79-1.63,1.2a34,34,0,0,0-3.34,3,39.6,39.6,0,0,0-5.13,6.09c-3.08,4.74-5.49,9.68-5.82,15.29l-1.46-2.25a9.63,9.63,0,0,1-1.56-2.46c-.12-.61.32-1.25.55-1.79.37-.88.73-1.76,1.14-2.62a49.46,49.46,0,0,1,5.07-9.06,40.47,40.47,0,0,1,7.11-7.46,16.43,16.43,0,0,1,3.91-2.57c1.5-.58,2,.75,2.7,1.67"/><line class="cls-2" x1="62.43" y1="374.12" x2="62.43" y2="527.09"/><path class="cls-1" d="M43,486.22a6.63,6.63,0,0,1,1.54,1c.56.38,1.1.79,1.63,1.2a31.76,31.76,0,0,1,3.34,3,39.68,39.68,0,0,1,5.14,6.08c3.08,4.75,5.49,9.68,5.81,15.3l1.47-2.25a9.32,9.32,0,0,0,1.55-2.46c.13-.61-.32-1.25-.54-1.79-.38-.88-.73-1.76-1.14-2.63a50,50,0,0,0-5.07-9.05,40.16,40.16,0,0,0-7.11-7.46,16.84,16.84,0,0,0-3.92-2.58c-1.5-.57-2,.76-2.7,1.68"/><rect class="cls-3" x="20.79" y="374.12" width="81.83" height="152.97"/><path class="cls-1" d="M50.4,348.39a14.13,14.13,0,0,0-3-.31,14,14,0,0,1-3-.63c-1.06-.3-2.13-.53-3.17-.9s-1.84-.67-2.77-1a38.23,38.23,0,0,1-10.89-6.24,34.58,34.58,0,0,1-6.75-7.24,35.4,35.4,0,0,1,12.39,1.25c3.89,1.26,8.12,2,11.48,4.39a10.78,10.78,0,0,1,2.47,2.24,21.57,21.57,0,0,1,1.66,2.6c1.07,1.83,1.18,3.86,1.61,5.86"/><path class="cls-1" d="M52.14,341.87c-.29-.22-.43-.87-.65-1.19s-.46-.84-.76-1.22a16.25,16.25,0,0,0-2.1-2.21A18,18,0,0,0,43.55,334c-3.68-1.6-7.78-1.76-11.77-1.81a28.76,28.76,0,0,0-5.93.61l-1.48.29a2.12,2.12,0,0,1-1.32-.22l-2-.7c-.57-.2-.13-.28.21-.52a15.77,15.77,0,0,1,5.38-2.33c.93-.18,1.78-.58,2.71-.76a26.14,26.14,0,0,1,2.89-.52,26.61,26.61,0,0,1,6,0,14.58,14.58,0,0,1,3.08.59c.94.36,1.91.77,2.87,1.08a12.35,12.35,0,0,1,5.07,3.41,11.21,11.21,0,0,1,2.57,5.18c.13.59.12,1.19.25,1.78s-.19,1.15,0,1.76"/><path class="cls-1" d="M94.47,272.62a36.29,36.29,0,0,0,4.14-2.19c1.28-.86,2.68-1.65,4-2.46a21.92,21.92,0,0,0-22.16-5.72A13.81,13.81,0,0,0,75,265.53a13.06,13.06,0,0,0-1.82,2.38,10.06,10.06,0,0,0-1.1,3A19.7,19.7,0,0,1,77,267.06a20.94,20.94,0,0,1,5.46-1.65,19,19,0,0,1,6.11-.09,32.83,32.83,0,0,1,3.28.49c1,.25,2.09.56,3.16.78a2.3,2.3,0,0,1,.48.17,29.53,29.53,0,0,0-5.24,0c-1.95.22-3.87.24-5.81.62a21.37,21.37,0,0,0-5.61,1.4,15.09,15.09,0,0,0-4.36,3.26c-.65.7-1.3,1.38-1.89,2.13a4.64,4.64,0,0,0-.68,1.28c-.18.42-.54.78-.55,1.25a8.3,8.3,0,0,0,3,.22,10.8,10.8,0,0,1,1.39,0c.48,0,1,0,1.45,0a41.13,41.13,0,0,0,17.28-4.37Z"/><path class="cls-1" d="M81,264.57a7.07,7.07,0,0,0-1.54,1c-.56.38-1.1.79-1.63,1.2a32.79,32.79,0,0,0-3.34,3,40,40,0,0,0-5.13,6.08c-3.08,4.75-5.49,9.69-5.82,15.3l-1.46-2.25a9.63,9.63,0,0,1-1.56-2.46c-.12-.61.32-1.25.55-1.79.37-.88.73-1.76,1.14-2.63a49.71,49.71,0,0,1,5.07-9.05,40.16,40.16,0,0,1,7.11-7.46,16.78,16.78,0,0,1,3.91-2.58c1.5-.57,2,.76,2.7,1.68"/><line class="cls-2" x1="62.43" y1="221.15" x2="62.43" y2="374.12"/><path class="cls-1" d="M43,333.25a6.63,6.63,0,0,1,1.54,1c.56.37,1.1.79,1.63,1.2a32.82,32.82,0,0,1,3.34,3,40.24,40.24,0,0,1,5.14,6.09c3.08,4.75,5.49,9.68,5.81,15.3l1.47-2.25a9.49,9.49,0,0,0,1.55-2.46c.13-.61-.32-1.26-.54-1.79-.38-.88-.73-1.76-1.14-2.63a50,50,0,0,0-5.07-9.05,40.16,40.16,0,0,0-7.11-7.46,16.84,16.84,0,0,0-3.92-2.58c-1.5-.57-2,.75-2.7,1.68"/><rect class="cls-3" x="20.79" y="221.15" width="81.83" height="152.97"/><path class="cls-1" d="M50.4,348.39a14.13,14.13,0,0,0-3-.31,14,14,0,0,1-3-.63c-1.06-.3-2.13-.53-3.17-.9s-1.84-.67-2.77-1a38.23,38.23,0,0,1-10.89-6.24,34.58,34.58,0,0,1-6.75-7.24,35.4,35.4,0,0,1,12.39,1.25c3.89,1.26,8.12,2,11.48,4.39a10.78,10.78,0,0,1,2.47,2.24,21.57,21.57,0,0,1,1.66,2.6c1.07,1.83,1.18,3.86,1.61,5.86"/><path class="cls-1" d="M52.14,341.87c-.29-.22-.43-.87-.65-1.19s-.46-.84-.76-1.22a16.25,16.25,0,0,0-2.1-2.21A18,18,0,0,0,43.55,334c-3.68-1.6-7.78-1.76-11.77-1.81a28.76,28.76,0,0,0-5.93.61l-1.48.29a2.12,2.12,0,0,1-1.32-.22l-2-.7c-.57-.2-.13-.28.21-.52a15.77,15.77,0,0,1,5.38-2.33c.93-.18,1.78-.58,2.71-.76a26.14,26.14,0,0,1,2.89-.52,26.61,26.61,0,0,1,6,0,14.58,14.58,0,0,1,3.08.59c.94.36,1.91.77,2.87,1.08a12.35,12.35,0,0,1,5.07,3.41,11.21,11.21,0,0,1,2.57,5.18c.13.59.12,1.19.25,1.78s-.19,1.15,0,1.76"/><path class="cls-1" d="M94.47,272.62a36.29,36.29,0,0,0,4.14-2.19c1.28-.86,2.68-1.65,4-2.46a21.92,21.92,0,0,0-22.16-5.72A13.81,13.81,0,0,0,75,265.53a13.06,13.06,0,0,0-1.82,2.38,10.06,10.06,0,0,0-1.1,3A19.7,19.7,0,0,1,77,267.06a20.94,20.94,0,0,1,5.46-1.65,19,19,0,0,1,6.11-.09,32.83,32.83,0,0,1,3.28.49c1,.25,2.09.56,3.16.78a2.3,2.3,0,0,1,.48.17,29.53,29.53,0,0,0-5.24,0c-1.95.22-3.87.24-5.81.62a21.37,21.37,0,0,0-5.61,1.4,15.09,15.09,0,0,0-4.36,3.26c-.65.7-1.3,1.38-1.89,2.13a4.64,4.64,0,0,0-.68,1.28c-.18.42-.54.78-.55,1.25a8.3,8.3,0,0,0,3,.22,10.8,10.8,0,0,1,1.39,0c.48,0,1,0,1.45,0a41.13,41.13,0,0,0,17.28-4.37Z"/><path class="cls-1" d="M81,264.57a7.07,7.07,0,0,0-1.54,1c-.56.38-1.1.79-1.63,1.2a32.79,32.79,0,0,0-3.34,3,40,40,0,0,0-5.13,6.08c-3.08,4.75-5.49,9.69-5.82,15.3l-1.46-2.25a9.63,9.63,0,0,1-1.56-2.46c-.12-.61.32-1.25.55-1.79.37-.88.73-1.76,1.14-2.63a49.71,49.71,0,0,1,5.07-9.05,40.16,40.16,0,0,1,7.11-7.46,16.78,16.78,0,0,1,3.91-2.58c1.5-.57,2,.76,2.7,1.68"/><line class="cls-2" x1="62.43" y1="221.15" x2="62.43" y2="374.12"/><path class="cls-1" d="M43,333.25a6.63,6.63,0,0,1,1.54,1c.56.37,1.1.79,1.63,1.2a32.82,32.82,0,0,1,3.34,3,40.24,40.24,0,0,1,5.14,6.09c3.08,4.75,5.49,9.68,5.81,15.3l1.47-2.25a9.49,9.49,0,0,0,1.55-2.46c.13-.61-.32-1.26-.54-1.79-.38-.88-.73-1.76-1.14-2.63a50,50,0,0,0-5.07-9.05,40.16,40.16,0,0,0-7.11-7.46,16.84,16.84,0,0,0-3.92-2.58c-1.5-.57-2,.75-2.7,1.68"/><rect class="cls-3" x="20.79" y="221.15" width="81.83" height="152.97"/><path class="cls-1" d="M50.4,195.42a14.81,14.81,0,0,0-3-.32,13.36,13.36,0,0,1-3-.62c-1.06-.3-2.13-.53-3.17-.9s-1.84-.67-2.77-1a38.46,38.46,0,0,1-10.89-6.24,34.58,34.58,0,0,1-6.75-7.24,35.4,35.4,0,0,1,12.39,1.25c3.89,1.26,8.12,2,11.48,4.38A11.26,11.26,0,0,1,47.13,187a23.27,23.27,0,0,1,1.66,2.6c1.07,1.84,1.18,3.86,1.61,5.87"/><path class="cls-1" d="M52.14,188.9c-.29-.22-.43-.87-.65-1.19s-.46-.84-.76-1.23a16.78,16.78,0,0,0-2.1-2.2A18,18,0,0,0,43.55,181c-3.68-1.6-7.78-1.76-11.77-1.81a28.76,28.76,0,0,0-5.93.61l-1.48.28a2,2,0,0,1-1.32-.21l-2-.7c-.57-.2-.13-.28.21-.52a15.58,15.58,0,0,1,5.38-2.33c.93-.18,1.78-.58,2.71-.76a26.14,26.14,0,0,1,2.89-.52,26.61,26.61,0,0,1,6,0,14.58,14.58,0,0,1,3.08.59c.94.36,1.91.77,2.87,1.08a12.35,12.35,0,0,1,5.07,3.41,11.17,11.17,0,0,1,2.57,5.18c.13.59.12,1.19.25,1.78s-.19,1.15,0,1.76"/><path class="cls-1" d="M94.47,119.65a36.29,36.29,0,0,0,4.14-2.19c1.28-.86,2.68-1.66,4-2.46a21.92,21.92,0,0,0-22.16-5.72A13.81,13.81,0,0,0,75,112.56a13.06,13.06,0,0,0-1.82,2.38,10.06,10.06,0,0,0-1.1,3A19.7,19.7,0,0,1,77,114.09a20.94,20.94,0,0,1,5.46-1.65,19,19,0,0,1,6.11-.09,32.83,32.83,0,0,1,3.28.49c1,.25,2.09.56,3.16.78a2.3,2.3,0,0,1,.48.17,27.75,27.75,0,0,0-5.24,0c-1.95.22-3.87.24-5.81.62a21.37,21.37,0,0,0-5.61,1.4,15.24,15.24,0,0,0-4.36,3.25c-.65.71-1.3,1.39-1.89,2.14a4.64,4.64,0,0,0-.68,1.28c-.18.42-.54.78-.55,1.25a8.29,8.29,0,0,0,3,.21,13,13,0,0,1,1.39,0c.48,0,1,0,1.45,0a41.81,41.81,0,0,0,6-.63A43.16,43.16,0,0,0,94.47,119.65Z"/><path class="cls-1" d="M81,111.6a7.07,7.07,0,0,0-1.54,1c-.56.37-1.1.79-1.63,1.2a33.92,33.92,0,0,0-3.34,3,39.6,39.6,0,0,0-5.13,6.09c-3.08,4.75-5.49,9.68-5.82,15.3l-1.46-2.25a9.8,9.8,0,0,1-1.56-2.46c-.12-.61.32-1.26.55-1.79.37-.88.73-1.76,1.14-2.63a49.38,49.38,0,0,1,5.07-9,40.16,40.16,0,0,1,7.11-7.46,16.78,16.78,0,0,1,3.91-2.58c1.5-.57,2,.76,2.7,1.68"/><line class="cls-2" x1="62.43" y1="68.18" x2="62.43" y2="221.15"/><path class="cls-1" d="M43,180.28a6.63,6.63,0,0,1,1.54,1c.56.37,1.1.79,1.63,1.2a31.67,31.67,0,0,1,3.34,3,40.24,40.24,0,0,1,5.14,6.09c3.08,4.74,5.49,9.68,5.81,15.3l1.47-2.25a9.38,9.38,0,0,0,1.55-2.47c.13-.6-.32-1.25-.54-1.79-.38-.88-.73-1.75-1.14-2.62a49.64,49.64,0,0,0-5.07-9.05,40.16,40.16,0,0,0-7.11-7.46,16.52,16.52,0,0,0-3.92-2.58c-1.5-.57-2,.75-2.7,1.68"/><rect class="cls-3" x="20.79" y="68.18" width="81.83" height="152.97"/><path class="cls-1" d="M49.81,92.45a13.63,13.63,0,0,0,.33-3,13,13,0,0,1,.66-3c.3-1.06.55-2.13.93-3.17s.69-1.83,1.06-2.76a38.07,38.07,0,0,1,6.5-10.89,35.56,35.56,0,0,1,7.52-6.76,34.06,34.06,0,0,1-1.29,12.39C64.2,79.12,63.44,83.34,61,86.7a11.22,11.22,0,0,1-2.33,2.48,26.78,26.78,0,0,1-2.7,1.66C54,91.9,51.9,92,49.81,92.45"/><path class="cls-1" d="M56.59,94.19c.24-.3.91-.44,1.25-.66s.87-.45,1.27-.75a19,19,0,0,0,5.68-7.18c1.67-3.69,1.84-7.79,1.89-11.77a28.27,28.27,0,0,0-.63-5.94l-.3-1.48A2,2,0,0,1,66,65.09l.72-2c.21-.57.3-.13.54.22a15.16,15.16,0,0,1,2.43,5.38c.19.93.6,1.77.79,2.71A23.71,23.71,0,0,1,71,74.33a26,26,0,0,1,0,6,14.49,14.49,0,0,1-.61,3.08c-.38,1-.81,1.91-1.13,2.87a12.29,12.29,0,0,1-3.54,5.07A11.72,11.72,0,0,1,60.28,94c-.61.13-1.23.12-1.85.25s-1.2-.18-1.84,0"/><path class="cls-1" d="M128.65,136.52a35.24,35.24,0,0,0,2.28,4.13c.9,1.28,1.72,2.68,2.56,4a21.36,21.36,0,0,0,5.95-22.16,12.58,12.58,0,0,0-5.89-7.25,10.71,10.71,0,0,0-3.08-1.11,19.6,19.6,0,0,1,4,4.88,21,21,0,0,1,1.73,5.46,18.49,18.49,0,0,1,.09,6.12,32.26,32.26,0,0,1-.52,3.27c-.26,1.06-.58,2.1-.8,3.16a2.39,2.39,0,0,1-.19.48,26.08,26.08,0,0,0,0-5.23c-.22-1.95-.25-3.88-.64-5.81s-.55-3.88-1.46-5.62a15.4,15.4,0,0,0-3.38-4.36c-.73-.65-1.45-1.29-2.23-1.88a4.78,4.78,0,0,0-1.33-.68,3.55,3.55,0,0,0-1.3-.55,8.07,8.07,0,0,0-.22,3,9.14,9.14,0,0,1,0,1.38c0,.49,0,1,0,1.45a40,40,0,0,0,4.55,17.29Z"/><path class="cls-1" d="M137,123a7,7,0,0,0-1-1.54c-.39-.56-.82-1.1-1.25-1.63a32.88,32.88,0,0,0-3.12-3.34,40.47,40.47,0,0,0-6.33-5.13c-4.94-3.09-10.07-5.5-15.92-5.82l2.34-1.47a10.18,10.18,0,0,1,2.57-1.55c.63-.13,1.3.32,1.86.54.91.38,1.83.73,2.73,1.14a53.42,53.42,0,0,1,9.42,5.07,41.53,41.53,0,0,1,7.76,7.11,16.82,16.82,0,0,1,2.68,3.92c.6,1.5-.78,2-1.74,2.7"/><line class="cls-2" x1="182.2" y1="104.48" x2="23.04" y2="104.48"/><path class="cls-1" d="M65.57,85a7.25,7.25,0,0,1-1,1.54c-.39.56-.82,1.1-1.25,1.63a33.87,33.87,0,0,1-3.11,3.34,41,41,0,0,1-6.34,5.13c-4.93,3.09-10.07,5.49-15.92,5.82.78.49,1.56,1,2.35,1.46a10.16,10.16,0,0,0,2.56,1.56c.63.13,1.3-.32,1.86-.55.92-.37,1.83-.73,2.73-1.13a52.82,52.82,0,0,0,9.42-5.08,40.59,40.59,0,0,0,7.76-7.11,16.56,16.56,0,0,0,2.68-3.91c.6-1.5-.78-2-1.74-2.7"/><rect class="cls-3" x="23.04" y="62.83" width="159.16" height="81.83"/><path class="cls-1" d="M209,92.45a14.23,14.23,0,0,0,.32-3,13,13,0,0,1,.66-3c.3-1.06.55-2.13.93-3.17s.69-1.83,1.06-2.76a38.07,38.07,0,0,1,6.5-10.89A35.56,35.56,0,0,1,226,62.83a34.06,34.06,0,0,1-1.29,12.39c-1.31,3.9-2.08,8.12-4.56,11.48a11.26,11.26,0,0,1-2.34,2.48,25.71,25.71,0,0,1-2.7,1.66c-1.91,1.06-4,1.17-6.1,1.61"/><path class="cls-1" d="M215.76,94.19c.23-.3.9-.44,1.24-.66s.87-.45,1.27-.75a17,17,0,0,0,2.3-2.1A17.75,17.75,0,0,0,224,85.6c1.68-3.69,1.84-7.79,1.89-11.77a28.27,28.27,0,0,0-.63-5.94l-.3-1.48a2,2,0,0,1,.23-1.32l.72-2c.21-.57.3-.13.54.22a15.16,15.16,0,0,1,2.43,5.38c.19.93.6,1.77.79,2.71a23.71,23.71,0,0,1,.54,2.89,25.43,25.43,0,0,1,0,6,14.49,14.49,0,0,1-.61,3.08c-.38,1-.81,1.91-1.13,2.87a12.29,12.29,0,0,1-3.54,5.07,11.68,11.68,0,0,1-5.4,2.57c-.61.13-1.23.12-1.85.25s-1.2-.18-1.83,0"/><path class="cls-1" d="M287.82,136.52a35.17,35.17,0,0,0,2.27,4.13c.9,1.28,1.72,2.68,2.56,4a21.34,21.34,0,0,0,6-22.16,12.58,12.58,0,0,0-5.89-7.25,10.6,10.6,0,0,0-3.08-1.11,19.86,19.86,0,0,1,4,4.88,20.56,20.56,0,0,1,1.72,5.46,18.49,18.49,0,0,1,.09,6.12,29.68,29.68,0,0,1-.52,3.27c-.26,1.06-.58,2.1-.8,3.16a3.12,3.12,0,0,1-.18.48,26.83,26.83,0,0,0-.05-5.23c-.22-1.95-.24-3.88-.64-5.81a20.49,20.49,0,0,0-1.45-5.62,15.62,15.62,0,0,0-3.39-4.36c-.73-.65-1.45-1.29-2.22-1.88a4.84,4.84,0,0,0-1.34-.68,3.55,3.55,0,0,0-1.3-.55,8.28,8.28,0,0,0-.22,3,9.14,9.14,0,0,1,0,1.38c0,.49,0,1,0,1.45a40.34,40.34,0,0,0,4.56,17.29Z"/><path class="cls-1" d="M296.19,123a7,7,0,0,0-1-1.54c-.39-.56-.82-1.1-1.25-1.63a31.79,31.79,0,0,0-3.12-3.34,40.47,40.47,0,0,0-6.33-5.13c-4.94-3.09-10.07-5.5-15.92-5.82l2.34-1.47a10.18,10.18,0,0,1,2.57-1.55c.63-.13,1.3.32,1.86.54.92.38,1.83.73,2.73,1.14a53.42,53.42,0,0,1,9.42,5.07,41.22,41.22,0,0,1,7.76,7.11,16.82,16.82,0,0,1,2.68,3.92c.6,1.5-.78,2-1.74,2.7"/><line class="cls-2" x1="341.36" y1="104.48" x2="182.2" y2="104.48"/><path class="cls-1" d="M224.73,85a7.25,7.25,0,0,1-1,1.54c-.39.56-.82,1.1-1.25,1.63a33.87,33.87,0,0,1-3.11,3.34A41,41,0,0,1,213,96.67c-4.93,3.09-10.07,5.49-15.92,5.82l2.35,1.46a10.16,10.16,0,0,0,2.56,1.56c.63.13,1.3-.32,1.86-.55.92-.37,1.83-.73,2.73-1.13A52.14,52.14,0,0,0,216,98.75a40.59,40.59,0,0,0,7.76-7.11,16.6,16.6,0,0,0,2.69-3.91c.59-1.5-.79-2-1.75-2.7"/><rect class="cls-3" x="182.2" y="62.83" width="159.16" height="81.83"/><path class="cls-1" d="M209,92.45a14.23,14.23,0,0,0,.32-3,13,13,0,0,1,.66-3c.3-1.06.55-2.13.93-3.17s.69-1.83,1.06-2.76a38.07,38.07,0,0,1,6.5-10.89A35.56,35.56,0,0,1,226,62.83a34.06,34.06,0,0,1-1.29,12.39c-1.31,3.9-2.08,8.12-4.56,11.48a11.26,11.26,0,0,1-2.34,2.48,25.71,25.71,0,0,1-2.7,1.66c-1.91,1.06-4,1.17-6.1,1.61"/><path class="cls-1" d="M215.76,94.19c.23-.3.9-.44,1.24-.66s.87-.45,1.27-.75a17,17,0,0,0,2.3-2.1A17.75,17.75,0,0,0,224,85.6c1.68-3.69,1.84-7.79,1.89-11.77a28.27,28.27,0,0,0-.63-5.94l-.3-1.48a2,2,0,0,1,.23-1.32l.72-2c.21-.57.3-.13.54.22a15.16,15.16,0,0,1,2.43,5.38c.19.93.6,1.77.79,2.71a23.71,23.71,0,0,1,.54,2.89,25.43,25.43,0,0,1,0,6,14.49,14.49,0,0,1-.61,3.08c-.38,1-.81,1.91-1.13,2.87a12.29,12.29,0,0,1-3.54,5.07,11.68,11.68,0,0,1-5.4,2.57c-.61.13-1.23.12-1.85.25s-1.2-.18-1.83,0"/><path class="cls-1" d="M287.82,136.52a35.17,35.17,0,0,0,2.27,4.13c.9,1.28,1.72,2.68,2.56,4a21.34,21.34,0,0,0,6-22.16,12.58,12.58,0,0,0-5.89-7.25,10.6,10.6,0,0,0-3.08-1.11,19.86,19.86,0,0,1,4,4.88,20.56,20.56,0,0,1,1.72,5.46,18.49,18.49,0,0,1,.09,6.12,29.68,29.68,0,0,1-.52,3.27c-.26,1.06-.58,2.1-.8,3.16a3.12,3.12,0,0,1-.18.48,26.83,26.83,0,0,0-.05-5.23c-.22-1.95-.24-3.88-.64-5.81a20.49,20.49,0,0,0-1.45-5.62,15.62,15.62,0,0,0-3.39-4.36c-.73-.65-1.45-1.29-2.22-1.88a4.84,4.84,0,0,0-1.34-.68,3.55,3.55,0,0,0-1.3-.55,8.28,8.28,0,0,0-.22,3,9.14,9.14,0,0,1,0,1.38c0,.49,0,1,0,1.45a40.34,40.34,0,0,0,4.56,17.29Z"/><path class="cls-1" d="M296.19,123a7,7,0,0,0-1-1.54c-.39-.56-.82-1.1-1.25-1.63a31.79,31.79,0,0,0-3.12-3.34,40.47,40.47,0,0,0-6.33-5.13c-4.94-3.09-10.07-5.5-15.92-5.82l2.34-1.47a10.18,10.18,0,0,1,2.57-1.55c.63-.13,1.3.32,1.86.54.92.38,1.83.73,2.73,1.14a53.42,53.42,0,0,1,9.42,5.07,41.22,41.22,0,0,1,7.76,7.11,16.82,16.82,0,0,1,2.68,3.92c.6,1.5-.78,2-1.74,2.7"/><line class="cls-2" x1="341.36" y1="104.48" x2="182.2" y2="104.48"/><path class="cls-1" d="M224.73,85a7.25,7.25,0,0,1-1,1.54c-.39.56-.82,1.1-1.25,1.63a33.87,33.87,0,0,1-3.11,3.34A41,41,0,0,1,213,96.67c-4.93,3.09-10.07,5.49-15.92,5.82l2.35,1.46a10.16,10.16,0,0,0,2.56,1.56c.63.13,1.3-.32,1.86-.55.92-.37,1.83-.73,2.73-1.13A52.14,52.14,0,0,0,216,98.75a40.59,40.59,0,0,0,7.76-7.11,16.6,16.6,0,0,0,2.69-3.91c.59-1.5-.79-2-1.75-2.7"/><rect class="cls-3" x="182.2" y="62.83" width="159.16" height="81.83"/><path class="cls-1" d="M368.14,92.45a14.91,14.91,0,0,0,.33-3,13,13,0,0,1,.65-3c.31-1.06.55-2.13.93-3.17s.7-1.83,1.06-2.76a38.07,38.07,0,0,1,6.5-10.89,35.37,35.37,0,0,1,7.53-6.76,34.07,34.07,0,0,1-1.3,12.39c-1.31,3.9-2.07,8.12-4.56,11.48A11.22,11.22,0,0,1,377,89.18a26.93,26.93,0,0,1-2.71,1.66c-1.91,1.06-4,1.17-6.1,1.61"/><path class="cls-1" d="M374.92,94.19c.23-.3.91-.44,1.24-.66s.87-.45,1.27-.75a17,17,0,0,0,2.3-2.1,18,18,0,0,0,3.39-5.08c1.67-3.69,1.83-7.79,1.89-11.77a29,29,0,0,0-.64-5.94l-.3-1.48a2,2,0,0,1,.23-1.32l.72-2c.21-.57.3-.13.54.22A15.16,15.16,0,0,1,388,68.73c.19.93.6,1.77.79,2.71a22.92,22.92,0,0,1,.5,8.93,13.89,13.89,0,0,1-.61,3.08c-.37,1-.8,1.91-1.13,2.87A12.29,12.29,0,0,1,384,91.39,11.63,11.63,0,0,1,378.6,94c-.61.13-1.23.12-1.85.25s-1.19-.18-1.83,0"/><path class="cls-1" d="M447,136.52a35.17,35.17,0,0,0,2.27,4.13c.9,1.28,1.73,2.68,2.56,4a21.34,21.34,0,0,0,5.95-22.16,13.61,13.61,0,0,0-3.41-5.44,13.83,13.83,0,0,0-2.48-1.81,10.64,10.64,0,0,0-3.07-1.11,19.82,19.82,0,0,1,4,4.88,20.56,20.56,0,0,1,1.72,5.46,18.49,18.49,0,0,1,.09,6.12,32.24,32.24,0,0,1-.51,3.27c-.26,1.06-.59,2.1-.81,3.16a1.88,1.88,0,0,1-.18.48,27.65,27.65,0,0,0,0-5.23c-.23-1.95-.25-3.88-.65-5.81a20.49,20.49,0,0,0-1.45-5.62,15.62,15.62,0,0,0-3.39-4.36c-.73-.65-1.44-1.29-2.22-1.88a4.92,4.92,0,0,0-1.33-.68,3.67,3.67,0,0,0-1.31-.55,8.28,8.28,0,0,0-.22,3,10.64,10.64,0,0,1,0,1.38c0,.49,0,1,0,1.45A40.34,40.34,0,0,0,447,136.52Z"/><path class="cls-1" d="M455.35,123a7,7,0,0,0-1-1.54c-.39-.56-.82-1.1-1.25-1.63a32.79,32.79,0,0,0-3.11-3.34,41,41,0,0,0-6.34-5.13c-4.93-3.09-10.07-5.5-15.92-5.82l2.35-1.47a10.12,10.12,0,0,1,2.56-1.55c.63-.13,1.3.32,1.86.54.92.38,1.83.73,2.73,1.14a53.42,53.42,0,0,1,9.42,5.07,40.92,40.92,0,0,1,7.76,7.11,16.82,16.82,0,0,1,2.68,3.92c.6,1.5-.78,2-1.74,2.7"/><line class="cls-2" x1="500.53" y1="104.48" x2="341.36" y2="104.48"/><path class="cls-1" d="M383.9,85a7.71,7.71,0,0,1-1,1.54c-.39.56-.82,1.1-1.24,1.63a35.23,35.23,0,0,1-3.12,3.34,41,41,0,0,1-6.34,5.13c-4.93,3.09-10.07,5.49-15.91,5.82l2.34,1.46a10.16,10.16,0,0,0,2.56,1.56c.63.13,1.3-.32,1.87-.55.91-.37,1.82-.73,2.73-1.13a52.82,52.82,0,0,0,9.42-5.08A40.84,40.84,0,0,0,383,91.64a16.3,16.3,0,0,0,2.69-3.91c.59-1.5-.78-2-1.74-2.7"/><rect class="cls-3" x="341.36" y="62.83" width="159.16" height="81.83"/><path class="cls-1" d="M368.14,92.45a14.91,14.91,0,0,0,.33-3,13,13,0,0,1,.65-3c.31-1.06.55-2.13.93-3.17s.7-1.83,1.06-2.76a38.07,38.07,0,0,1,6.5-10.89,35.37,35.37,0,0,1,7.53-6.76,34.07,34.07,0,0,1-1.3,12.39c-1.31,3.9-2.07,8.12-4.56,11.48A11.22,11.22,0,0,1,377,89.18a26.93,26.93,0,0,1-2.71,1.66c-1.91,1.06-4,1.17-6.1,1.61"/><path class="cls-1" d="M374.92,94.19c.23-.3.91-.44,1.24-.66s.87-.45,1.27-.75a17,17,0,0,0,2.3-2.1,18,18,0,0,0,3.39-5.08c1.67-3.69,1.83-7.79,1.89-11.77a29,29,0,0,0-.64-5.94l-.3-1.48a2,2,0,0,1,.23-1.32l.72-2c.21-.57.3-.13.54.22A15.16,15.16,0,0,1,388,68.73c.19.93.6,1.77.79,2.71a22.92,22.92,0,0,1,.5,8.93,13.89,13.89,0,0,1-.61,3.08c-.37,1-.8,1.91-1.13,2.87A12.29,12.29,0,0,1,384,91.39,11.63,11.63,0,0,1,378.6,94c-.61.13-1.23.12-1.85.25s-1.19-.18-1.83,0"/><path class="cls-1" d="M447,136.52a35.17,35.17,0,0,0,2.27,4.13c.9,1.28,1.73,2.68,2.56,4a21.34,21.34,0,0,0,5.95-22.16,13.61,13.61,0,0,0-3.41-5.44,13.83,13.83,0,0,0-2.48-1.81,10.64,10.64,0,0,0-3.07-1.11,19.82,19.82,0,0,1,4,4.88,20.56,20.56,0,0,1,1.72,5.46,18.49,18.49,0,0,1,.09,6.12,32.24,32.24,0,0,1-.51,3.27c-.26,1.06-.59,2.1-.81,3.16a1.88,1.88,0,0,1-.18.48,27.65,27.65,0,0,0,0-5.23c-.23-1.95-.25-3.88-.65-5.81a20.49,20.49,0,0,0-1.45-5.62,15.62,15.62,0,0,0-3.39-4.36c-.73-.65-1.44-1.29-2.22-1.88a4.92,4.92,0,0,0-1.33-.68,3.67,3.67,0,0,0-1.31-.55,8.28,8.28,0,0,0-.22,3,10.64,10.64,0,0,1,0,1.38c0,.49,0,1,0,1.45A40.34,40.34,0,0,0,447,136.52Z"/><path class="cls-1" d="M455.35,123a7,7,0,0,0-1-1.54c-.39-.56-.82-1.1-1.25-1.63a32.79,32.79,0,0,0-3.11-3.34,41,41,0,0,0-6.34-5.13c-4.93-3.09-10.07-5.5-15.92-5.82l2.35-1.47a10.12,10.12,0,0,1,2.56-1.55c.63-.13,1.3.32,1.86.54.92.38,1.83.73,2.73,1.14a53.42,53.42,0,0,1,9.42,5.07,40.92,40.92,0,0,1,7.76,7.11,16.82,16.82,0,0,1,2.68,3.92c.6,1.5-.78,2-1.74,2.7"/><line class="cls-2" x1="500.53" y1="104.48" x2="341.36" y2="104.48"/><path class="cls-1" d="M383.9,85a7.71,7.71,0,0,1-1,1.54c-.39.56-.82,1.1-1.24,1.63a35.23,35.23,0,0,1-3.12,3.34,41,41,0,0,1-6.34,5.13c-4.93,3.09-10.07,5.49-15.91,5.82l2.34,1.46a10.16,10.16,0,0,0,2.56,1.56c.63.13,1.3-.32,1.87-.55.91-.37,1.82-.73,2.73-1.13a52.82,52.82,0,0,0,9.42-5.08A40.84,40.84,0,0,0,383,91.64a16.3,16.3,0,0,0,2.69-3.91c.59-1.5-.78-2-1.74-2.7"/><rect class="cls-3" x="341.36" y="62.83" width="159.16" height="81.83"/><path class="cls-1" d="M527.3,92.45a14.24,14.24,0,0,0,.33-3,13,13,0,0,1,.65-3c.31-1.06.55-2.13.94-3.17s.69-1.83,1.06-2.76a37.81,37.81,0,0,1,6.49-10.89,35.61,35.61,0,0,1,7.53-6.76A34.07,34.07,0,0,1,543,75.22c-1.31,3.9-2.07,8.12-4.56,11.48a11.22,11.22,0,0,1-2.33,2.48,25.85,25.85,0,0,1-2.71,1.66c-1.91,1.06-4,1.17-6.1,1.61"/><path class="cls-1" d="M534.08,94.19c.23-.3.91-.44,1.24-.66s.87-.45,1.28-.75a17.5,17.5,0,0,0,2.29-2.1,18,18,0,0,0,3.39-5.08c1.67-3.69,1.83-7.79,1.89-11.77a27.63,27.63,0,0,0-.64-5.94c-.1-.49-.2-1-.29-1.48a2,2,0,0,1,.22-1.32c.24-.65.48-1.31.73-2s.29-.13.53.22a15.36,15.36,0,0,1,2.44,5.38c.18.93.59,1.77.78,2.71a22.92,22.92,0,0,1,.5,8.93,13.89,13.89,0,0,1-.61,3.08c-.37,1-.8,1.91-1.12,2.87a12.4,12.4,0,0,1-3.55,5.07A11.64,11.64,0,0,1,537.77,94c-.62.13-1.24.12-1.85.25s-1.2-.18-1.84,0"/><path class="cls-1" d="M606.14,136.52a35.17,35.17,0,0,0,2.27,4.13c.9,1.28,1.73,2.68,2.56,4a21.32,21.32,0,0,0,5.95-22.16,13.61,13.61,0,0,0-3.41-5.44,13.83,13.83,0,0,0-2.48-1.81,10.64,10.64,0,0,0-3.07-1.11,19.82,19.82,0,0,1,4,4.88,20.56,20.56,0,0,1,1.72,5.46,18.49,18.49,0,0,1,.09,6.12,29.66,29.66,0,0,1-.51,3.27c-.26,1.06-.58,2.1-.81,3.16a1.88,1.88,0,0,1-.18.48,27.65,27.65,0,0,0,0-5.23c-.23-1.95-.25-3.88-.64-5.81s-.55-3.88-1.46-5.62a15.62,15.62,0,0,0-3.39-4.36c-.73-.65-1.44-1.29-2.22-1.88a4.92,4.92,0,0,0-1.33-.68c-.44-.19-.81-.54-1.3-.55a7.86,7.86,0,0,0-.22,3,12.82,12.82,0,0,1,0,1.38c0,.49,0,1,0,1.45a40.17,40.17,0,0,0,.65,6A41.91,41.91,0,0,0,606.14,136.52Z"/><path class="cls-1" d="M614.51,123a7,7,0,0,0-1-1.54c-.39-.56-.82-1.1-1.25-1.63a32.79,32.79,0,0,0-3.11-3.34,41,41,0,0,0-6.34-5.13c-4.93-3.09-10.07-5.5-15.91-5.82l2.34-1.47a10.12,10.12,0,0,1,2.56-1.55c.63-.13,1.3.32,1.86.54.92.38,1.83.73,2.73,1.14a52.73,52.73,0,0,1,9.42,5.07,40.92,40.92,0,0,1,7.76,7.11,16.56,16.56,0,0,1,2.69,3.92c.59,1.5-.79,2-1.75,2.7"/><line class="cls-2" x1="659.69" y1="104.48" x2="500.53" y2="104.48"/><path class="cls-1" d="M543.06,85a6.93,6.93,0,0,1-1,1.54c-.39.56-.82,1.1-1.24,1.63a34,34,0,0,1-3.12,3.34,40.94,40.94,0,0,1-6.33,5.13c-4.94,3.09-10.08,5.49-15.92,5.82l2.34,1.46a10.16,10.16,0,0,0,2.56,1.56c.63.13,1.31-.32,1.87-.55.91-.37,1.82-.73,2.73-1.13a52.82,52.82,0,0,0,9.42-5.08,41.2,41.2,0,0,0,7.76-7.11,16.56,16.56,0,0,0,2.68-3.91c.6-1.5-.78-2-1.74-2.7"/><rect class="cls-3" x="500.53" y="62.83" width="159.16" height="81.83"/><path class="cls-1" d="M527.3,92.45a14.24,14.24,0,0,0,.33-3,13,13,0,0,1,.65-3c.31-1.06.55-2.13.94-3.17s.69-1.83,1.06-2.76a37.81,37.81,0,0,1,6.49-10.89,35.61,35.61,0,0,1,7.53-6.76A34.07,34.07,0,0,1,543,75.22c-1.31,3.9-2.07,8.12-4.56,11.48a11.22,11.22,0,0,1-2.33,2.48,25.85,25.85,0,0,1-2.71,1.66c-1.91,1.06-4,1.17-6.1,1.61"/><path class="cls-1" d="M534.08,94.19c.23-.3.91-.44,1.24-.66s.87-.45,1.28-.75a17.5,17.5,0,0,0,2.29-2.1,18,18,0,0,0,3.39-5.08c1.67-3.69,1.83-7.79,1.89-11.77a27.63,27.63,0,0,0-.64-5.94c-.1-.49-.2-1-.29-1.48a2,2,0,0,1,.22-1.32c.24-.65.48-1.31.73-2s.29-.13.53.22a15.36,15.36,0,0,1,2.44,5.38c.18.93.59,1.77.78,2.71a22.92,22.92,0,0,1,.5,8.93,13.89,13.89,0,0,1-.61,3.08c-.37,1-.8,1.91-1.12,2.87a12.4,12.4,0,0,1-3.55,5.07A11.64,11.64,0,0,1,537.77,94c-.62.13-1.24.12-1.85.25s-1.2-.18-1.84,0"/><path class="cls-1" d="M606.14,136.52a35.17,35.17,0,0,0,2.27,4.13c.9,1.28,1.73,2.68,2.56,4a21.32,21.32,0,0,0,5.95-22.16,13.61,13.61,0,0,0-3.41-5.44,13.83,13.83,0,0,0-2.48-1.81,10.64,10.64,0,0,0-3.07-1.11,19.82,19.82,0,0,1,4,4.88,20.56,20.56,0,0,1,1.72,5.46,18.49,18.49,0,0,1,.09,6.12,29.66,29.66,0,0,1-.51,3.27c-.26,1.06-.58,2.1-.81,3.16a1.88,1.88,0,0,1-.18.48,27.65,27.65,0,0,0,0-5.23c-.23-1.95-.25-3.88-.64-5.81s-.55-3.88-1.46-5.62a15.62,15.62,0,0,0-3.39-4.36c-.73-.65-1.44-1.29-2.22-1.88a4.92,4.92,0,0,0-1.33-.68c-.44-.19-.81-.54-1.3-.55a7.86,7.86,0,0,0-.22,3,12.82,12.82,0,0,1,0,1.38c0,.49,0,1,0,1.45a40.17,40.17,0,0,0,.65,6A41.91,41.91,0,0,0,606.14,136.52Z"/><path class="cls-1" d="M614.51,123a7,7,0,0,0-1-1.54c-.39-.56-.82-1.1-1.25-1.63a32.79,32.79,0,0,0-3.11-3.34,41,41,0,0,0-6.34-5.13c-4.93-3.09-10.07-5.5-15.91-5.82l2.34-1.47a10.12,10.12,0,0,1,2.56-1.55c.63-.13,1.3.32,1.86.54.92.38,1.83.73,2.73,1.14a52.73,52.73,0,0,1,9.42,5.07,40.92,40.92,0,0,1,7.76,7.11,16.56,16.56,0,0,1,2.69,3.92c.59,1.5-.79,2-1.75,2.7"/><line class="cls-2" x1="659.69" y1="104.48" x2="500.53" y2="104.48"/><path class="cls-1" d="M543.06,85a6.93,6.93,0,0,1-1,1.54c-.39.56-.82,1.1-1.24,1.63a34,34,0,0,1-3.12,3.34,40.94,40.94,0,0,1-6.33,5.13c-4.94,3.09-10.08,5.49-15.92,5.82l2.34,1.46a10.16,10.16,0,0,0,2.56,1.56c.63.13,1.31-.32,1.87-.55.91-.37,1.82-.73,2.73-1.13a52.82,52.82,0,0,0,9.42-5.08,41.2,41.2,0,0,0,7.76-7.11,16.56,16.56,0,0,0,2.68-3.91c.6-1.5-.78-2-1.74-2.7"/><rect class="cls-3" x="500.53" y="62.83" width="159.16" height="81.83"/><path class="cls-1" d="M686.46,92.45a14.24,14.24,0,0,0,.33-3,13,13,0,0,1,.65-3c.31-1.06.55-2.13.94-3.17s.69-1.83,1.06-2.76a37.81,37.81,0,0,1,6.49-10.89,35.86,35.86,0,0,1,7.53-6.76,34.07,34.07,0,0,1-1.3,12.39c-1.31,3.9-2.07,8.12-4.56,11.48a11.22,11.22,0,0,1-2.33,2.48,25.85,25.85,0,0,1-2.71,1.66c-1.91,1.06-4,1.17-6.1,1.61"/><path class="cls-1" d="M693.24,94.19c.23-.3.91-.44,1.25-.66s.86-.45,1.27-.75a17.5,17.5,0,0,0,2.29-2.1,18,18,0,0,0,3.39-5.08c1.67-3.69,1.83-7.79,1.89-11.77a28.27,28.27,0,0,0-.63-5.94l-.3-1.48a2.07,2.07,0,0,1,.22-1.32l.73-2c.21-.57.29-.13.54.22a15.52,15.52,0,0,1,2.43,5.38c.19.93.59,1.77.78,2.71a23.74,23.74,0,0,1,.55,2.89,26,26,0,0,1,0,6,13.89,13.89,0,0,1-.61,3.08c-.37,1-.8,1.91-1.12,2.87a12.31,12.31,0,0,1-3.55,5.07A11.64,11.64,0,0,1,696.93,94c-.61.13-1.24.12-1.85.25s-1.2-.18-1.84,0"/><path class="cls-1" d="M765.3,136.52a36.69,36.69,0,0,0,2.27,4.13c.9,1.28,1.73,2.68,2.56,4a21.34,21.34,0,0,0,6-22.16,13.63,13.63,0,0,0-3.42-5.44,14.12,14.12,0,0,0-2.47-1.81,10.81,10.81,0,0,0-3.08-1.11,19.6,19.6,0,0,1,4,4.88,20.56,20.56,0,0,1,1.72,5.46,18.49,18.49,0,0,1,.09,6.12,29.66,29.66,0,0,1-.51,3.27c-.26,1.06-.58,2.1-.81,3.16a1.88,1.88,0,0,1-.18.48,26.08,26.08,0,0,0,0-5.23c-.23-1.95-.25-3.88-.64-5.81s-.55-3.88-1.46-5.62a15.62,15.62,0,0,0-3.39-4.36c-.73-.65-1.44-1.29-2.22-1.88a4.92,4.92,0,0,0-1.33-.68c-.44-.19-.81-.54-1.3-.55a7.86,7.86,0,0,0-.22,3,10.67,10.67,0,0,1,0,1.38c0,.49,0,1,0,1.45a40.17,40.17,0,0,0,.65,6A42.61,42.61,0,0,0,765.3,136.52Z"/><path class="cls-1" d="M773.68,123a7.44,7.44,0,0,0-1-1.54c-.39-.56-.82-1.1-1.24-1.63a32.88,32.88,0,0,0-3.12-3.34,41.42,41.42,0,0,0-6.33-5.13c-4.94-3.09-10.08-5.5-15.92-5.82l2.34-1.47a10.12,10.12,0,0,1,2.56-1.55c.63-.13,1.31.32,1.87.54.91.38,1.82.73,2.73,1.14a53.42,53.42,0,0,1,9.42,5.07,41.53,41.53,0,0,1,7.76,7.11,16.82,16.82,0,0,1,2.68,3.92c.6,1.5-.78,2-1.74,2.7"/><line class="cls-2" x1="818.85" y1="104.48" x2="659.69" y2="104.48"/><path class="cls-1" d="M702.22,85a7.25,7.25,0,0,1-1,1.54c-.39.56-.82,1.1-1.25,1.63a34,34,0,0,1-3.12,3.34,40.47,40.47,0,0,1-6.33,5.13c-4.94,3.09-10.07,5.49-15.92,5.82l2.34,1.46a10.22,10.22,0,0,0,2.57,1.56c.63.13,1.3-.32,1.86-.55.91-.37,1.83-.73,2.73-1.13a52.82,52.82,0,0,0,9.42-5.08,41.2,41.2,0,0,0,7.76-7.11A16.56,16.56,0,0,0,704,87.73c.6-1.5-.78-2-1.74-2.7"/><rect class="cls-3" x="659.69" y="62.83" width="159.16" height="81.83"/><path class="cls-1" d="M791.49,93.91a14.81,14.81,0,0,0,3,.32,12.85,12.85,0,0,1,3,.63c1.06.29,2.13.53,3.17.89l2.76,1a38.17,38.17,0,0,1,10.9,6.25,34.78,34.78,0,0,1,6.75,7.23A35.17,35.17,0,0,1,808.71,109c-3.89-1.26-8.12-2-11.48-4.38a11.26,11.26,0,0,1-2.47-2.24,22.39,22.39,0,0,1-1.66-2.6c-1.07-1.84-1.18-3.86-1.61-5.87"/><path class="cls-1" d="M789.75,100.43c.29.22.43.87.65,1.2s.46.83.76,1.22a17.51,17.51,0,0,0,2.1,2.21,17.71,17.71,0,0,0,5.08,3.25c3.68,1.6,7.78,1.76,11.77,1.82a30.21,30.21,0,0,0,5.93-.61l1.48-.29a2.05,2.05,0,0,1,1.32.22l2,.69c.57.21.13.29-.21.52a15.6,15.6,0,0,1-5.38,2.34c-.93.18-1.78.57-2.71.75a23.84,23.84,0,0,1-2.9.53,27.11,27.11,0,0,1-6,0,14.57,14.57,0,0,1-3.08-.58c-.94-.36-1.91-.78-2.87-1.09a12.33,12.33,0,0,1-5.07-3.4A11.25,11.25,0,0,1,790,104c-.13-.58-.12-1.18-.25-1.78s.19-1.15,0-1.76"/><path class="cls-1" d="M747.41,169.69a36.94,36.94,0,0,0-4.13,2.18c-1.28.87-2.68,1.66-4,2.46a21.92,21.92,0,0,0,22.16,5.72,13.69,13.69,0,0,0,5.43-3.28,13.06,13.06,0,0,0,1.82-2.38,10,10,0,0,0,1.1-3,19.47,19.47,0,0,1-4.88,3.81,21,21,0,0,1-5.46,1.66,19.26,19.26,0,0,1-6.11.08,32.83,32.83,0,0,1-3.28-.49c-1-.25-2.09-.56-3.16-.77a3.12,3.12,0,0,1-.48-.18,27.75,27.75,0,0,0,5.24,0c2-.22,3.87-.24,5.8-.62a21,21,0,0,0,5.62-1.4,15.24,15.24,0,0,0,4.36-3.25c.65-.7,1.3-1.39,1.89-2.14a4.5,4.5,0,0,0,.68-1.28c.18-.42.54-.78.55-1.25a8.29,8.29,0,0,0-3-.21,10.83,10.83,0,0,1-1.39,0c-.48,0-1,0-1.45,0a41.51,41.51,0,0,0-17.29,4.38Z"/><path class="cls-1" d="M760.92,177.74a7.2,7.2,0,0,0,1.53-1c.57-.37,1.11-.79,1.64-1.2a32.69,32.69,0,0,0,3.34-3,39.6,39.6,0,0,0,5.13-6.09c3.08-4.74,5.49-9.68,5.82-15.3l1.46,2.25a9.38,9.38,0,0,1,1.55,2.47c.13.6-.31,1.25-.54,1.79-.37.88-.73,1.75-1.14,2.62a49.06,49.06,0,0,1-5.07,9.05,40.16,40.16,0,0,1-7.11,7.46,16.47,16.47,0,0,1-3.91,2.58c-1.5.57-2-.75-2.7-1.67"/><line class="cls-2" x1="779.45" y1="221.15" x2="779.45" y2="68.18"/><path class="cls-1" d="M798.91,109.06a7,7,0,0,1-1.54-1c-.56-.37-1.1-.78-1.63-1.19a32.91,32.91,0,0,1-3.34-3,40.24,40.24,0,0,1-5.14-6.09c-3.08-4.74-5.49-9.68-5.81-15.3L780,84.76a9.54,9.54,0,0,0-1.55,2.47c-.13.6.32,1.25.54,1.79.38.88.73,1.76,1.14,2.62a50.06,50.06,0,0,0,5.07,9.06,40.42,40.42,0,0,0,7.11,7.45,16.52,16.52,0,0,0,3.92,2.58c1.5.58,2-.75,2.7-1.67"/><rect class="cls-3" x="739.27" y="68.18" width="81.83" height="152.97"/><path class="cls-1" d="M791.49,246.88a14.14,14.14,0,0,0,3,.32,12.85,12.85,0,0,1,3,.63c1.06.29,2.13.53,3.17.9s1.84.66,2.76,1a38.41,38.41,0,0,1,10.9,6.25,34.78,34.78,0,0,1,6.75,7.23A35.39,35.39,0,0,1,808.71,262c-3.89-1.26-8.12-2-11.48-4.39a11,11,0,0,1-2.47-2.24,21.57,21.57,0,0,1-1.66-2.6c-1.07-1.84-1.18-3.86-1.61-5.87"/><path class="cls-1" d="M789.75,253.4c.29.22.43.87.65,1.2s.46.83.76,1.22a17.51,17.51,0,0,0,2.1,2.21,17.71,17.71,0,0,0,5.08,3.25c3.68,1.61,7.78,1.76,11.77,1.82a30.21,30.21,0,0,0,5.93-.61l1.48-.29a2.05,2.05,0,0,1,1.32.22l2,.69c.57.21.13.29-.21.52a15.6,15.6,0,0,1-5.38,2.34c-.93.18-1.78.57-2.71.75a23.84,23.84,0,0,1-2.9.53,27.72,27.72,0,0,1-6,0,15.24,15.24,0,0,1-3.08-.59c-.94-.36-1.91-.77-2.87-1.08a12.45,12.45,0,0,1-5.07-3.41,11.2,11.2,0,0,1-2.57-5.19c-.13-.58-.12-1.18-.25-1.77s.19-1.16,0-1.77"/><path class="cls-1" d="M747.41,322.66a36.94,36.94,0,0,0-4.13,2.18c-1.28.87-2.68,1.66-4,2.46A21.9,21.9,0,0,0,761.43,333a13.69,13.69,0,0,0,5.43-3.28,12.72,12.72,0,0,0,1.82-2.38,10,10,0,0,0,1.1-2.95,19.66,19.66,0,0,1-4.88,3.8,21,21,0,0,1-5.46,1.66,19,19,0,0,1-6.11.08,32.83,32.83,0,0,1-3.28-.49c-1-.25-2.09-.56-3.16-.77a2.34,2.34,0,0,1-.48-.18,27.75,27.75,0,0,0,5.24,0c2-.21,3.87-.24,5.8-.62a21,21,0,0,0,5.62-1.4,15.24,15.24,0,0,0,4.36-3.25c.65-.7,1.3-1.39,1.89-2.14a4.5,4.5,0,0,0,.68-1.28c.18-.42.54-.78.55-1.25a8.52,8.52,0,0,0-3-.21,10.83,10.83,0,0,1-1.39,0c-.48,0-1,0-1.45,0a41.51,41.51,0,0,0-17.29,4.38Z"/><path class="cls-1" d="M760.92,330.71a7.2,7.2,0,0,0,1.53-1c.57-.37,1.11-.79,1.64-1.19a34,34,0,0,0,3.34-3,39.6,39.6,0,0,0,5.13-6.09c3.08-4.74,5.49-9.68,5.82-15.3l1.46,2.25a9.54,9.54,0,0,1,1.55,2.47c.13.6-.31,1.25-.54,1.79-.37.88-.73,1.75-1.14,2.62a49.46,49.46,0,0,1-5.07,9.06,40.42,40.42,0,0,1-7.11,7.45,16.47,16.47,0,0,1-3.91,2.58c-1.5.58-2-.75-2.7-1.67"/><line class="cls-2" x1="779.45" y1="374.12" x2="779.45" y2="221.15"/><path class="cls-1" d="M798.91,262a7,7,0,0,1-1.54-1c-.56-.37-1.1-.78-1.63-1.19a32.91,32.91,0,0,1-3.34-3,40.24,40.24,0,0,1-5.14-6.09c-3.08-4.74-5.49-9.68-5.81-15.3L780,237.74a9.32,9.32,0,0,0-1.55,2.46c-.13.61.32,1.25.54,1.79.38.88.73,1.76,1.14,2.62a50.06,50.06,0,0,0,5.07,9.06,40.47,40.47,0,0,0,7.11,7.46,16.49,16.49,0,0,0,3.92,2.57c1.5.58,2-.75,2.7-1.67"/><rect class="cls-3" x="739.27" y="221.15" width="81.83" height="152.97"/><path class="cls-1" d="M791.49,246.88a14.14,14.14,0,0,0,3,.32,12.85,12.85,0,0,1,3,.63c1.06.29,2.13.53,3.17.9s1.84.66,2.76,1a38.41,38.41,0,0,1,10.9,6.25,34.78,34.78,0,0,1,6.75,7.23A35.39,35.39,0,0,1,808.71,262c-3.89-1.26-8.12-2-11.48-4.39a11,11,0,0,1-2.47-2.24,21.57,21.57,0,0,1-1.66-2.6c-1.07-1.84-1.18-3.86-1.61-5.87"/><path class="cls-1" d="M789.75,253.4c.29.22.43.87.65,1.2s.46.83.76,1.22a17.51,17.51,0,0,0,2.1,2.21,17.71,17.71,0,0,0,5.08,3.25c3.68,1.61,7.78,1.76,11.77,1.82a30.21,30.21,0,0,0,5.93-.61l1.48-.29a2.05,2.05,0,0,1,1.32.22l2,.69c.57.21.13.29-.21.52a15.6,15.6,0,0,1-5.38,2.34c-.93.18-1.78.57-2.71.75a23.84,23.84,0,0,1-2.9.53,27.72,27.72,0,0,1-6,0,15.24,15.24,0,0,1-3.08-.59c-.94-.36-1.91-.77-2.87-1.08a12.45,12.45,0,0,1-5.07-3.41,11.2,11.2,0,0,1-2.57-5.19c-.13-.58-.12-1.18-.25-1.77s.19-1.16,0-1.77"/><path class="cls-1" d="M747.41,322.66a36.94,36.94,0,0,0-4.13,2.18c-1.28.87-2.68,1.66-4,2.46A21.9,21.9,0,0,0,761.43,333a13.69,13.69,0,0,0,5.43-3.28,12.72,12.72,0,0,0,1.82-2.38,10,10,0,0,0,1.1-2.95,19.66,19.66,0,0,1-4.88,3.8,21,21,0,0,1-5.46,1.66,19,19,0,0,1-6.11.08,32.83,32.83,0,0,1-3.28-.49c-1-.25-2.09-.56-3.16-.77a2.34,2.34,0,0,1-.48-.18,27.75,27.75,0,0,0,5.24,0c2-.21,3.87-.24,5.8-.62a21,21,0,0,0,5.62-1.4,15.24,15.24,0,0,0,4.36-3.25c.65-.7,1.3-1.39,1.89-2.14a4.5,4.5,0,0,0,.68-1.28c.18-.42.54-.78.55-1.25a8.52,8.52,0,0,0-3-.21,10.83,10.83,0,0,1-1.39,0c-.48,0-1,0-1.45,0a41.51,41.51,0,0,0-17.29,4.38Z"/><path class="cls-1" d="M760.92,330.71a7.2,7.2,0,0,0,1.53-1c.57-.37,1.11-.79,1.64-1.19a34,34,0,0,0,3.34-3,39.6,39.6,0,0,0,5.13-6.09c3.08-4.74,5.49-9.68,5.82-15.3l1.46,2.25a9.54,9.54,0,0,1,1.55,2.47c.13.6-.31,1.25-.54,1.79-.37.88-.73,1.75-1.14,2.62a49.46,49.46,0,0,1-5.07,9.06,40.42,40.42,0,0,1-7.11,7.45,16.47,16.47,0,0,1-3.91,2.58c-1.5.58-2-.75-2.7-1.67"/><line class="cls-2" x1="779.45" y1="374.12" x2="779.45" y2="221.15"/><path class="cls-1" d="M798.91,262a7,7,0,0,1-1.54-1c-.56-.37-1.1-.78-1.63-1.19a32.91,32.91,0,0,1-3.34-3,40.24,40.24,0,0,1-5.14-6.09c-3.08-4.74-5.49-9.68-5.81-15.3L780,237.74a9.32,9.32,0,0,0-1.55,2.46c-.13.61.32,1.25.54,1.79.38.88.73,1.76,1.14,2.62a50.06,50.06,0,0,0,5.07,9.06,40.47,40.47,0,0,0,7.11,7.46,16.49,16.49,0,0,0,3.92,2.57c1.5.58,2-.75,2.7-1.67"/><rect class="cls-3" x="739.27" y="221.15" width="81.83" height="152.97"/><path class="cls-1" d="M791.49,399.86a14.79,14.79,0,0,0,3,.31,13.38,13.38,0,0,1,3,.63c1.06.29,2.13.53,3.17.9s1.84.66,2.76,1a38.14,38.14,0,0,1,10.9,6.24,34.78,34.78,0,0,1,6.75,7.23A35.39,35.39,0,0,1,808.71,415c-3.89-1.26-8.12-2-11.48-4.39a10.78,10.78,0,0,1-2.47-2.24,21.57,21.57,0,0,1-1.66-2.6c-1.07-1.83-1.18-3.86-1.61-5.86"/><path class="cls-1" d="M789.75,406.37c.29.23.43.87.65,1.2s.46.83.76,1.22a17.51,17.51,0,0,0,2.1,2.21,17.71,17.71,0,0,0,5.08,3.25c3.68,1.61,7.78,1.76,11.77,1.82a28.76,28.76,0,0,0,5.93-.61l1.48-.29a2.12,2.12,0,0,1,1.32.22l2,.7c.57.2.13.28-.21.51a15.6,15.6,0,0,1-5.38,2.34c-.93.18-1.78.57-2.71.75a23.84,23.84,0,0,1-2.9.53,27.11,27.11,0,0,1-6,0,14.58,14.58,0,0,1-3.08-.59c-.94-.36-1.91-.77-2.87-1.08a12.45,12.45,0,0,1-5.07-3.41,11.2,11.2,0,0,1-2.57-5.19c-.13-.58-.12-1.18-.25-1.77s.19-1.15,0-1.77"/><path class="cls-1" d="M747.41,475.63a36.94,36.94,0,0,0-4.13,2.18c-1.28.87-2.68,1.66-4,2.46A21.88,21.88,0,0,0,761.43,486a13.79,13.79,0,0,0,5.43-3.27,13.13,13.13,0,0,0,1.82-2.39,9.9,9.9,0,0,0,1.1-2.95,19.43,19.43,0,0,1-4.88,3.8,21,21,0,0,1-5.46,1.66,19.26,19.26,0,0,1-6.11.09,32.86,32.86,0,0,1-3.28-.5c-1-.25-2.09-.56-3.16-.77a1.88,1.88,0,0,1-.48-.18,27.75,27.75,0,0,0,5.24,0c2-.21,3.87-.24,5.8-.61a21.74,21.74,0,0,0,5.62-1.4,15.28,15.28,0,0,0,4.36-3.26c.65-.7,1.3-1.39,1.89-2.14a4.5,4.5,0,0,0,.68-1.28c.18-.42.54-.78.55-1.25a8.52,8.52,0,0,0-3-.21,9.28,9.28,0,0,1-1.39,0c-.48,0-1,0-1.45,0a41.51,41.51,0,0,0-17.29,4.38Z"/><path class="cls-1" d="M760.92,483.68a7.2,7.2,0,0,0,1.53-1c.57-.37,1.11-.78,1.64-1.19a34,34,0,0,0,3.34-3,39.6,39.6,0,0,0,5.13-6.09c3.08-4.74,5.49-9.68,5.82-15.3l1.46,2.26a9.32,9.32,0,0,1,1.55,2.46c.13.6-.31,1.25-.54,1.79-.37.88-.73,1.76-1.14,2.62a49.46,49.46,0,0,1-5.07,9.06,40.42,40.42,0,0,1-7.11,7.45,16.47,16.47,0,0,1-3.91,2.58c-1.5.58-2-.75-2.7-1.67"/><line class="cls-2" x1="779.45" y1="527.09" x2="779.45" y2="374.12"/><path class="cls-1" d="M798.91,415a6.63,6.63,0,0,1-1.54-1c-.56-.38-1.1-.79-1.63-1.2a32.91,32.91,0,0,1-3.34-3,40.66,40.66,0,0,1-5.14-6.08c-3.08-4.75-5.49-9.69-5.81-15.3L780,390.71a9.32,9.32,0,0,0-1.55,2.46c-.13.61.32,1.25.54,1.79.38.88.73,1.76,1.14,2.63a50.32,50.32,0,0,0,5.07,9.05,40.47,40.47,0,0,0,7.11,7.46,16.49,16.49,0,0,0,3.92,2.57c1.5.58,2-.75,2.7-1.67"/><rect class="cls-3" x="739.27" y="374.12" width="81.83" height="152.97"/><path class="cls-1" d="M792.08,502.83a13.55,13.55,0,0,0-.33,3,12.91,12.91,0,0,1-.66,3c-.3,1.06-.55,2.13-.93,3.17s-.69,1.84-1.06,2.77a38.07,38.07,0,0,1-6.5,10.89,35.51,35.51,0,0,1-7.52,6.75,34.06,34.06,0,0,1,1.29-12.39c1.31-3.89,2.08-8.12,4.57-11.48a11.17,11.17,0,0,1,2.33-2.47,23.58,23.58,0,0,1,2.7-1.66c1.91-1.07,4-1.18,6.11-1.61"/><path class="cls-1" d="M785.3,501.09c-.24.29-.91.43-1.25.65s-.87.46-1.27.76a19,19,0,0,0-5.68,7.18c-1.67,3.69-1.84,7.78-1.89,11.77a28.11,28.11,0,0,0,.63,5.93l.3,1.48a2,2,0,0,1-.23,1.33l-.72,1.95c-.21.57-.3.14-.54-.21a15.24,15.24,0,0,1-2.43-5.38c-.19-.93-.6-1.78-.79-2.71a24.07,24.07,0,0,1-.54-2.89,26,26,0,0,1,0-6.05,14.61,14.61,0,0,1,.61-3.08c.38-.94.81-1.91,1.13-2.87a12.35,12.35,0,0,1,3.54-5.07,11.92,11.92,0,0,1,5.4-2.57c.61-.12,1.23-.12,1.85-.25s1.2.19,1.84,0"/><path class="cls-1" d="M713.24,458.76a36.2,36.2,0,0,0-2.28-4.14c-.9-1.28-1.72-2.68-2.56-4a21.35,21.35,0,0,0-5.95,22.16,13.76,13.76,0,0,0,3.41,5.43,13.41,13.41,0,0,0,2.48,1.82,10.68,10.68,0,0,0,3.08,1.1,19.6,19.6,0,0,1-4-4.88,20.76,20.76,0,0,1-1.73-5.45,18.49,18.49,0,0,1-.09-6.12,32.91,32.91,0,0,1,.52-3.28c.26-1.05.58-2.09.8-3.16a2.39,2.39,0,0,1,.19-.48,26.18,26.18,0,0,0,0,5.24c.22,1.95.25,3.87.64,5.81s.55,3.88,1.46,5.61a15.13,15.13,0,0,0,3.38,4.36c.73.65,1.45,1.3,2.23,1.89a4.78,4.78,0,0,0,1.33.68c.43.18.81.54,1.3.55a8.08,8.08,0,0,0,.22-3,9.28,9.28,0,0,1,0-1.39c0-.48,0-1,0-1.45a40.4,40.4,0,0,0-4.55-17.28Z"/><path class="cls-1" d="M704.86,472.26a7.25,7.25,0,0,0,1,1.54c.39.56.82,1.1,1.25,1.63a34,34,0,0,0,3.12,3.34,40.47,40.47,0,0,0,6.33,5.13c4.94,3.08,10.07,5.49,15.92,5.82l-2.34,1.46a10.22,10.22,0,0,1-2.57,1.56c-.63.13-1.3-.32-1.86-.55-.91-.37-1.83-.73-2.73-1.14a52.14,52.14,0,0,1-9.42-5.07,41.2,41.2,0,0,1-7.76-7.11,16.56,16.56,0,0,1-2.68-3.91c-.6-1.5.78-2,1.74-2.7"/><line class="cls-2" x1="659.69" y1="490.8" x2="818.85" y2="490.8"/><path class="cls-1" d="M776.32,510.25a7,7,0,0,1,1-1.54c.39-.56.82-1.1,1.25-1.63a32.79,32.79,0,0,1,3.11-3.34,41,41,0,0,1,6.34-5.13c4.93-3.09,10.07-5.5,15.92-5.82l-2.35-1.47a9.84,9.84,0,0,0-2.56-1.55c-.63-.13-1.3.32-1.86.54-.92.38-1.83.73-2.73,1.14a52.77,52.77,0,0,0-9.42,5.07,40.92,40.92,0,0,0-7.76,7.11,16.82,16.82,0,0,0-2.68,3.92c-.6,1.5.78,2,1.74,2.7"/><rect class="cls-3" x="659.69" y="450.61" width="159.16" height="81.83"/><path class="cls-1" d="M632.91,502.83a14.14,14.14,0,0,0-.32,3,12.91,12.91,0,0,1-.66,3c-.3,1.06-.55,2.13-.93,3.17s-.69,1.84-1.06,2.77a38.07,38.07,0,0,1-6.5,10.89,35.51,35.51,0,0,1-7.52,6.75,34.06,34.06,0,0,1,1.29-12.39c1.31-3.89,2.08-8.12,4.56-11.48a11.21,11.21,0,0,1,2.34-2.47,22.74,22.74,0,0,1,2.7-1.66c1.91-1.07,4-1.18,6.1-1.61"/><path class="cls-1" d="M626.13,501.09c-.23.29-.9.43-1.24.65s-.87.46-1.27.76a17,17,0,0,0-2.3,2.1,17.71,17.71,0,0,0-3.39,5.08c-1.67,3.69-1.83,7.78-1.88,11.77a28.11,28.11,0,0,0,.63,5.93l.3,1.48a2,2,0,0,1-.23,1.33l-.72,1.95c-.21.57-.3.14-.54-.21a15.24,15.24,0,0,1-2.43-5.38c-.19-.93-.6-1.78-.79-2.71a24.07,24.07,0,0,1-.54-2.89,25.51,25.51,0,0,1,0-6.05,14.61,14.61,0,0,1,.61-3.08c.38-.94.81-1.91,1.13-2.87a12.35,12.35,0,0,1,3.54-5.07,11.88,11.88,0,0,1,5.4-2.57c.61-.12,1.23-.12,1.85-.25s1.2.19,1.83,0"/><path class="cls-1" d="M554.07,458.76a36.13,36.13,0,0,0-2.27-4.14c-.9-1.28-1.72-2.68-2.56-4a21.33,21.33,0,0,0-6,22.16,13.64,13.64,0,0,0,3.41,5.43,13.41,13.41,0,0,0,2.48,1.82,10.58,10.58,0,0,0,3.08,1.1,19.86,19.86,0,0,1-4-4.88,20.37,20.37,0,0,1-1.72-5.45,18.49,18.49,0,0,1-.09-6.12,30.24,30.24,0,0,1,.52-3.28c.26-1.05.58-2.09.8-3.16a3.12,3.12,0,0,1,.18-.48,26.93,26.93,0,0,0,0,5.24c.22,1.95.24,3.87.64,5.81a20.33,20.33,0,0,0,1.45,5.61,15.34,15.34,0,0,0,3.39,4.36c.73.65,1.45,1.3,2.22,1.89a4.92,4.92,0,0,0,1.33.68c.44.18.82.54,1.31.55a8.3,8.3,0,0,0,.22-3,9.28,9.28,0,0,1,0-1.39c0-.48,0-1,0-1.45a40.27,40.27,0,0,0-4.56-17.28Z"/><path class="cls-1" d="M545.7,472.26a7.25,7.25,0,0,0,1,1.54c.39.56.82,1.1,1.25,1.63a33.87,33.87,0,0,0,3.11,3.34,41,41,0,0,0,6.34,5.13c4.94,3.08,10.07,5.49,15.92,5.82L571,491.18a10.22,10.22,0,0,1-2.57,1.56c-.63.13-1.3-.32-1.86-.55-.92-.37-1.83-.73-2.73-1.14A52.14,52.14,0,0,1,554.4,486a40.89,40.89,0,0,1-7.76-7.11A16.56,16.56,0,0,1,544,475c-.6-1.5.78-2,1.74-2.7"/><line class="cls-2" x1="500.53" y1="490.8" x2="659.69" y2="490.8"/><path class="cls-1" d="M617.16,510.25a7,7,0,0,1,1-1.54c.39-.56.82-1.1,1.25-1.63a32.79,32.79,0,0,1,3.11-3.34,41,41,0,0,1,6.34-5.13c4.93-3.09,10.07-5.5,15.91-5.82l-2.34-1.47a9.84,9.84,0,0,0-2.56-1.55c-.63-.13-1.3.32-1.86.54-.92.38-1.83.73-2.73,1.14a52.1,52.1,0,0,0-9.42,5.07,40.92,40.92,0,0,0-7.76,7.11,16.86,16.86,0,0,0-2.69,3.92c-.59,1.5.79,2,1.75,2.7"/><rect class="cls-3" x="500.53" y="450.61" width="159.16" height="81.83"/><path class="cls-1" d="M632.91,502.83a14.14,14.14,0,0,0-.32,3,12.91,12.91,0,0,1-.66,3c-.3,1.06-.55,2.13-.93,3.17s-.69,1.84-1.06,2.77a38.07,38.07,0,0,1-6.5,10.89,35.51,35.51,0,0,1-7.52,6.75,34.06,34.06,0,0,1,1.29-12.39c1.31-3.89,2.08-8.12,4.56-11.48a11.21,11.21,0,0,1,2.34-2.47,22.74,22.74,0,0,1,2.7-1.66c1.91-1.07,4-1.18,6.1-1.61"/><path class="cls-1" d="M626.13,501.09c-.23.29-.9.43-1.24.65s-.87.46-1.27.76a17,17,0,0,0-2.3,2.1,17.71,17.71,0,0,0-3.39,5.08c-1.67,3.69-1.83,7.78-1.88,11.77a28.11,28.11,0,0,0,.63,5.93l.3,1.48a2,2,0,0,1-.23,1.33l-.72,1.95c-.21.57-.3.14-.54-.21a15.24,15.24,0,0,1-2.43-5.38c-.19-.93-.6-1.78-.79-2.71a24.07,24.07,0,0,1-.54-2.89,25.51,25.51,0,0,1,0-6.05,14.61,14.61,0,0,1,.61-3.08c.38-.94.81-1.91,1.13-2.87a12.35,12.35,0,0,1,3.54-5.07,11.88,11.88,0,0,1,5.4-2.57c.61-.12,1.23-.12,1.85-.25s1.2.19,1.83,0"/><path class="cls-1" d="M554.07,458.76a36.13,36.13,0,0,0-2.27-4.14c-.9-1.28-1.72-2.68-2.56-4a21.33,21.33,0,0,0-6,22.16,13.64,13.64,0,0,0,3.41,5.43,13.41,13.41,0,0,0,2.48,1.82,10.58,10.58,0,0,0,3.08,1.1,19.86,19.86,0,0,1-4-4.88,20.37,20.37,0,0,1-1.72-5.45,18.49,18.49,0,0,1-.09-6.12,30.24,30.24,0,0,1,.52-3.28c.26-1.05.58-2.09.8-3.16a3.12,3.12,0,0,1,.18-.48,26.93,26.93,0,0,0,0,5.24c.22,1.95.24,3.87.64,5.81a20.33,20.33,0,0,0,1.45,5.61,15.34,15.34,0,0,0,3.39,4.36c.73.65,1.45,1.3,2.22,1.89a4.92,4.92,0,0,0,1.33.68c.44.18.82.54,1.31.55a8.3,8.3,0,0,0,.22-3,9.28,9.28,0,0,1,0-1.39c0-.48,0-1,0-1.45a40.27,40.27,0,0,0-4.56-17.28Z"/><path class="cls-1" d="M545.7,472.26a7.25,7.25,0,0,0,1,1.54c.39.56.82,1.1,1.25,1.63a33.87,33.87,0,0,0,3.11,3.34,41,41,0,0,0,6.34,5.13c4.94,3.08,10.07,5.49,15.92,5.82L571,491.18a10.22,10.22,0,0,1-2.57,1.56c-.63.13-1.3-.32-1.86-.55-.92-.37-1.83-.73-2.73-1.14A52.14,52.14,0,0,1,554.4,486a40.89,40.89,0,0,1-7.76-7.11A16.56,16.56,0,0,1,544,475c-.6-1.5.78-2,1.74-2.7"/><line class="cls-2" x1="500.53" y1="490.8" x2="659.69" y2="490.8"/><path class="cls-1" d="M617.16,510.25a7,7,0,0,1,1-1.54c.39-.56.82-1.1,1.25-1.63a32.79,32.79,0,0,1,3.11-3.34,41,41,0,0,1,6.34-5.13c4.93-3.09,10.07-5.5,15.91-5.82l-2.34-1.47a9.84,9.84,0,0,0-2.56-1.55c-.63-.13-1.3.32-1.86.54-.92.38-1.83.73-2.73,1.14a52.1,52.1,0,0,0-9.42,5.07,40.92,40.92,0,0,0-7.76,7.11,16.86,16.86,0,0,0-2.69,3.92c-.59,1.5.79,2,1.75,2.7"/><rect class="cls-3" x="500.53" y="450.61" width="159.16" height="81.83"/><path class="cls-1" d="M473.75,502.83a14.82,14.82,0,0,0-.33,3,12.89,12.89,0,0,1-.65,3c-.31,1.06-.55,2.13-.93,3.17s-.7,1.84-1.06,2.77a38.07,38.07,0,0,1-6.5,10.89,35.32,35.32,0,0,1-7.53,6.75,34.07,34.07,0,0,1,1.3-12.39c1.31-3.89,2.07-8.12,4.56-11.48a11.17,11.17,0,0,1,2.33-2.47,23.7,23.7,0,0,1,2.71-1.66c1.91-1.07,4-1.18,6.1-1.61"/><path class="cls-1" d="M467,501.09c-.23.29-.91.43-1.24.65s-.87.46-1.27.76a17,17,0,0,0-2.3,2.1,17.71,17.71,0,0,0-3.39,5.08c-1.67,3.69-1.83,7.78-1.89,11.77a27.47,27.47,0,0,0,.64,5.93l.3,1.48a2,2,0,0,1-.23,1.33l-.72,1.95c-.22.57-.3.14-.54-.21a15.24,15.24,0,0,1-2.43-5.38c-.19-.93-.6-1.78-.79-2.71a23,23,0,0,1-.5-8.94,14,14,0,0,1,.61-3.08c.37-.94.8-1.91,1.13-2.87a12.35,12.35,0,0,1,3.54-5.07,11.83,11.83,0,0,1,5.4-2.57c.61-.12,1.23-.12,1.85-.25s1.19.19,1.83,0"/><path class="cls-1" d="M394.91,458.76a36.13,36.13,0,0,0-2.27-4.14c-.9-1.28-1.73-2.68-2.56-4a21.33,21.33,0,0,0-5.95,22.16,13.64,13.64,0,0,0,3.41,5.43A13.41,13.41,0,0,0,390,480a10.62,10.62,0,0,0,3.07,1.1,19.82,19.82,0,0,1-4-4.88,20.37,20.37,0,0,1-1.72-5.45,18.49,18.49,0,0,1-.09-6.12,32.88,32.88,0,0,1,.51-3.28c.26-1.05.59-2.09.81-3.16a1.88,1.88,0,0,1,.18-.48,27.75,27.75,0,0,0,0,5.24c.23,1.95.25,3.87.65,5.81a20.33,20.33,0,0,0,1.45,5.61,15.34,15.34,0,0,0,3.39,4.36c.73.65,1.44,1.3,2.22,1.89a4.92,4.92,0,0,0,1.33.68c.44.18.81.54,1.31.55a8.3,8.3,0,0,0,.22-3,10.8,10.8,0,0,1,0-1.39c0-.48,0-1,0-1.45a40.27,40.27,0,0,0-4.56-17.28Z"/><path class="cls-1" d="M386.54,472.26a7.25,7.25,0,0,0,1,1.54c.39.56.82,1.1,1.25,1.63a33.87,33.87,0,0,0,3.11,3.34,41,41,0,0,0,6.34,5.13c4.93,3.08,10.07,5.49,15.92,5.82l-2.35,1.46a10.16,10.16,0,0,1-2.56,1.56c-.63.13-1.3-.32-1.86-.55-.92-.37-1.83-.73-2.73-1.14a52.14,52.14,0,0,1-9.42-5.07,40.59,40.59,0,0,1-7.76-7.11A16.26,16.26,0,0,1,384.8,475c-.6-1.5.78-2,1.74-2.7"/><line class="cls-2" x1="341.36" y1="490.8" x2="500.53" y2="490.8"/><path class="cls-1" d="M458,510.25a7.44,7.44,0,0,1,1-1.54c.39-.56.82-1.1,1.24-1.63a34.06,34.06,0,0,1,3.12-3.34,41,41,0,0,1,6.34-5.13c4.93-3.09,10.07-5.5,15.91-5.82l-2.34-1.47a9.84,9.84,0,0,0-2.56-1.55c-.63-.13-1.31.32-1.87.54-.91.38-1.82.73-2.73,1.14a52.77,52.77,0,0,0-9.42,5.07,41.53,41.53,0,0,0-7.76,7.11,16.82,16.82,0,0,0-2.68,3.92c-.59,1.5.78,2,1.74,2.7"/><rect class="cls-3" x="341.36" y="450.61" width="159.16" height="81.83"/><path class="cls-1" d="M473.75,502.83a14.82,14.82,0,0,0-.33,3,12.89,12.89,0,0,1-.65,3c-.31,1.06-.55,2.13-.93,3.17s-.7,1.84-1.06,2.77a38.07,38.07,0,0,1-6.5,10.89,35.32,35.32,0,0,1-7.53,6.75,34.07,34.07,0,0,1,1.3-12.39c1.31-3.89,2.07-8.12,4.56-11.48a11.17,11.17,0,0,1,2.33-2.47,23.7,23.7,0,0,1,2.71-1.66c1.91-1.07,4-1.18,6.1-1.61"/><path class="cls-1" d="M467,501.09c-.23.29-.91.43-1.24.65s-.87.46-1.27.76a17,17,0,0,0-2.3,2.1,17.71,17.71,0,0,0-3.39,5.08c-1.67,3.69-1.83,7.78-1.89,11.77a27.47,27.47,0,0,0,.64,5.93l.3,1.48a2,2,0,0,1-.23,1.33l-.72,1.95c-.22.57-.3.14-.54-.21a15.24,15.24,0,0,1-2.43-5.38c-.19-.93-.6-1.78-.79-2.71a23,23,0,0,1-.5-8.94,14,14,0,0,1,.61-3.08c.37-.94.8-1.91,1.13-2.87a12.35,12.35,0,0,1,3.54-5.07,11.83,11.83,0,0,1,5.4-2.57c.61-.12,1.23-.12,1.85-.25s1.19.19,1.83,0"/><path class="cls-1" d="M394.91,458.76a36.13,36.13,0,0,0-2.27-4.14c-.9-1.28-1.73-2.68-2.56-4a21.33,21.33,0,0,0-5.95,22.16,13.64,13.64,0,0,0,3.41,5.43A13.41,13.41,0,0,0,390,480a10.62,10.62,0,0,0,3.07,1.1,19.82,19.82,0,0,1-4-4.88,20.37,20.37,0,0,1-1.72-5.45,18.49,18.49,0,0,1-.09-6.12,32.88,32.88,0,0,1,.51-3.28c.26-1.05.59-2.09.81-3.16a1.88,1.88,0,0,1,.18-.48,27.75,27.75,0,0,0,0,5.24c.23,1.95.25,3.87.65,5.81a20.33,20.33,0,0,0,1.45,5.61,15.34,15.34,0,0,0,3.39,4.36c.73.65,1.44,1.3,2.22,1.89a4.92,4.92,0,0,0,1.33.68c.44.18.81.54,1.31.55a8.3,8.3,0,0,0,.22-3,10.8,10.8,0,0,1,0-1.39c0-.48,0-1,0-1.45a40.27,40.27,0,0,0-4.56-17.28Z"/><path class="cls-1" d="M386.54,472.26a7.25,7.25,0,0,0,1,1.54c.39.56.82,1.1,1.25,1.63a33.87,33.87,0,0,0,3.11,3.34,41,41,0,0,0,6.34,5.13c4.93,3.08,10.07,5.49,15.92,5.82l-2.35,1.46a10.16,10.16,0,0,1-2.56,1.56c-.63.13-1.3-.32-1.86-.55-.92-.37-1.83-.73-2.73-1.14a52.14,52.14,0,0,1-9.42-5.07,40.59,40.59,0,0,1-7.76-7.11A16.26,16.26,0,0,1,384.8,475c-.6-1.5.78-2,1.74-2.7"/><line class="cls-2" x1="341.36" y1="490.8" x2="500.53" y2="490.8"/><path class="cls-1" d="M458,510.25a7.44,7.44,0,0,1,1-1.54c.39-.56.82-1.1,1.24-1.63a34.06,34.06,0,0,1,3.12-3.34,41,41,0,0,1,6.34-5.13c4.93-3.09,10.07-5.5,15.91-5.82l-2.34-1.47a9.84,9.84,0,0,0-2.56-1.55c-.63-.13-1.31.32-1.87.54-.91.38-1.82.73-2.73,1.14a52.77,52.77,0,0,0-9.42,5.07,41.53,41.53,0,0,0-7.76,7.11,16.82,16.82,0,0,0-2.68,3.92c-.59,1.5.78,2,1.74,2.7"/><rect class="cls-3" x="341.36" y="450.61" width="159.16" height="81.83"/><path class="cls-1" d="M314.59,502.83a14.15,14.15,0,0,0-.33,3,12.89,12.89,0,0,1-.65,3c-.31,1.06-.55,2.13-.94,3.17s-.69,1.84-1.06,2.77a37.81,37.81,0,0,1-6.49,10.89,35.57,35.57,0,0,1-7.53,6.75,34.07,34.07,0,0,1,1.3-12.39c1.31-3.89,2.07-8.12,4.56-11.48a11.17,11.17,0,0,1,2.33-2.47,22.86,22.86,0,0,1,2.71-1.66c1.91-1.07,4-1.18,6.1-1.61"/><path class="cls-1" d="M307.81,501.09c-.23.29-.91.43-1.24.65s-.87.46-1.28.76a17.5,17.5,0,0,0-2.29,2.1,17.71,17.71,0,0,0-3.39,5.08c-1.67,3.69-1.83,7.78-1.89,11.77a27.47,27.47,0,0,0,.64,5.93c.1.5.2,1,.29,1.48a2,2,0,0,1-.22,1.33c-.24.65-.48,1.3-.73,1.95s-.29.14-.53-.21a15.44,15.44,0,0,1-2.44-5.38c-.18-.93-.59-1.78-.78-2.71a23,23,0,0,1-.5-8.94,14,14,0,0,1,.61-3.08c.37-.94.8-1.91,1.12-2.87a12.47,12.47,0,0,1,3.55-5.07,11.84,11.84,0,0,1,5.39-2.57c.61-.12,1.24-.12,1.85-.25s1.2.19,1.84,0"/><path class="cls-1" d="M235.75,458.76a36.13,36.13,0,0,0-2.27-4.14c-.9-1.28-1.73-2.68-2.56-4A21.31,21.31,0,0,0,225,472.77a13.64,13.64,0,0,0,3.41,5.43,13.41,13.41,0,0,0,2.48,1.82,10.62,10.62,0,0,0,3.07,1.1,19.82,19.82,0,0,1-4-4.88,20.37,20.37,0,0,1-1.72-5.45,18.49,18.49,0,0,1-.09-6.12,30.22,30.22,0,0,1,.51-3.28c.26-1.05.58-2.09.81-3.16a1.88,1.88,0,0,1,.18-.48,27.75,27.75,0,0,0,0,5.24c.23,1.95.25,3.87.64,5.81s.55,3.88,1.46,5.61a15.34,15.34,0,0,0,3.39,4.36c.73.65,1.44,1.3,2.22,1.89a4.92,4.92,0,0,0,1.33.68c.44.18.81.54,1.3.55a7.88,7.88,0,0,0,.22-3,13,13,0,0,1,0-1.39c0-.48,0-1,0-1.45a40.46,40.46,0,0,0-.65-6A42.07,42.07,0,0,0,235.75,458.76Z"/><path class="cls-1" d="M227.38,472.26a7.25,7.25,0,0,0,1,1.54c.39.56.82,1.1,1.25,1.63a33.87,33.87,0,0,0,3.11,3.34,41,41,0,0,0,6.34,5.13c4.93,3.08,10.07,5.49,15.91,5.82l-2.34,1.46a10.16,10.16,0,0,1-2.56,1.56c-.63.13-1.3-.32-1.86-.55-.92-.37-1.83-.73-2.73-1.14a51.48,51.48,0,0,1-9.42-5.07,40.59,40.59,0,0,1-7.76-7.11,16.3,16.3,0,0,1-2.69-3.91c-.59-1.5.79-2,1.75-2.7"/><line class="cls-2" x1="182.2" y1="490.8" x2="341.36" y2="490.8"/><path class="cls-1" d="M298.83,510.25a6.71,6.71,0,0,1,1-1.54c.39-.56.82-1.1,1.24-1.63a32.88,32.88,0,0,1,3.12-3.34,40.94,40.94,0,0,1,6.33-5.13c4.94-3.09,10.08-5.5,15.92-5.82l-2.34-1.47a9.84,9.84,0,0,0-2.56-1.55c-.63-.13-1.31.32-1.87.54-.91.38-1.82.73-2.73,1.14a52.77,52.77,0,0,0-9.42,5.07,41.53,41.53,0,0,0-7.76,7.11,16.82,16.82,0,0,0-2.68,3.92c-.6,1.5.78,2,1.74,2.7"/><rect class="cls-3" x="182.2" y="450.61" width="159.16" height="81.83"/><path class="cls-1" d="M314.59,502.83a14.15,14.15,0,0,0-.33,3,12.89,12.89,0,0,1-.65,3c-.31,1.06-.55,2.13-.94,3.17s-.69,1.84-1.06,2.77a37.81,37.81,0,0,1-6.49,10.89,35.57,35.57,0,0,1-7.53,6.75,34.07,34.07,0,0,1,1.3-12.39c1.31-3.89,2.07-8.12,4.56-11.48a11.17,11.17,0,0,1,2.33-2.47,22.86,22.86,0,0,1,2.71-1.66c1.91-1.07,4-1.18,6.1-1.61"/><path class="cls-1" d="M307.81,501.09c-.23.29-.91.43-1.24.65s-.87.46-1.28.76a17.5,17.5,0,0,0-2.29,2.1,17.71,17.71,0,0,0-3.39,5.08c-1.67,3.69-1.83,7.78-1.89,11.77a27.47,27.47,0,0,0,.64,5.93c.1.5.2,1,.29,1.48a2,2,0,0,1-.22,1.33c-.24.65-.48,1.3-.73,1.95s-.29.14-.53-.21a15.44,15.44,0,0,1-2.44-5.38c-.18-.93-.59-1.78-.78-2.71a23,23,0,0,1-.5-8.94,14,14,0,0,1,.61-3.08c.37-.94.8-1.91,1.12-2.87a12.47,12.47,0,0,1,3.55-5.07,11.84,11.84,0,0,1,5.39-2.57c.61-.12,1.24-.12,1.85-.25s1.2.19,1.84,0"/><path class="cls-1" d="M235.75,458.76a36.13,36.13,0,0,0-2.27-4.14c-.9-1.28-1.73-2.68-2.56-4A21.31,21.31,0,0,0,225,472.77a13.64,13.64,0,0,0,3.41,5.43,13.41,13.41,0,0,0,2.48,1.82,10.62,10.62,0,0,0,3.07,1.1,19.82,19.82,0,0,1-4-4.88,20.37,20.37,0,0,1-1.72-5.45,18.49,18.49,0,0,1-.09-6.12,30.22,30.22,0,0,1,.51-3.28c.26-1.05.58-2.09.81-3.16a1.88,1.88,0,0,1,.18-.48,27.75,27.75,0,0,0,0,5.24c.23,1.95.25,3.87.64,5.81s.55,3.88,1.46,5.61a15.34,15.34,0,0,0,3.39,4.36c.73.65,1.44,1.3,2.22,1.89a4.92,4.92,0,0,0,1.33.68c.44.18.81.54,1.3.55a7.88,7.88,0,0,0,.22-3,13,13,0,0,1,0-1.39c0-.48,0-1,0-1.45a40.46,40.46,0,0,0-.65-6A42.07,42.07,0,0,0,235.75,458.76Z"/><path class="cls-1" d="M227.38,472.26a7.25,7.25,0,0,0,1,1.54c.39.56.82,1.1,1.25,1.63a33.87,33.87,0,0,0,3.11,3.34,41,41,0,0,0,6.34,5.13c4.93,3.08,10.07,5.49,15.91,5.82l-2.34,1.46a10.16,10.16,0,0,1-2.56,1.56c-.63.13-1.3-.32-1.86-.55-.92-.37-1.83-.73-2.73-1.14a51.48,51.48,0,0,1-9.42-5.07,40.59,40.59,0,0,1-7.76-7.11,16.3,16.3,0,0,1-2.69-3.91c-.59-1.5.79-2,1.75-2.7"/><line class="cls-2" x1="182.2" y1="490.8" x2="341.36" y2="490.8"/><path class="cls-1" d="M298.83,510.25a6.71,6.71,0,0,1,1-1.54c.39-.56.82-1.1,1.24-1.63a32.88,32.88,0,0,1,3.12-3.34,40.94,40.94,0,0,1,6.33-5.13c4.94-3.09,10.08-5.5,15.92-5.82l-2.34-1.47a9.84,9.84,0,0,0-2.56-1.55c-.63-.13-1.31.32-1.87.54-.91.38-1.82.73-2.73,1.14a52.77,52.77,0,0,0-9.42,5.07,41.53,41.53,0,0,0-7.76,7.11,16.82,16.82,0,0,0-2.68,3.92c-.6,1.5.78,2,1.74,2.7"/><rect class="cls-3" x="182.2" y="450.61" width="159.16" height="81.83"/><path class="cls-1" d="M155.43,502.83a13.55,13.55,0,0,0-.33,3,12.89,12.89,0,0,1-.65,3c-.31,1.06-.55,2.13-.94,3.17s-.69,1.84-1.06,2.77A37.81,37.81,0,0,1,146,525.69a35.81,35.81,0,0,1-7.53,6.75,34.07,34.07,0,0,1,1.3-12.39c1.31-3.89,2.07-8.12,4.56-11.48a11.17,11.17,0,0,1,2.33-2.47,22.86,22.86,0,0,1,2.71-1.66c1.91-1.07,4-1.18,6.1-1.61"/><path class="cls-1" d="M148.65,501.09c-.23.29-.91.43-1.25.65s-.86.46-1.27.76a17.5,17.5,0,0,0-2.29,2.1,17.71,17.71,0,0,0-3.39,5.08c-1.67,3.69-1.83,7.78-1.89,11.77a28.11,28.11,0,0,0,.63,5.93l.3,1.48a2.09,2.09,0,0,1-.22,1.33c-.25.65-.49,1.3-.73,1.95s-.29.14-.54-.21a15.6,15.6,0,0,1-2.43-5.38c-.19-.93-.59-1.78-.78-2.71a24.11,24.11,0,0,1-.55-2.89,26,26,0,0,1,0-6.05,14,14,0,0,1,.61-3.08c.37-.94.8-1.91,1.12-2.87a12.37,12.37,0,0,1,3.55-5.07,11.84,11.84,0,0,1,5.39-2.57c.61-.12,1.23-.12,1.85-.25s1.2.19,1.84,0"/><path class="cls-1" d="M76.59,458.76a37.73,37.73,0,0,0-2.27-4.14c-.9-1.28-1.73-2.68-2.56-4a21.34,21.34,0,0,0-6,22.16A12.79,12.79,0,0,0,71.69,480a10.79,10.79,0,0,0,3.08,1.1,19.6,19.6,0,0,1-4-4.88,20.37,20.37,0,0,1-1.72-5.45,18.49,18.49,0,0,1-.09-6.12,30.22,30.22,0,0,1,.51-3.28c.26-1.05.58-2.09.81-3.16a1.88,1.88,0,0,1,.18-.48,26.18,26.18,0,0,0,0,5.24c.23,1.95.25,3.87.64,5.81s.55,3.88,1.46,5.61A15.49,15.49,0,0,0,76,478.77c.74.65,1.45,1.3,2.23,1.89a4.92,4.92,0,0,0,1.33.68c.44.18.81.54,1.3.55a8.08,8.08,0,0,0,.22-3,10.83,10.83,0,0,1,0-1.39c0-.48,0-1,0-1.45a40.46,40.46,0,0,0-.65-6A42.42,42.42,0,0,0,76.59,458.76Z"/><path class="cls-1" d="M68.21,472.26a7.71,7.71,0,0,0,1,1.54c.39.56.82,1.1,1.24,1.63a34,34,0,0,0,3.12,3.34,41.42,41.42,0,0,0,6.33,5.13c4.94,3.08,10.08,5.49,15.92,5.82l-2.34,1.46a10.16,10.16,0,0,1-2.56,1.56c-.63.13-1.31-.32-1.87-.55-.91-.37-1.82-.73-2.73-1.14A52.14,52.14,0,0,1,76.91,486a41.2,41.2,0,0,1-7.76-7.11A16.56,16.56,0,0,1,66.47,475c-.6-1.5.78-2,1.74-2.7"/><line class="cls-2" x1="23.04" y1="490.8" x2="182.2" y2="490.8"/><path class="cls-1" d="M139.67,510.25a7,7,0,0,1,1-1.54c.39-.56.82-1.1,1.25-1.63a32.88,32.88,0,0,1,3.12-3.34,40.47,40.47,0,0,1,6.33-5.13c4.94-3.09,10.07-5.5,15.92-5.82L165,491.32a9.89,9.89,0,0,0-2.57-1.55c-.63-.13-1.3.32-1.86.54-.91.38-1.83.73-2.73,1.14a52.77,52.77,0,0,0-9.42,5.07,41.53,41.53,0,0,0-7.76,7.11,16.82,16.82,0,0,0-2.68,3.92c-.6,1.5.78,2,1.74,2.7"/><rect class="cls-3" x="23.04" y="450.61" width="159.16" height="81.83"/></svg>