<svg id="圖層_1" data-name="圖層 1" xmlns="http://www.w3.org/2000/svg" xmlns:xlink="http://www.w3.org/1999/xlink" viewBox="0 0 80 80"><defs><style>.cls-1{fill:url(#linear-gradient);}.cls-2{fill:url(#linear-gradient-2);}.cls-3{fill:url(#linear-gradient-3);}.cls-4{fill:url(#linear-gradient-4);}</style><linearGradient id="linear-gradient" x1="42.94" y1="34.9" x2="80" y2="34.9" gradientUnits="userSpaceOnUse"><stop offset="0.04" stop-color="#a3cd3d"/><stop offset="0.39" stop-color="#92c23e"/><stop offset="0.71" stop-color="#7a9a2e"/><stop offset="1" stop-color="#52671f"/></linearGradient><linearGradient id="linear-gradient-2" x1="0" y1="33.72" x2="31.83" y2="33.72" xlink:href="#linear-gradient"/><linearGradient id="linear-gradient-3" x1="21.7" y1="23.62" x2="41.97" y2="23.62" xlink:href="#linear-gradient"/><linearGradient id="linear-gradient-4" x1="17.72" y1="57.07" x2="68.15" y2="57.07" gradientUnits="userSpaceOnUse"><stop offset="0" stop-color="#9d523f"/><stop offset="0.19" stop-color="#934836"/><stop offset="0.5" stop-color="#792e1d"/><stop offset="0.54" stop-color="#752a19"/><stop offset="1" stop-color="#632b23"/></linearGradient></defs><title>清單圖示01</title><path class="cls-1" d="M56.46,24.91c-7.36,2-8.62,8.09-9,10.37,10.86-7.51,23-3.72,23-3.72s-19,1.27-27.4,11.87c-.66.84,1.31,2.69,2.13,1.72,3.41-1,8.23-2.75,8.23-2.75,2.9,2.07,5.2,2.91,9.9,1.2C69.57,41.32,71.25,33,79.82,31,81.82,30.58,66.44,22.24,56.46,24.91Z"/><path class="cls-2" d="M18.82,25.38c6.26,1.07,7.9,6.16,8.44,8.06C17.58,28,7.92,32.15,7.92,32.15S23.75,31.68,31.68,40c.63.66-.81,2.39-1.59,1.63-2.9-.55-7-1.67-7-1.67-2.19,2-4,2.89-8,1.82C9.62,40.36,7.42,33.43.16,32.46-1.53,32.23,10.33,23.92,18.82,25.38Z"/><path class="cls-3" d="M40,17.75c3.69,5.17,1.28,9.93.32,11.67-3-10.72-12.83-14.53-12.83-14.53s11.57,10.8,11.35,22.29c0,.91-2.26,1.13-2.28,0-1.67-2.43-3.83-6.15-3.83-6.15-3-.13-4.88-.76-7-4.37-2.81-4.79.5-11.26-4-17.06C20.71,8.29,35,10.73,40,17.75Z"/><path class="cls-4" d="M68.15,43.43H17.72A25.21,25.21,0,0,0,34.48,67.16v3.56H51.39V67.16A25.19,25.19,0,0,0,68.15,43.43Z"/></svg>