<svg id="圖層_1" data-name="圖層 1" xmlns="http://www.w3.org/2000/svg" xmlns:xlink="http://www.w3.org/1999/xlink" viewBox="0 0 80 80"><defs><style>.cls-1{fill:url(#linear-gradient);}.cls-2{fill:#88a14b;}.cls-3{fill:#b5d764;}</style><linearGradient id="linear-gradient" x1="1961.14" y1="-1893.9" x2="2002.12" y2="-1893.9" gradientTransform="translate(2600.78 1043.77) rotate(-114.83)" gradientUnits="userSpaceOnUse"><stop offset="0" stop-color="#9d523f"/><stop offset="0.19" stop-color="#934836"/><stop offset="0.5" stop-color="#792e1d"/><stop offset="0.54" stop-color="#752a19"/><stop offset="1" stop-color="#632b23"/></linearGradient></defs><title>清單圖示01</title><path class="cls-1" d="M24,55.07a19.74,19.74,0,0,0-4.35,14.76A5.15,5.15,0,0,0,20,71.32a2.29,2.29,0,0,0,.3.58l.06.11a2.16,2.16,0,0,0,.51.49,1.46,1.46,0,0,0,.19.16,4.24,4.24,0,0,0,2.32.56,19.74,19.74,0,0,0,14.19-5.94c7.17-7.37,6.33-14.32,5.77-16.63L75.82,18.5l2-1.87a7.41,7.41,0,0,0,1.62-2.28c.09-.18.14-.36.21-.54s.13-.34.18-.51a5.07,5.07,0,0,0-1.34-5.22v0h0L78.33,8a4.91,4.91,0,0,0-.55-.38l-.35-.23A2.47,2.47,0,0,0,77,7.18a4.06,4.06,0,0,0-.66-.25l-.25,0a4.23,4.23,0,0,0-.87-.11H75a6.69,6.69,0,0,0-.88.08L73.64,7c-.2.06-.41.1-.61.18a6.82,6.82,0,0,0-1,.48l0,0a7.45,7.45,0,0,0-2.11,1.88l-1.58,2.07L39.87,47.5C37.51,47.2,30.51,47.13,24,55.07Zm14.91,3.81c-2.4,9-9.74,10-9.82,10a.42.42,0,0,1-.16,0,.48.48,0,0,1-.38-.42.49.49,0,0,1,.43-.55c.27,0,6.75-.89,9-9.24a.49.49,0,0,1,1,.25Z"/><path class="cls-2" d="M15.33,61.07c5.82,4.66,11.36,2.11,13.39,1.09-12.21-4.2-16.27-16-16.27-16s12,14.29,25.24,14.73c1,0,1.36-2.58.11-2.67-2.74-2.12-6.93-4.9-6.93-4.9-.05-3.48-.72-5.78-4.79-8.49-5.41-3.61-12.95-.11-19.46-5.73C5.1,37.79,7.43,54.75,15.33,61.07Z"/><path class="cls-3" d="M19.11,70.43c7.4.95,10.81-4.11,12-6C18.5,67.16,8.9,59.21,8.9,59.21s17.71,5.93,29.21-.57c.91-.51-.19-2.92-1.3-2.34-3.44-.39-8.47-.57-8.47-.57-1.85-2.95-3.62-4.56-8.51-4.76-6.5-.26-11.11,6.66-19.59,5.25C-1.74,55.89,9.08,69.15,19.11,70.43Z"/></svg>