<svg id="圖層_1" data-name="圖層 1" xmlns="http://www.w3.org/2000/svg" xmlns:xlink="http://www.w3.org/1999/xlink" viewBox="0 0 80 80"><defs><style>.cls-1{fill:none;stroke-miterlimit:10;stroke-width:8px;stroke:url(#linear-gradient);}.cls-2{fill:#88a14b;}</style><linearGradient id="linear-gradient" x1="1" y1="46.95" x2="67.48" y2="46.95" gradientUnits="userSpaceOnUse"><stop offset="0" stop-color="#e56620"/><stop offset="0.54" stop-color="#f5881f"/><stop offset="0.82" stop-color="#fbb144"/><stop offset="1" stop-color="#fab04f"/></linearGradient></defs><title>清單圖示01</title><path class="cls-1" d="M63.48,31.13H5A29.22,29.22,0,0,0,24.43,58.64v4.13H44V58.64A29.21,29.21,0,0,0,63.48,31.13Z"/><path class="cls-2" d="M60.12,29.14l-1.54-2L36.56,44,20.4,44s4.53,4.87,10.11,4.86c4.64,0,8.52-3.36,9.7-4.49Z"/><path class="cls-2" d="M64.84,17.55a7.21,7.21,0,0,0-5.42,6.24,17.22,17.22,0,0,1,13.85-2.24s-11.46.76-16.49,7.14c-.39.51.79,1.62,1.29,1,2-.58,5-1.65,5-1.65,1.74,1.24,3.12,1.75,5.95.72,3.76-1.37,4.77-6.38,9.92-7.56C80.1,21,70.84,15.94,64.84,17.55Z"/></svg>