<svg id="圖層_1" data-name="圖層 1" xmlns="http://www.w3.org/2000/svg" xmlns:xlink="http://www.w3.org/1999/xlink" viewBox="0 0 80 80"><defs><style>.cls-1{fill:#b5d764;}.cls-2{fill:url(#linear-gradient);}.cls-3{fill:#52671f;}</style><linearGradient id="linear-gradient" x1="41.03" y1="59.61" x2="67.63" y2="59.61" gradientUnits="userSpaceOnUse"><stop offset="0" stop-color="#92c23e"/><stop offset="0.43" stop-color="#7a9a2e"/><stop offset="1" stop-color="#52671f"/></linearGradient></defs><title>清單圖示01</title><path class="cls-1" d="M62.06,36.06a8.26,8.26,0,0,0-3.44,8.82c5.3-7.39,14.07-7.75,14.07-7.75s-12.06,5.24-15,14c-.24.7,1.47,1.44,1.78.62,2-1.42,4.7-3.69,4.7-3.69,2.36.67,4,.68,6.7-1.52,3.52-2.92,2.68-8.71,7.78-12C79.82,33.86,67.91,32,62.06,36.06Z"/><path class="cls-1" d="M33.19,61.93c5.87-2.51,8.81.62,9.85,1.85-10.19.86-17.52,9.38-17.52,9.38s13.89-8.88,23.36-6.57c.75.18,0,2.33-.94,2.14-2.73,1.13-6.73,2.48-6.73,2.48-1.36,2.75-2.7,4.43-6.6,5.76-5.18,1.76-9.16-2.54-15.88.6C17.17,78.3,25.24,65.34,33.19,61.93Z"/><path class="cls-2" d="M60.67,72.68c.85.84,3.32-.27,4.17-1.11l1.38-1.39c.84-.84,2-3.31,1.11-4.16L46.48,46.23,41,52Z"/><path class="cls-3" d="M26.1,26.89c2.71-4.71,1.28-10.43-3-14.7-5.05-5-15.95-10-21-4.94s-.11,16,4.94,21c4.19,4.19,9.77,5.66,14.44,3.15L31.37,41.8l5.22-4.95Z"/><path class="cls-3" d="M51.79,26.75,10.4,66c-.84.85.27,3.32,1.11,4.16l1.39,1.39A5.66,5.66,0,0,0,16.16,73a1.24,1.24,0,0,0,.9-.3L56.48,31.14a9.57,9.57,0,0,0,3.42,1C63.4,32.41,67,30.88,70,28,79.91,18,81.7,15.82,78.65,12L66.92,23.24a1.48,1.48,0,0,1-1,.42A1.23,1.23,0,0,1,65,23.3L64.73,23a1.22,1.22,0,0,1-.35-.87,1.45,1.45,0,0,1,.43-1L75.46,8.61l-.76-.76c-.46-.45-.88-.88-1.29-1.29L60.87,17.26a1.42,1.42,0,0,1-1,.39A1.22,1.22,0,0,1,59,17.3L58.72,17a1.22,1.22,0,0,1-.35-.87,1.45,1.45,0,0,1,.43-1L70,3.43C66.38.8,64.19,3,54.6,12.58c-3.19,3.18-4.72,7.22-4,11A10,10,0,0,0,51.79,26.75Z"/></svg>