<svg id="圖層_1" data-name="圖層 1" xmlns="http://www.w3.org/2000/svg" xmlns:xlink="http://www.w3.org/1999/xlink" viewBox="0 0 80 80"><defs><style>.cls-1{fill:url(#linear-gradient);}.cls-2{fill:url(#linear-gradient-2);}.cls-3{fill:url(#linear-gradient-3);}.cls-4{fill:url(#linear-gradient-4);}.cls-5{fill:url(#linear-gradient-5);}.cls-6{fill:url(#linear-gradient-6);}.cls-7{fill:url(#linear-gradient-7);}.cls-8{fill:url(#linear-gradient-8);}.cls-9{fill:url(#linear-gradient-9);}.cls-10{fill:url(#linear-gradient-10);}.cls-11{fill:url(#linear-gradient-11);}.cls-12{fill:url(#linear-gradient-12);}.cls-13{fill:url(#linear-gradient-13);}.cls-14{fill:url(#linear-gradient-14);}.cls-15{fill:url(#linear-gradient-15);}.cls-16{fill:url(#linear-gradient-16);}</style><linearGradient id="linear-gradient" x1="22.08" y1="25.48" x2="61.28" y2="25.48" gradientUnits="userSpaceOnUse"><stop offset="0.04" stop-color="#9cc341"/><stop offset="0.39" stop-color="#8cb941"/><stop offset="0.71" stop-color="#769330"/><stop offset="1" stop-color="#51652f"/></linearGradient><linearGradient id="linear-gradient-2" x1="12.84" y1="13.76" x2="26.78" y2="13.76" xlink:href="#linear-gradient"/><linearGradient id="linear-gradient-3" x1="10.54" y1="22.38" x2="21.14" y2="22.38" xlink:href="#linear-gradient"/><linearGradient id="linear-gradient-4" x1="60.52" y1="20.78" x2="69.46" y2="20.78" xlink:href="#linear-gradient"/><linearGradient id="linear-gradient-5" x1="54.16" y1="13.76" x2="60.16" y2="13.76" xlink:href="#linear-gradient"/><linearGradient id="linear-gradient-6" x1="46.52" y1="13.83" x2="50.89" y2="13.83" xlink:href="#linear-gradient"/><linearGradient id="linear-gradient-7" x1="51.2" y1="20.44" x2="57.86" y2="20.44" xlink:href="#linear-gradient"/><linearGradient id="linear-gradient-8" x1="57.25" y1="28.28" x2="63.66" y2="28.28" xlink:href="#linear-gradient"/><linearGradient id="linear-gradient-9" x1="46.79" y1="24" x2="51.38" y2="24" xlink:href="#linear-gradient"/><linearGradient id="linear-gradient-10" x1="29.49" y1="14.67" x2="33.69" y2="14.67" xlink:href="#linear-gradient"/><linearGradient id="linear-gradient-11" x1="34.43" y1="19.19" x2="37.32" y2="19.19" xlink:href="#linear-gradient"/><linearGradient id="linear-gradient-12" x1="51.91" y1="30.36" x2="56.33" y2="30.36" xlink:href="#linear-gradient"/><linearGradient id="linear-gradient-13" x1="42.64" y1="19.1" x2="45.4" y2="19.1" xlink:href="#linear-gradient"/><linearGradient id="linear-gradient-14" x1="23.7" y1="20.44" x2="29.86" y2="20.44" xlink:href="#linear-gradient"/><linearGradient id="linear-gradient-15" x1="19.99" y1="28.1" x2="25.77" y2="28.1" xlink:href="#linear-gradient"/><linearGradient id="linear-gradient-16" x1="35.29" y1="63.27" x2="44.58" y2="63.27" gradientUnits="userSpaceOnUse"><stop offset="0" stop-color="#98503e"/><stop offset="0.19" stop-color="#8e4635"/><stop offset="0.51" stop-color="#752c1d"/><stop offset="0.54" stop-color="#72291b"/><stop offset="1" stop-color="#612a22"/></linearGradient></defs><title>清單圖示01</title><path class="cls-1" d="M41.64,49.94a23.17,23.17,0,0,1,3.08-13.67c.48-.71,1-1.42,1.58-2.14s1.18-1.42,1.79-2.13,1.3-1.34,1.93-2,1.38-1.23,2.1-1.76,1.42-1.07,2.17-1.47,1.41-.83,2.1-1.13,1.34-.56,1.92-.81a16,16,0,0,1,1.57-.47c.88-.25,1.4-.42,1.4-.42s-.53,0-1.49.09c-.47,0-1.07.06-1.72.18s-1.38.31-2.18.52a23.86,23.86,0,0,0-2.44.95,22.54,22.54,0,0,0-2.52,1.39c-.82.54-1.6,1.16-2.39,1.79s-1.49,1.36-2.13,2.1a26.87,26.87,0,0,0-3.32,4.6,23.23,23.23,0,0,0-1.17,2.25c-.11.22-.16.4-.25.61.29-1.94.66-4,1.13-6a42,42,0,0,1,2.1-6.68,31.77,31.77,0,0,1,1.45-2.92,20.3,20.3,0,0,1,1.73-2.42,15.75,15.75,0,0,1,1.85-1.82,11.56,11.56,0,0,1,1.75-1.15c.51-.3,1-.45,1.27-.6l.46-.19-.5.11a7.26,7.26,0,0,0-1.42.39,11.59,11.59,0,0,0-2.06.94,13.3,13.3,0,0,0-2.29,1.69A16.45,16.45,0,0,0,45,22.21a21.08,21.08,0,0,0-1.8,3,26.89,26.89,0,0,0-1.41,3.35c-.16.47-.27,1-.41,1.42v-.82c0-5.25-.15-10.5-.4-14.44-.11-1.87-.28-3.43-.37-4.57a1.64,1.64,0,0,0,.28-.16,5.66,5.66,0,0,0,.69-.47,5.14,5.14,0,0,0,.7-.64,4.69,4.69,0,0,0,1.06-1.74A4.09,4.09,0,0,0,43.46,5a4.78,4.78,0,0,0-.35-1.09,5.93,5.93,0,0,0-.64-1,6.47,6.47,0,0,0-.89-.85,7,7,0,0,0-1.06-.63,6.83,6.83,0,0,0-1.09-.35A4.58,4.58,0,0,0,38.49,1a4.86,4.86,0,0,0-.63,0l-.22,0,0,.21c0,.11-.09.31-.12.49s-.11.41-.19.65-.16.44-.25.7-.18.47-.25.69a4.25,4.25,0,0,0-.18.7,3.42,3.42,0,0,0-.08.7,4.27,4.27,0,0,0,.07.71,4.46,4.46,0,0,0,.58,1.46,7.51,7.51,0,0,0,1.09,1.41c.2.21.43.42.63.61s.44.35.61.5.21.16.3.23c.27-2,.59-5.13-.08-6.05,0,0,1.47,1.68.85,5.85-.11-1.13-.19-1.77-.19-1.77s-.1.65-.21,1.8-.29,2.79-.41,4.76c-.28,3.94-.47,9.18-.49,14.44,0,.79,0,1.58,0,2.36-.26-1-.52-2-.86-3A27,27,0,0,0,37,25.2a22.56,22.56,0,0,0-1.8-3,17,17,0,0,0-2.15-2.42,13.21,13.21,0,0,0-2.3-1.69,11.92,11.92,0,0,0-2.06-.94,7.08,7.08,0,0,0-1.42-.39l-.5-.12.46.2a11.75,11.75,0,0,1,1.27.6,11.3,11.3,0,0,1,1.75,1.15,15.62,15.62,0,0,1,1.85,1.81,20.09,20.09,0,0,1,1.72,2.43.2.2,0,0,1,0,.08h-.06a4.47,4.47,0,0,0-.75.06,2.48,2.48,0,0,0-.65.21,1.73,1.73,0,0,0-.27.15,1.3,1.3,0,0,0-.23.18,1.34,1.34,0,0,0-.2.21l-.19.22-.18.23-.18.2-.15.14-.06.06,0,.06a1.29,1.29,0,0,0,.13.17,1.47,1.47,0,0,0,.26.2,1.93,1.93,0,0,0,.38.18,2,2,0,0,0,.47.11,2.83,2.83,0,0,0,.51,0,4.33,4.33,0,0,0,.5-.08,2.32,2.32,0,0,0,.46-.18,2.11,2.11,0,0,0,.72-.53c.06-.08.08-.17.13-.25.25.49.51.95.73,1.47a41.13,41.13,0,0,1,2.11,6.69c.29,1.24.54,2.49.76,3.72a23.17,23.17,0,0,0-2.32-4.26c-.53-.77-1.22-1.47-1.8-2.19a28.3,28.3,0,0,0-2.15-1.86,16.66,16.66,0,0,0-2.34-1.45,15.24,15.24,0,0,0-2.31-1c-.76-.23-1.46-.4-2.08-.55s-1.2-.13-1.65-.18c-.91-.09-1.42-.11-1.42-.11s.49.18,1.33.43c.42.14.94.26,1.49.48s1.14.54,1.79.82a21.48,21.48,0,0,1,1.95,1.15A20,20,0,0,1,30.59,29c.66.53,1.18,1.21,1.83,1.79s1.13,1.33,1.61,2.05A20.92,20.92,0,0,1,35.43,35c.44.73.85,1.46,1.2,2.19.74,1.44.68,2.83,1.18,4,.25.66.06,1.25.26,1.78.1.87.19,1.71.27,2.49.17,1.78.34,3.46.4,4.51M32.5,24.38a4.73,4.73,0,0,0,1.62-1l.11.21A3.63,3.63,0,0,1,32.5,24.38Z"/><path class="cls-2" d="M13.35,13.93a7.33,7.33,0,0,0,.9,1.37,7.89,7.89,0,0,0,1.26,1.18,9.26,9.26,0,0,0,1.52.91,9.42,9.42,0,0,0,3.38.89A10.26,10.26,0,0,0,23.64,18,10.7,10.7,0,0,0,25,17.56c.4-.16.77-.36,1.06-.51a3.74,3.74,0,0,0,.46-.27c-7.16-1.35-9.13-3.86-9.13-3.86,1.12,1.17,6.22,2.38,9.4,3a2.81,2.81,0,0,0-.21-.43c-.14-.26-.29-.59-.49-.9s-.4-.65-.63-1A11.61,11.61,0,0,0,23.8,11.8a9.09,9.09,0,0,0-2-1.34c-.38-.15-.7-.31-1.08-.42a6.89,6.89,0,0,0-1.13-.26,8.3,8.3,0,0,0-1.18-.14c-.37,0-.78-.07-1.21-.08L16,9.48c-.42,0-.78-.06-1.11-.11l-.83-.11-.34,0a2.43,2.43,0,0,0-.17.23,3.19,3.19,0,0,0-.36.66,3.5,3.5,0,0,0-.32,1.05,5.52,5.52,0,0,0,0,1.34A7,7,0,0,0,13.35,13.93Z"/><path class="cls-3" d="M20.77,24a2.32,2.32,0,0,0,.28-.24c-5.29-.29-7-1.9-7-1.9,1,.73,4.76,1.12,7.13,1.29-.06-.09-.13-.19-.21-.29s-.29-.39-.47-.6-.38-.43-.59-.64a9.42,9.42,0,0,0-1.43-1.16,7,7,0,0,0-1.61-.77,8.34,8.34,0,0,0-.83-.2,5.7,5.7,0,0,0-.84-.08,6.24,6.24,0,0,0-.86,0l-.88.06-.87.06c-.3,0-.56,0-.8,0s-.47,0-.61,0h-.25a1.16,1.16,0,0,0-.09.18,2.84,2.84,0,0,0-.17.5,2.71,2.71,0,0,0-.08.78,3.9,3.9,0,0,0,.19,1,5,5,0,0,0,.53,1,6.19,6.19,0,0,0,.82.9,6.25,6.25,0,0,0,1.07.72,6.46,6.46,0,0,0,1.21.51,7.34,7.34,0,0,0,2.53.32,6.94,6.94,0,0,0,2.27-.51,6.41,6.41,0,0,0,.91-.44C20.34,24.28,20.58,24.1,20.77,24Z"/><path class="cls-4" d="M69.42,19.09a3.77,3.77,0,0,0-.29-.93,2.52,2.52,0,0,0-.46-.69,2.48,2.48,0,0,0-.4-.4l-.17-.14-.22.09c-.13.06-.35.13-.56.21l-.74.25-.83.24-.83.24a7.25,7.25,0,0,0-.79.29,4.5,4.5,0,0,0-.73.36,4.79,4.79,0,0,0-.65.46,5.42,5.42,0,0,0-1.09,1.24,6.52,6.52,0,0,0-.73,1.56,6.21,6.21,0,0,0-.23.78c-.06.25-.1.5-.13.7a2.33,2.33,0,0,0,0,.34c2.07-1,5.35-2.6,5.87-3.59,0,0-.8,2.06-5.49,4.12l.37.11a7,7,0,0,0,.86.19,6.79,6.79,0,0,0,1,.1,7.34,7.34,0,0,0,2.33-.31,6.49,6.49,0,0,0,2.15-1.15,5.89,5.89,0,0,0,.86-.87,5.1,5.1,0,0,0,.61-1,4.81,4.81,0,0,0,.31-1.1A4.83,4.83,0,0,0,69.42,19.09Z"/><path class="cls-5" d="M58.06,13.28s-.48,1.43-3.62,3l.26.07c.17,0,.38.08.6.11a5.39,5.39,0,0,0,.72,0,5.19,5.19,0,0,0,1.58-.27A4.26,4.26,0,0,0,59,15.35a3.59,3.59,0,0,0,.55-.62A3.16,3.16,0,0,0,60,14a3.49,3.49,0,0,0,.18-.76,3.54,3.54,0,0,0,0-.74,2.75,2.75,0,0,0-.23-.63,2.11,2.11,0,0,0-.34-.46,3.09,3.09,0,0,0-.29-.27l-.13-.09-.15.07-.37.16-.51.19-.55.18c-.2.06-.39.12-.56.19a4.47,4.47,0,0,0-1,.48,2.73,2.73,0,0,0-.43.33,3.61,3.61,0,0,0-.71.88,4.7,4.7,0,0,0-.44,1.09,3.84,3.84,0,0,0-.13.54c0,.17,0,.35-.07.48a2.32,2.32,0,0,0,0,.24C55.55,15.18,57.74,14,58.06,13.28Z"/><path class="cls-6" d="M46.81,14.65a3.06,3.06,0,0,0,.86,1,3.91,3.91,0,0,0,1.18.61,5.26,5.26,0,0,0,.6.15l.52.06a1.91,1.91,0,0,0,.24,0c-2-2-1.86-3.28-1.86-3.28,0,.63,1.35,2.15,2.21,3.07a1.07,1.07,0,0,0,.07-.19c0-.12.08-.27.12-.41s.07-.31.09-.47a3.66,3.66,0,0,0,0-1,2.51,2.51,0,0,0-.26-.88,2.26,2.26,0,0,0-.52-.72,3.81,3.81,0,0,0-.36-.3,4.18,4.18,0,0,0-.38-.29L49,11.75a4,4,0,0,1-.34-.27c-.09-.09-.2-.17-.25-.23a.49.49,0,0,1-.1-.09l-.13,0c-.07,0-.21.08-.33.15a1.85,1.85,0,0,0-.44.29,2.62,2.62,0,0,0-.42.45,3,3,0,0,0-.3.59,2.76,2.76,0,0,0-.13.66,2.53,2.53,0,0,0,0,.67A3.77,3.77,0,0,0,46.81,14.65Z"/><path class="cls-7" d="M52.09,19l-.47.16-.22.09c1.22.56,3.24,1.42,4,1.33,0,0-1.49.31-4.2-1a.67.67,0,0,0,0,.19,2.4,2.4,0,0,0,.15.42,3.79,3.79,0,0,0,.26.47,3.31,3.31,0,0,0,.91.87,3.82,3.82,0,0,0,1.37.54,4.16,4.16,0,0,0,.79.09,4.36,4.36,0,0,0,.81-.06,4.22,4.22,0,0,0,.76-.21,5,5,0,0,0,.66-.34,2.82,2.82,0,0,0,.47-.41,1.83,1.83,0,0,0,.28-.4c.06-.12.09-.23.12-.3l0-.11-.13-.07-.3-.16c-.11-.07-.24-.14-.38-.24l-.4-.27-.41-.27a2.91,2.91,0,0,0-.41-.24,2.53,2.53,0,0,0-.45-.19,3.36,3.36,0,0,0-.48-.13,4.37,4.37,0,0,0-1.1-.07,5.82,5.82,0,0,0-1.16.18A4,4,0,0,0,52.09,19Z"/><path class="cls-8" d="M63.29,28.4a2.74,2.74,0,0,1-.33-.29l-.34-.32-.34-.33-.36-.3a3.34,3.34,0,0,0-.4-.25,4,4,0,0,0-.46-.2A4.14,4.14,0,0,0,60,26.49a6.64,6.64,0,0,0-1.18,0l-.57.07-.49.1-.24.05c1.09.73,2.9,1.87,3.66,1.89,0,0-1.53.08-3.93-1.61a1.41,1.41,0,0,0,0,.2,2.45,2.45,0,0,0,.06.43,3.6,3.6,0,0,0,.16.5,3.13,3.13,0,0,0,.72,1,3.51,3.51,0,0,0,1.24.73,3.69,3.69,0,0,0,.76.2,4.42,4.42,0,0,0,.81.06,5.14,5.14,0,0,0,.8-.1,4.1,4.1,0,0,0,.7-.24,2.68,2.68,0,0,0,.56-.34,1.75,1.75,0,0,0,.36-.36,1.59,1.59,0,0,0,.17-.27l.06-.1-.11-.09C63.48,28.56,63.39,28.47,63.29,28.4Z"/><path class="cls-9" d="M46.79,23.42l0,.13a2.75,2.75,0,0,0,.11.29,3.58,3.58,0,0,0,.18.32,2.14,2.14,0,0,0,.63.6,2.48,2.48,0,0,0,.94.38,3.31,3.31,0,0,0,.55.06,3.43,3.43,0,0,0,.56,0,4.1,4.1,0,0,0,.53-.15,2.56,2.56,0,0,0,.44-.23,1.66,1.66,0,0,0,.34-.29,1.1,1.1,0,0,0,.18-.28.83.83,0,0,0,.09-.2.32.32,0,0,0,0-.07l-.08-.05s-.13-.08-.21-.11l-.26-.17-.28-.18-.27-.19a3.09,3.09,0,0,0-.29-.17l-.31-.13a3.37,3.37,0,0,0-.34-.09,3,3,0,0,0-.75,0,3.78,3.78,0,0,0-.81.12,3.29,3.29,0,0,0-.37.1l-.33.11-.15.06a8.69,8.69,0,0,0,2.76.92A5.06,5.06,0,0,1,46.79,23.42Z"/><path class="cls-10" d="M29.89,16.7c.06.14.14.28.19.39a1.42,1.42,0,0,0,.11.18c.68-1,1.72-2.69,1.61-3.32,0,0,.36,1.24-1.23,3.49l.23,0a3.83,3.83,0,0,0,.51-.13,3.52,3.52,0,0,0,.56-.21,3.71,3.71,0,0,0,1.05-.76,2.7,2.7,0,0,0,.66-1.13,2.94,2.94,0,0,0,.11-.66,2.58,2.58,0,0,0-.08-.68,3.18,3.18,0,0,0-.25-.63,3.2,3.2,0,0,0-.41-.54,2.87,2.87,0,0,0-.49-.4A3.06,3.06,0,0,0,32,12c-.13,0-.28-.07-.36-.1l-.13,0-.08.1c0,.06-.13.16-.2.25a2.71,2.71,0,0,1-.29.32l-.32.34q-.18.16-.33.33a3,3,0,0,0-.29.35,2.06,2.06,0,0,0-.23.37,1.74,1.74,0,0,0-.15.4,2.46,2.46,0,0,0-.09.91,3.48,3.48,0,0,0,.22,1A3.47,3.47,0,0,0,29.89,16.7Z"/><path class="cls-11" d="M34.7,20.58l.14.27a.54.54,0,0,0,.07.13A5.82,5.82,0,0,0,36,18.69s.25.85-.84,2.4l.16,0a3.21,3.21,0,0,0,.34-.08,3.12,3.12,0,0,0,.39-.15,2.64,2.64,0,0,0,.73-.52,1.94,1.94,0,0,0,.45-.79,1.69,1.69,0,0,0,.07-.45,1.83,1.83,0,0,0,0-.47,2,2,0,0,0-.17-.43,3.13,3.13,0,0,0-.28-.38,3.69,3.69,0,0,0-.35-.27,2,2,0,0,0-.33-.16l-.25-.07H35.8l-.06.07s-.09.11-.13.17l-.2.22-.22.23L35,18.2l-.2.24a1.83,1.83,0,0,0-.16.26,1.33,1.33,0,0,0-.1.28,1.58,1.58,0,0,0-.06.62,2.67,2.67,0,0,0,.14.67A2.23,2.23,0,0,0,34.7,20.58Z"/><path class="cls-12" d="M56.07,30.44l-.22-.2L55.61,30l-.23-.23-.25-.2a2.68,2.68,0,0,0-.28-.18,2.22,2.22,0,0,0-.31-.13,2.78,2.78,0,0,0-.73-.16,3.85,3.85,0,0,0-.83,0l-.38,0-.35.07-.16,0a8.07,8.07,0,0,0,2.53,1.31,4.9,4.9,0,0,1-2.71-1.11.71.71,0,0,0,0,.14,1.06,1.06,0,0,0,0,.29,1.75,1.75,0,0,0,.11.35,2.16,2.16,0,0,0,.49.68,2.57,2.57,0,0,0,.85.51,3.16,3.16,0,0,0,.53.13,2.64,2.64,0,0,0,.56,0,2.43,2.43,0,0,0,.55-.07,2.82,2.82,0,0,0,.49-.16,2.36,2.36,0,0,0,.39-.23,1.82,1.82,0,0,0,.24-.25.93.93,0,0,0,.12-.19.28.28,0,0,0,0-.07l-.07-.06Z"/><path class="cls-13" d="M43.18,17.7a2.56,2.56,0,0,0-.27.29,2.55,2.55,0,0,0-.19.37,1.84,1.84,0,0,0-.08.42,2,2,0,0,0,0,.42,2,2,0,0,0,.15.41,1.88,1.88,0,0,0,.54.65,2.34,2.34,0,0,0,.75.39l.38.09.33,0H45c-1.26-1.28-1.18-2.09-1.18-2.09,0,.4.85,1.37,1.4,1.95,0,0,0-.08,0-.12s.06-.17.08-.26l.06-.3a2.15,2.15,0,0,0,0-.62,1.26,1.26,0,0,0-.16-.56,1.23,1.23,0,0,0-.14-.25,1.8,1.8,0,0,0-.19-.21l-.22-.19L44.42,18a3,3,0,0,0-.24-.18L44,17.6c-.05-.05-.12-.1-.15-.14a.21.21,0,0,0-.07-.05l-.08,0-.21.09A1.26,1.26,0,0,0,43.18,17.7Z"/><path class="cls-14" d="M29.53,18.63l-.24,0-.5,0a5.33,5.33,0,0,0-.57,0,6.67,6.67,0,0,0-1.19.1A4.21,4.21,0,0,0,26,19a2.86,2.86,0,0,0-.42.24,1.7,1.7,0,0,0-.36.29,1.94,1.94,0,0,0-.32.32q-.15.16-.3.36l-.3.35-.28.31a2.45,2.45,0,0,1-.23.23l-.1.1.07.1a1.69,1.69,0,0,0,.21.26,2.33,2.33,0,0,0,.4.32,4.21,4.21,0,0,0,.6.29,4.75,4.75,0,0,0,.74.17,4.3,4.3,0,0,0,1.6-.11,4.22,4.22,0,0,0,.73-.27,3.31,3.31,0,0,0,1.13-.84A2.89,2.89,0,0,0,29.76,20a2.38,2.38,0,0,0,.09-.51,2.05,2.05,0,0,0,0-.43,1.27,1.27,0,0,0,0-.2c-2.15,1.9-3.69,2-3.69,2C26.91,20.76,28.54,19.46,29.53,18.63Z"/><path class="cls-15" d="M25.68,26.45c0-.07,0-.14-.06-.19a6.28,6.28,0,0,1-3.28,2.41c.74-.19,2.12-1.68,2.93-2.63H25l-.51,0c-.17,0-.38,0-.57.06a5.91,5.91,0,0,0-1.14.25,4,4,0,0,0-.95.45,3,3,0,0,0-.38.3,2.27,2.27,0,0,0-.3.32,3.47,3.47,0,0,0-.26.37l-.22.39a4.09,4.09,0,0,0-.22.39l-.23.35c-.07.09-.14.2-.19.25L20,29.3l.08.09.26.23a3.14,3.14,0,0,0,.46.26,4,4,0,0,0,.64.21c.23,0,.49.06.77.07a5.7,5.7,0,0,0,.8-.08,4.19,4.19,0,0,0,.76-.24,3.91,3.91,0,0,0,.67-.36,3.16,3.16,0,0,0,1-1,2.79,2.79,0,0,0,.37-1.12,4.34,4.34,0,0,0,0-.51A3.71,3.71,0,0,0,25.68,26.45Z"/><path class="cls-16" d="M41.15,68.52l.63-20.22c0-.42-1.08-.76-1.59-.76h-.84a2.74,2.74,0,0,0-1.41.46.44.44,0,0,0-.18.3l.64,20.3a4.7,4.7,0,0,0-1.32.61,4.25,4.25,0,0,0-1.79,3.57c0,5,.12,6,2.2,6.17l.15-5.76a.49.49,0,0,1,.17-.36.59.59,0,0,1,.37-.12h.19a.54.54,0,0,1,.37.13.47.47,0,0,1,.18.36l.55,5.8h1.24l.56-5.83a.48.48,0,0,1,.17-.34.59.59,0,0,1,.37-.12H42a.54.54,0,0,1,.37.13.47.47,0,0,1,.18.36l.14,5.73c1.89-.25,1.89-1.35,1.89-6.15A4.2,4.2,0,0,0,42.47,69,4.52,4.52,0,0,0,41.15,68.52Z"/></svg>