<svg id="圖層_1" data-name="圖層 1" xmlns="http://www.w3.org/2000/svg" viewBox="0 0 38.39 38.21"><defs><style>.cls-1{fill:#25b3e3;}.cls-2{fill:#fff;}</style></defs><title>頁尾icon</title><path class="cls-1" d="M38.39,19.2A19.19,19.19,0,0,1,19.94,38.37c-.24,0-.49,0-.74,0a18.92,18.92,0,0,1-5.66-.85A19.2,19.2,0,1,1,38.39,19.2Z"/><path class="cls-2" d="M6.38,12.58l8,5.58-8,7.73a1.23,1.23,0,0,1-.09-.47V13A1.32,1.32,0,0,1,6.38,12.58Z"/><path class="cls-2" d="M18.5,19.81l-11.56-8a1.53,1.53,0,0,1,.85-.26H30.61a1.43,1.43,0,0,1,.58.12L19.88,19.8a1.25,1.25,0,0,1-.7.21A1.21,1.21,0,0,1,18.5,19.81Z"/><path class="cls-2" d="M23.14,18.65l8.28,8a1.4,1.4,0,0,1-.81.24H7.79A1.34,1.34,0,0,1,7,26.66l8.22-7.92,2.7,1.87a2.1,2.1,0,0,0,1.24.39,2.14,2.14,0,0,0,1.27-.41Z"/><path class="cls-2" d="M32.07,13V25.42a1.09,1.09,0,0,1-.07.4l-8-7.76,8-5.74A1.42,1.42,0,0,1,32.07,13Z"/></svg>