<svg id="圖層_1" data-name="圖層 1" xmlns="http://www.w3.org/2000/svg" viewBox="0 0 38.39 38.05"><defs><style>.cls-1{fill:#2c6ab4;}.cls-2{fill:#fff;}</style></defs><title>頁尾icon</title><path class="cls-1" d="M38.39,19.2A19.19,19.19,0,0,1,19.94,38.37c-.24,0-.49,0-.74,0a18.92,18.92,0,0,1-5.66-.85A19.2,19.2,0,1,1,38.39,19.2Z"/><path class="cls-2" d="M19.94,17.05v2.19h6.4v4.57h-6.4V38.37c-.24,0-.49,0-.74,0a18.92,18.92,0,0,1-5.66-.85V23.81H9.46V19.23h4.08V16.75c0-2.92.7-5.07,2.12-6.4s3.76-2,7-2a18.79,18.79,0,0,1,6.18.94l-1.56,4.53a14.31,14.31,0,0,0-3.82-.58,3.12,3.12,0,0,0-2.67,1.12A4.41,4.41,0,0,0,19.94,17.05Z"/></svg>