<svg xmlns="http://www.w3.org/2000/svg" viewBox="0 0 425.2 425.2"><defs><style>.cls-1{fill:#fff;}.cls-2{fill:#bb185a;}</style></defs><title>foodpanada-icon</title><g id="圖層_3" data-name="圖層 3"><path class="cls-1" d="M261.38,170.61a7.31,7.31,0,1,1-7.31,7.31A7.3,7.3,0,0,1,261.38,170.61Z"/><path class="cls-1" d="M163.83,170.61a7.31,7.31,0,1,1-7.31,7.31A7.31,7.31,0,0,1,163.83,170.61Z"/><path class="cls-1" d="M153.57,92.65q-4.77,2.34-9.32,5.06c-.46-.59-15.23-19.56-34.93-2.66-20,17.18-1.65,34.74-1.65,34.74h0q-3.33,4.2-6.31,8.67s-27.16-30.28,1.72-53C130.41,63.89,153.57,92.65,153.57,92.65Z"/><path class="cls-1" d="M321.22,85.42c30.3,27.8,2.61,53,2.61,53q-3-4.47-6.31-8.67h0S338,114.65,314,93.62C299.76,81.14,281.5,98,281.5,98Q276,94.74,270.21,92S297.75,63.88,321.22,85.42Z"/><path class="cls-1" d="M323.83,138.46a133.66,133.66,0,1,1-222.46,0q3-4.47,6.31-8.67a134.17,134.17,0,0,1,36.57-32.07h0q4.55-2.71,9.32-5.06A133.95,133.95,0,0,1,270.21,92Q276,94.74,281.5,98a134.28,134.28,0,0,1,36,31.75Q320.85,134,323.83,138.46Zm-9.91,63.16c.74-9.14-4.8-27.33-12.12-35.17-18.71-20.08-37.42-17.23-37.42-17.23s-14.74-.55-21.74,8.2c-8.56,10.7-3.92,20.68-3.92,20.68s2.83,6.14,17.22,23.28c10,11.88,12.29,21.69,14.41,29.65.52,1.94,4.84,7.54,13.19,8.19,4.93.39,8.64-.63,17.2-9.44A47.08,47.08,0,0,0,313.92,201.62ZM245.3,246.89H179.36s2.38,28.16,35.65,28.16C243.28,275.05,245.3,246.89,245.3,246.89Zm-20.67-11.76c3.49-1.91,11.78-7.94,10.69-11.77-2.55-9-22.72-7.84-22.72-7.84s-21.41.11-23.26,5.81c-1.39,4.29,7.72,11.54,11.63,13.8,2.65,1.52,8.57,3.78,11.63,3.8S221.86,236.64,224.63,235.13Zm-38.14-57s4.64-10-3.92-20.68c-7-8.75-21.74-8.2-21.74-8.2s-18.71-2.85-37.43,17.23c-7.31,7.84-12.85,26-12.12,35.17a47.16,47.16,0,0,0,13.19,28.16c8.56,8.81,12.27,9.83,17.2,9.44,8.35-.65,12.67-6.25,13.19-8.19,2.12-8,4.42-17.77,14.4-29.65C183.66,184.24,186.49,178.1,186.49,178.1Z"/><path class="cls-2" d="M179.36,246.89H245.3s-2,28.16-30.29,28.16C181.74,275.05,179.36,246.89,179.36,246.89Z"/><path class="cls-2" d="M235.32,223.36c1.09,3.83-7.2,9.86-10.69,11.77-2.77,1.51-8.88,3.81-12,3.8s-9-2.28-11.63-3.8c-3.91-2.26-13-9.51-11.63-13.8,1.85-5.7,23.26-5.81,23.26-5.81S232.77,214.39,235.32,223.36Z"/><path class="cls-2" d="M182.57,157.42c8.56,10.7,3.92,20.68,3.92,20.68s-2.83,6.14-17.23,23.28c-10,11.88-12.28,21.69-14.4,29.65-.52,1.94-4.84,7.54-13.19,8.19-4.93.39-8.64-.63-17.2-9.44a47.16,47.16,0,0,1-13.19-28.16c-.73-9.14,4.81-27.33,12.12-35.17,18.72-20.08,37.43-17.23,37.43-17.23S175.57,148.67,182.57,157.42Zm-11.43,20.5a7.31,7.31,0,1,0-7.31,7.3A7.31,7.31,0,0,0,171.14,177.92Z"/><path class="cls-2" d="M301.8,166.45c7.32,7.84,12.86,26,12.12,35.17a47.08,47.08,0,0,1-13.18,28.16c-8.56,8.81-12.27,9.83-17.2,9.44-8.35-.65-12.67-6.25-13.19-8.19-2.12-8-4.43-17.77-14.41-29.65-14.39-17.14-17.22-23.28-17.22-23.28s-4.64-10,3.92-20.68c7-8.75,21.74-8.2,21.74-8.2S283.09,146.37,301.8,166.45Zm-33.12,11.47a7.31,7.31,0,1,0-7.3,7.3A7.3,7.3,0,0,0,268.68,177.92Z"/><path class="cls-2" d="M314,93.62c24,21,3.54,36.17,3.54,36.17h0A134.28,134.28,0,0,0,281.5,98S299.76,81.14,314,93.62Z"/><path class="cls-2" d="M144.25,97.71h0a134.17,134.17,0,0,0-36.57,32.07h0s-18.37-17.56,1.65-34.74C129,78.15,143.79,97.12,144.25,97.71Z"/><path class="cls-2" d="M425.2,85V340.16a85,85,0,0,1-85,85H85a85,85,0,0,1-85-85V85A85,85,0,0,1,85,0H340.16A85,85,0,0,1,425.2,85ZM346.26,212.6a133,133,0,0,0-22.43-74.14s27.69-25.24-2.61-53c-23.47-21.54-51,6.54-51,6.54a133.95,133.95,0,0,0-116.64.69s-23.16-28.76-50.48-7.23c-28.88,22.76-1.72,53-1.72,53A133.67,133.67,0,1,0,346.26,212.6Z"/></g></svg>