<svg id="圖層_1" data-name="圖層 1" xmlns="http://www.w3.org/2000/svg" viewBox="0 0 305.99 317.49"><defs><style>.cls-1{fill:#3c3c3b;}</style></defs><title>廚師</title><path class="cls-1" d="M117.27,131.58c-1.4-3.62-5.17-4.49-7.49-1.85a1.08,1.08,0,0,0-.36.2c-3.17,2.75-3.55,9-2.48,12.76,1.21,4.2,7,5.58,9.63,1.74C118.9,141,118.72,135.34,117.27,131.58Zm-2.62,2.86a15.25,15.25,0,0,1,.29,4.52c-.11-.31-.22-.62-.32-.93a13.45,13.45,0,0,0-.34-4.58,1.66,1.66,0,0,0-.38-.71,12.73,12.73,0,0,0-.67-1.4.7.7,0,0,1,.14,0C114.22,131.85,114.47,133.61,114.65,134.44ZM113,143.25c.16-.38.31-.76.46-1.14a2,2,0,0,0,.53.15H114c0,.08-.07.17-.12.25A1.77,1.77,0,0,1,113,143.25Z"/><path class="cls-1" d="M164.18,134c-.59-3.4-3.46-6.75-6.83-5a.68.68,0,0,0-.56.29l-.06.09-.3.21a1,1,0,0,0-.43,1.06c-2.41,5.18-3.3,17.72,4.44,14.15C164.14,143.1,164.8,137.54,164.18,134Z"/><path class="cls-1" d="M141.1,233.77c-.08.27,0,.28,0,0A.08.08,0,0,0,141.1,233.77Z"/><path class="cls-1" d="M141.06,232.52c-.12-.35-.23-.71-.34-1.07-.2-.65-.42-1.3-.57-2a1.5,1.5,0,0,0-2.88,0,12.92,12.92,0,0,0,0,3.46,2.3,2.3,0,0,0,2.08,2.32,1.73,1.73,0,0,0,1.77-1.94,3.19,3.19,0,0,1,0,.4A2.26,2.26,0,0,0,141.06,232.52Z"/><path class="cls-1" d="M149.61,230.9c-.83-1.31-1.43-2.73-2.38-4a.6.6,0,0,0-1.09.47,26,26,0,0,1,.87,4.4,1.75,1.75,0,0,0-.14,1.28,1.94,1.94,0,0,0,2.35,1.33A1.9,1.9,0,0,0,149.61,230.9Z"/><path class="cls-1" d="M144.83,254.47a2.61,2.61,0,0,0-.36-.73,4,4,0,0,1-.51-1.14,18.78,18.78,0,0,1-.8-3,1.16,1.16,0,0,0-2.23,0,15.68,15.68,0,0,0-.09,4c.15,1.24.39,3,1.92,3.22a1.73,1.73,0,0,0,2.09-2.08C144.92,255.12,144.91,255.05,144.83,254.47Z"/><path class="cls-1" d="M145.71,274.65a23,23,0,0,1-1.63-4.29.73.73,0,0,0-1.41,0,26.82,26.82,0,0,0-.12,4.57c0,1.34,0,2.93,1.42,3.55a1.52,1.52,0,0,0,2-.52C146.79,276.79,146.19,275.79,145.71,274.65Z"/><path class="cls-1" d="M143.4,298c0,.13.07.14,0,0Z"/><path class="cls-1" d="M143.24,296.27c0,.08,0,.09,0,0Z"/><path class="cls-1" d="M146.19,295.79a5.27,5.27,0,0,1-.19-.51c-.14-.49-.27-1-.41-1.46a18.75,18.75,0,0,1-.58-2.2c-.17-1.2-1.87-.77-2,.26a13.22,13.22,0,0,0,.05,2.27c0,.44.09.87.13,1.3a3.89,3.89,0,0,1,0,.59,1.35,1.35,0,0,1,0,.23.73.73,0,0,1,.09-.18,1.78,1.78,0,0,0,0,1.81l.07.11a1.33,1.33,0,0,1-.08-.32,1.59,1.59,0,0,0,1.56,1.32,1.91,1.91,0,0,0,1.72-1.54A1.78,1.78,0,0,0,146.19,295.79Z"/><path class="cls-1" d="M154.65,252.62c-.43-.42-.49-1.63-.6-2.19-.13-.72-.2-1.44-.33-2.16a1.06,1.06,0,0,0-2,0,15.52,15.52,0,0,0-.24,2.16,14.68,14.68,0,0,0,0,1.48,7.73,7.73,0,0,1,.16,1.5,1.79,1.79,0,1,0,3-.79Z"/><path class="cls-1" d="M158.81,273.32a29.54,29.54,0,0,1-.17-4.1c.1-1.55-2-1.53-2.47-.34-.79,1.88-2.69,7.67,1.1,7.72a1.49,1.49,0,0,0,1.31-.75A4,4,0,0,0,158.81,273.32Z"/><path class="cls-1" d="M161.32,294c-.23-.84-.5-1.68-.77-2.51a9.05,9.05,0,0,0-.59-1.31,1.25,1.25,0,0,0-.26-.3h0c-.1-.17-.49-.76-.35-.18a.67.67,0,0,0-1.19-.17.25.25,0,0,0-.08.07,1.3,1.3,0,0,0-.32.53,6.4,6.4,0,0,0-.21.88,10.85,10.85,0,0,0,0,1.89,8.19,8.19,0,0,0,.54,3.33L158,296a1.62,1.62,0,0,0,2,1C161.32,296.7,161.61,295.13,161.32,294Z"/><path class="cls-1" d="M302.06,145.21a4.52,4.52,0,0,0-2-.52,1.45,1.45,0,0,0-1.14.34c-.41,0-.87.09-1,.09-1.28,0-2.55-.11-3.83-.14-3.83-.06-7.64-.37-11.47-.58-1.52-.08-3-.13-4.57-.17a5.24,5.24,0,0,0-2.55,0c-6.56-.07-13.14.14-19.67.14-16.88,0-35.06-3.91-51.48,1.4-1.58.52-1.39,3.27.41,3,12.14-1.51,24.27-1.06,36.43-.55l0,0c-5.09,6.38-13.94,8.65-19.75,1.66-.62-.74-1.65.07-1.48.87.76,3.74,3.65,6,7.17,6.85-6.12,15.6-15.46,27.49-30.22,36-13.58,7.79-28.71,10.65-44.07,11.7,7.06-4.26,13.3-11,17.39-16.68.72-1,1.39-2,2.05-3a44.15,44.15,0,0,0,19-8.84c5-3.91,11.35-12.66,7.15-19.15a1.84,1.84,0,0,0-.55-.56,1.76,1.76,0,0,0-3.22-.71c-3.6,5-5.94,9.74-12.74,8.71A97.62,97.62,0,0,0,186,129.31a.76.76,0,0,0,.3-.5c.71-5.07.91-10.26,1.19-15.37.23-4.33,1.3-8.2,2.22-12.2,7.39,8.19,17.82,10,27.21,2.14a40.9,40.9,0,0,0,13.68-22.46C234.36,84,238.19,87,242,90a8.07,8.07,0,0,0,1.66,1,5.63,5.63,0,0,0,2,7.49l-.59.07c-14.71,2.18-34.66,12.64-39.31,28a17.78,17.78,0,0,0-1,7.17,24.7,24.7,0,0,0,1,6.47c.32,1.07,2.13.92,2-.28a28.57,28.57,0,0,1,.62-9.14c3.88-13.86,19.66-21,34-22.76,19.24-2.32,45,9.34,50.56,29.06a1.86,1.86,0,0,0,3.43.35c1.1.67,3,.05,2.86-1.51-1.87-19.83-19.3-33.44-38-36.92A17.3,17.3,0,0,0,263,95a6.4,6.4,0,0,0-.5-5.17c-1.81-3-5.95-3.58-9.13-3.36-.32,0-.65.06-1,.1a6.1,6.1,0,0,0-1.71-5.29C245,75.8,238.29,70.6,231,67.54c-2.21-12.82-12.36-24.09-24.07-29.12a28.73,28.73,0,0,0-31.29,5.19c-.59-13.54-5.73-27-16.33-35.82S135.7-1.93,123.31,3C109.24,8.6,81,27.53,86.52,45.27c-17.81-6.61-38.21,9-41.89,28C27,80.65,16.46,102.14,10.25,119,2.82,139-.31,161.19,0,182.55c.73,46.64,27.36,93.58,68.85,115.33,36.57,19.17,82.6,23.45,122.1,11.61,19.51-5.85,37.78-16.36,51.62-31.41,8.5-9.25,15.17-20.38,21.42-31.21,7.08-12.27,12.84-25.44,15.7-39.36a278.67,278.67,0,0,0,4.47-30.32c.88-9.62.76-19.08-2.33-28.25q3.67.1,7.36.34c3.08.19,11.45,1.93,13.63-1.09A2.19,2.19,0,0,0,302.06,145.21Zm-68.18-39.43.37-.36c.53-.2,1.05-.4,1.58-.58a2,2,0,0,0,.13.42C235.27,105.42,234.58,105.59,233.88,105.78ZM253.61,91c2.07,2,2.66,4.59,2.92,7.28a49,49,0,0,0-7.75-.14,12.3,12.3,0,0,1-2.57-3.57c-.33-.71-.18-1.18.34-1.93-.06.08.74-.7.77-.72l.66-.41a5.64,5.64,0,0,0,1.71-.76,15.88,15.88,0,0,1,2.78-.65A6.41,6.41,0,0,1,253.61,91Zm-83.08,90.41-.69.1c.42-.55.83-1.09,1.22-1.63l.3.07C171.09,180.48,170.82,181,170.53,181.45Zm7.84-17.25-.26-.1.58-1.57c.22-.57.44-1.14.65-1.72C179,162,178.72,163.08,178.37,164.2ZM97.55,112c0-1.07,0-2.19-.08-3.32q2.5-.84,5-1.65c-.07.65-.09,1.3-.11,1.88a10.48,10.48,0,0,0,.28,2.43c.15.76.84,1.35,1.2,2a.19.19,0,0,0,.35-.15,11.82,11.82,0,0,1,0-4.28,24.06,24.06,0,0,1,.5-2.56q4-1.23,8-2.33c-.46,2.78-.24,5.87-.55,8.56-.08.62.92.73,1.07.14a40.45,40.45,0,0,0,.89-4.87c.19-1.43.52-2.91.64-4.37,2.76-.72,5.54-1.38,8.32-2a29.19,29.19,0,0,0-.43,5.72.72.72,0,0,0,1.44,0c.11-2,.91-4.07.77-6.08,3-.58,6-1.06,9-1.42-.39,2.46-.34,5.11-.54,7.5-.07.77,1.11.88,1.31.17a40.62,40.62,0,0,0,1.4-7.91c2.78-.28,5.57-.44,8.34-.48a26.1,26.1,0,0,0-.29,3.29c-.18,1.82-.35,3.64-.6,5.46-.08.64.83.94,1,.27.49-1.82,1.06-3.62,1.42-5.48A10.55,10.55,0,0,0,146.3,99q3.64,0,7.25.39a.88.88,0,0,0-.2.29,8.37,8.37,0,0,0-.3,3.27,26.62,26.62,0,0,1-.4,4.72.76.76,0,0,0,1.46.4,23.24,23.24,0,0,0,.75-3.89,9.37,9.37,0,0,0-.12-4.5.69.69,0,0,0-.1-.17,67,67,0,0,1,8,1.43,27.23,27.23,0,0,0,.06,7.6.64.64,0,0,0,1.28,0c.24-2.31.63-4.7.8-7.06a62,62,0,0,1,6.25,2.1,47.22,47.22,0,0,0-.61,8.29.92.92,0,0,0,1.83,0c.11-2.5.71-5,.69-7.5a58.5,58.5,0,0,1,6.89,3.56,36,36,0,0,0-1.24,9.29c-11.45-6.1-26.26-7.78-38.43-7.78-14.66,0-30.64,3.18-43.13,11.33A44.46,44.46,0,0,0,97.55,112Zm84.64,30.32a1.46,1.46,0,0,0-.51,0,81.32,81.32,0,0,0,1.46-14.13.79.79,0,0,0,.29-.18C182.94,132.73,182.61,137.52,182.19,142.29Zm20.31-38.1a10.8,10.8,0,0,0,2.33-.13c.35,0,.7,0,1.06,0A10.27,10.27,0,0,1,202.5,104.19Zm15.89-47.34a2.37,2.37,0,0,0-.19.35,26.27,26.27,0,0,0-4.15-6.27A37,37,0,0,1,218.39,56.85Zm-124.92-26a1.33,1.33,0,0,0,.32.15,20.53,20.53,0,0,0-3.06,6.07A20.73,20.73,0,0,1,93.47,30.87ZM79.08,48.28q-.85.3-1.68.66l-.22.05a1.56,1.56,0,0,0-.63-.26,18.72,18.72,0,0,0-2.17-.23A23.11,23.11,0,0,1,79.08,48.28ZM56.23,79.81c4-16.46,20.63-26.07,36.75-25.33,1.86,1,4.07-1.18,3.08-2.94a.77.77,0,0,0,0-.71c-9.73-18.71,16.52-30.9,31.22-33.77,23.14-4.52,36.16,21,41.32,39.41a2.14,2.14,0,0,0,3.34,1.16,2,2,0,0,0,1.08-.79,23.23,23.23,0,0,1,3.69-4.33,2.27,2.27,0,0,0,1.16-1C191.17,40.87,214.1,46.51,216,66a42.68,42.68,0,0,1-5.53,24.43c-1.75,3.06-4.26,6-7.67,7.21-4.51,1.59-8.75-1.79-11.85-4.63a2.34,2.34,0,0,0-1.1-.57,1.83,1.83,0,0,0-2.44.15c-.5.64-1,1.32-1.45,2a.86.86,0,0,0-.1.16,44.28,44.28,0,0,0-4.88,9.61c-24.13-15.11-58.76-9.72-83.59,1.84a26.72,26.72,0,0,0-1-6.11,1.74,1.74,0,0,0-.51-.77c.08-.94-1.29-1.78-2-.93-3.3,3.81-7.91,5.33-12.77,5.48-2.46-.28-4.91-.42-7.32-.69a43,43,0,0,1-8.33-2.63,37.79,37.79,0,0,1-5-2.57l-.08-.07C55.37,93.27,54.7,86.12,56.23,79.81ZM129.62,302a166.78,166.78,0,0,1-32.36-6.53c-19.4-6-37.57-16.18-51.37-31.21C29.43,246.32,19.27,222.4,15,198.64c-3.77-20.73-1.09-43.06,4.22-63.28A125.73,125.73,0,0,1,31.4,105c3.91-6.87,8.93-12.22,14.15-17.68C48.06,94,53.5,99.23,60,102.76a29.09,29.09,0,0,0,13.74,4.73c6.78,1.1,13.65.29,18.82-4.2a65.44,65.44,0,0,0,.61,7,63.65,63.65,0,0,1-.06,13.59c-.2,1.75,2.33,2,3,.6a94.39,94.39,0,0,1,42.59-11.33,91.42,91.42,0,0,1,24.05,2.57c5.88,1.42,11.05,3.87,16.29,6.47a25.34,25.34,0,0,0,.67,2.7c.34,12.53-2.84,24.94-7.52,36.66-2.13-1.09-4.23-2.26-6.31-3.28-6.82-3.38-14.09-5.2-20.06-2.63a13.53,13.53,0,0,0-.09-5.11,10.42,10.42,0,0,0-4.59-6.86c-2.29-1.34-6.21-1-7.39,1.67-.29.67,0,1.7.93,1.62,1.66-.14,3-1.05,4.59-.1s2.31,3,2.7,4.71a7.42,7.42,0,0,1-.75,5.31c-.89,1.55-2.31,1.75-3.71,2-6-7-17.49-3.63-25.74-.5-5.71,2.16-11.33,4.8-17.34,6-6.9,1.39-8.1-2.51-10.62-7.87a1.31,1.31,0,0,0-2.39.31c0,.25-.07.51-.1.76a1.23,1.23,0,0,0-.42.61c-5.68,17.89,9.35,29.59,25.78,31.14a37.48,37.48,0,0,0,23.69-5.56A28.33,28.33,0,0,0,140,172.51a27.3,27.3,0,0,0,4.67,4.84,43.66,43.66,0,0,0,15.57,7.85,39.57,39.57,0,0,1-10.78,10.68c-5.53,3.62-11.88,5.36-18.2,7a1.54,1.54,0,0,0-1,.89l-1.28-.34c-1.36-.38-1.88,1.37-.89,2.12a18.24,18.24,0,0,0,11.59,3.95c-1.29,1.64-2.59,3.26-3.93,4.85-.59.69-5.08,4.72-6.54,7.3a1.36,1.36,0,0,0-1.42,1.14c-1.1,5.33.48,11.7,1.07,17.06.8,7.28,1.63,14.55,2.24,21.85A151.86,151.86,0,0,1,129.62,302Zm23.2-139.64-.92-.49.45-.2.46-.08A2.21,2.21,0,0,0,152.82,162.36ZM142,164a2,2,0,0,0-.82.67,1.66,1.66,0,0,0-.22,0c0-.08,0-.17-.07-.25.26-.32.53-.62.79-.92A3,3,0,0,0,142,164Zm-51.41,4.77-.06.09a1.35,1.35,0,0,0-.68.42c-.33-.25-.66-.52-1-.79A11,11,0,0,0,90.58,168.72Zm42.25,133.57c4.3-12.13,3.4-26.47,2.5-39-.53-7.34-1.39-14.65-2.2-22-.62-5.5-.36-12-1.88-17.44,3.08-.76,6.62-5.77,8.08-7.45,1.83-2.11,3.6-4.3,5.3-6.53.34-.46.76-.94,1.16-1.43a27.19,27.19,0,0,0,2.68-1,1.68,1.68,0,0,0,.24.07c31.79,3.65,74.21-15.52,81.26-49.5a16.92,16.92,0,0,0,2.93-.14c-1.13,2.18-1.52,5-2,7.23-.43,2-.78,4-1.06,6-.76,1.59-1.55,3.16-2.33,4.73-4.21,8.35-8.82,16.53-13.68,24.52a85.84,85.84,0,0,1-19.59,22.11,120.93,120.93,0,0,1-16.36,11,50.35,50.35,0,0,1-6,3c-1.56.64,0,.1-.73.39a1.13,1.13,0,0,0-.24.17l-.71-.69a2.2,2.2,0,0,0-2.92,1.91c3,11,8.8,21,12.27,31.87,1.66,5.21,2.81,10.57,4.46,15.79,1.07,3.41,2.25,7.37,4.28,10.53C170.65,302.12,151.53,303.8,132.83,302.29ZM176,238.69c-.71.39-1.41.77-2.12,1.14l-.16.1-.54-.6A9.58,9.58,0,0,0,176,238.69Zm95.43-48.41c-2.59,14-6.16,26.88-12.83,39.55-10.74,20.41-23.6,41-43.22,53.86a108.31,108.31,0,0,1-17.9,9.4,101.9,101.9,0,0,0-2.63-10.53,144.5,144.5,0,0,0-6.2-17.63,102.65,102.65,0,0,0-10.43-19.37c16.47-6.64,29.43-20.26,39.43-34.57,9.36-13.4,17.4-30,19.32-46.74.86-2.6,1.41-5.37.42-6.64,0-.33,0-.65,0-1,3-1.4,5.39-3.79,5.91-7a1.65,1.65,0,0,0-.43-1.3c6.06.26,12.12.5,18.19.5H272a4.76,4.76,0,0,0,.18,1C275.73,162.76,273.86,177.28,271.45,190.28Z"/></svg>