<svg id="圖層_1" data-name="圖層 1" xmlns="http://www.w3.org/2000/svg" viewBox="0 0 1224.38 2230"><defs><style>.cls-1{fill:none;stroke:#a1b191;stroke-width:6px;fill-rule:evenodd;}.cls-2{fill:#a1b191;}</style></defs><title>推薦時間軸</title><path class="cls-1" d="M332.94,44.65c25.13-.55,50.27-.22,75.38.71s50.2,2.52,75.24,4.73A1361.13,1361.13,0,0,1,632.75,71.41"/><path class="cls-2" d="M513.7,53.07c3.82-1.34,5.23-4.13,3.29-6.37-3.26-4-9-3.94-10.65-2.91.48-1.85-1.88-3.59-3.78-4.35-2.49-1-5.26-1.52-8.19,1.68a13.48,13.48,0,0,1-14.49,5.54,9.46,9.46,0,0,0-.47,3.07,9.55,9.55,0,0,0-.06,3.11,13.15,13.15,0,0,1,13.14,8c2.23,3.71,5,3.68,7.58,3.22,2-.36,4.62-1.59,4.53-3.5,1.43,1.33,6.89,2.61,10.91-.6C517.87,58.26,517.15,55.19,513.7,53.07Z"/><path class="cls-2" d="M329.23,45.08a23.49,23.49,0,0,0-7.94,2.2c-1.89,1.09-2.63,2.57-1.39,4.55,1.55,2.53,7.23.81,9.11-.31-1.28.77-2.71,3-1.26,4.48,1.82,2.12,7.5.33,14.83-2.77,11.66-6,21.44-6.24,29.06-4.65-12.72,1.54-19.91,9.85-16.4,13.78,3.94,4.87,12.14,3,14.81,1-1.1,2.9,1.93,4.77,4.48,5.34,3.35.73,7.18.76,12.2-4.8,8-10.29,13.4-10.61,17.58-12.19s5.67,1.36,2,2.21c-12,4.74-12.55,9.42-12,12.27s6,4.76,9.85,3.1c-2,5.3-.92,8.94,5,10.82,7.63,2,11.68-2.52,12.77-10,3.15,4.52,10.39,2.57,11.14-4.48,1.27-10.34,3.88-10.78,7.2-13.61s7.16-2.26,4.16-.07c-6.73,5.29-6.54,11.64-2.58,13.21s7.2,1,10.94-2.37c1.66,4.64,9.8,4.91,9.94-2.19,2-11.71,10-12.74,12.3-12.37"/><path class="cls-2" d="M329.21,44.42a25.76,25.76,0,0,1-8.11-1.65c-2-.92-3-2.31-1.86-4.41,1.48-2.69,7.42-1.38,9.38-.35-1.33-.7-2.95-2.83-1.56-4.41,1.75-2.22,7.76-.77,15.28,2.13,12,5.65,21.66,6.05,29.39,4.61-12.71-1.81-20.14-10-16.56-13.93,4.05-4.9,12.57-2.91,15.26-.82-1.08-2.92,2.08-4.74,4.75-5.24,3.49-.64,7.5-.53,12.41,5.24,7.67,10.66,13.05,11.33,17.17,13.19s5.81-.93,2.13-2.06c-11.84-5.57-12.18-10.19-11.41-13s6.51-4.4,10.34-2.47c-1.67-5.41-.34-9,6-10.41,8.16-1.37,12,3.55,12.36,11.15,3.68-4.22,11-1.5,11,5.6.14,10.43,2.72,11.14,5.7,14.35s6.87,3.11,4.15.57c-6.08-6.07-5.2-12.35-1-13.42s7.47-.1,10.79,3.77c2.31-4.38,10.65-3.47,9.7,3.59.32,11.87,8,14.14,10.3,14.14"/><path class="cls-1" d="M646.38,74.25c49.13,10.54,97.66,24.18,144.68,42s92.5,39.82,134.57,67.37"/><path class="cls-2" d="M819.19,127.45c4-.16,6.2-2.44,5-5.14-2-4.81-7.53-6.33-9.43-5.85,1-1.63-.8-4-2.43-5.24-2.13-1.64-4.67-3-8.37-.69a13.62,13.62,0,0,1-15.5,1.39,9.38,9.38,0,0,0-1.28,2.83,10,10,0,0,0-.89,3A13,13,0,0,1,796.69,129c1.11,4.18,3.73,4.94,6.34,5.19,2,.18,4.85-.24,5.3-2.1,1,1.71,5.85,4.4,10.59,2.52C821.68,133.63,821.87,130.5,819.19,127.45Z"/><path class="cls-2" d="M642.66,73.8c-6.16-.63-12.23-.13-10.72,4.33,1,2.86,6.92,2.51,9,1.88-1.42.44-3.35,2.27-2.29,4.06,1.29,2.5,7.27,2.07,15.12.76,12.72-3.1,22.3-1.16,29.34,2.17-12.73-1.45-21.63,5-19.12,9.61,2.71,5.67,11.11,5.68,14.17,4.35-1.75,2.57.75,5.09,3.1,6.23,3.07,1.51,6.77,2.38,12.93-1.83,10.13-8.15,15.48-7.14,19.91-7.69s5.17,2.68,1.37,2.61c-12.81,1.75-14.38,6.17-14.51,9.08s4.68,6,8.76,5.34c-3.17,4.65-3,8.46,2.23,11.69,6.84,3.75,11.81.36,14.72-6.68,1.9,5.16,9.33,5,11.81-1.62,3.8-9.7,6.43-9.46,10.35-11.38s7.49-.36,4,1c-7.83,3.43-9.23,9.64-5.82,12.13,3.38,2.64,6.64,2.81,11.11.47.39,4.92,8.11,7.26,10.11.43,5-10.74,13-9.67,15.1-8.68"/><path class="cls-2" d="M642.8,73.15c-5.88-1.93-11.32-4.7-8.18-8.24,2-2.25,7.46.4,9.12,1.87-1.14-1-2.2-3.45-.48-4.65,2.2-1.74,7.67,1,14.32,5.61C667.94,76,677.27,78.59,685.12,79c-12-4.71-17.31-14.35-12.91-17.39,5.07-3.82,12.92.07,15.07,2.74-.39-3.1,3.13-4.13,5.85-4,3.55.22,7.46,1.23,10.89,8,5,12.15,10,14.1,13.61,16.89s5.88.5,2.57-1.48c-10.2-8.25-9.45-12.82-8-15.39s7.41-2.71,10.69.09c-.33-5.67,1.82-8.82,8.4-8.64,8.34.66,10.89,6.39,9.41,13.84,4.62-3.16,11.1,1.3,9.3,8.16-2.45,10.14-.14,11.49,2,15.34s5.86,4.76,3.88,1.59c-4.37-7.4-2-13.25,2.45-13.23s7.3,1.83,9.54,6.41c3.36-3.62,11.26-.56,8.5,6-2.79,11.56,4,15.73,6.22,16.38"/><path class="cls-1" d="M937.16,191.38a502.38,502.38,0,0,1,58.68,47.23,438.19,438.19,0,0,1,50.28,56A408.05,408.05,0,0,1,1112.58,429"/><path class="cls-2" d="M1063.4,319.52c3.43,2.14,6.52,1.51,7-1.41a10,10,0,0,0-1.14-6.79,8.07,8.07,0,0,0-3.41-3.43c1.73-.8,1.53-3.77.87-5.76-.85-2.6-2.34-5.09-6.69-5.24a13.91,13.91,0,0,1-13.84-7.3,10.08,10.08,0,0,0-2.59,1.72,9.94,9.94,0,0,0-2.34,2.05,12.77,12.77,0,0,1,2.61,15.06c-1.38,4.08.43,6.07,2.41,7.72,1.51,1.25,4.12,2.45,5.53,1.16a7.38,7.38,0,0,0,1.76,4.28,9.35,9.35,0,0,0,5.52,3.68C1062,326,1063.9,323.55,1063.4,319.52Z"/><path class="cls-2" d="M933.91,189.52c-5.5-2.87-11.26-4.73-11.53,0-.19,3,5.4,4.93,7.58,5.1-1.49-.11-4,.87-3.65,2.91.12,1.37,1.58,2.54,4,3.59a64.89,64.89,0,0,0,9.55,2.86,46.26,46.26,0,0,1,15.86,5.44,37.39,37.39,0,0,1,9.92,8.35,27.79,27.79,0,0,0-8-3.37,19.35,19.35,0,0,0-6.88-.57c-4,.44-6.55,2.34-6.37,4.94.08,3.1,2,5.47,4.26,7.11a13.24,13.24,0,0,0,6.64,2.49c-2.63,1.61-1.49,4.92.1,6.9,2.11,2.58,4.93,4.92,12.24,3.71,12.55-3,16.93.29,21.07,1.8s3.37,4.67,0,2.93a35.76,35.76,0,0,0-7.54-1.86,14,14,0,0,0-4.92.22,6.62,6.62,0,0,0-4.44,3.37c-.69,1.31-.34,3.16.67,4.8a8.3,8.3,0,0,0,4.58,3.72c-4.92,2.77-6.49,6.19-3.48,11.29,2,3.15,4.53,4.49,7.25,4.47s5.64-1.4,8.57-3.82a5.13,5.13,0,0,0,3.16,5.72c2.15.93,5.1.62,7.79-1.7,8-6.65,10.2-5.23,14.53-5s6.67,3.36,3,2.84c-8.46-.88-12.67,3.89-11,7.68a8.48,8.48,0,0,0,3.36,4.27,11.81,11.81,0,0,0,5.89,1.52,5.1,5.1,0,0,0,1.44,6.13c1.69,1.41,4.32,1.69,6.93-.72,4.91-3.33,8.94-3.75,11.91-3.08a9.38,9.38,0,0,1,5.46,3.45"/><path class="cls-2" d="M934.29,189c-4.74-4-8.73-8.64-4.51-10.72,2.72-1.33,6.79,3.23,7.79,5.19-.68-1.34-.75-4,1.31-4.48,1.37-.4,3.06.59,5,2.54a52.47,52.47,0,0,1,6.21,8.25,57.65,57.65,0,0,0,10.13,13.8,44,44,0,0,0,10.6,7.8,34.43,34.43,0,0,1-5.24-7.11,23.42,23.42,0,0,1-2.45-6.64c-.75-4,.29-7,2.94-7.52,3.13-.72,6.15.64,8.45,2.64a14.27,14.27,0,0,1,4.4,6.21c.93-3,4.59-2.39,7.06-1.07,3.22,1.71,6.38,4.44,6.63,12.1-.73,13.22,2.93,17.18,4.86,21.35s5.07,3.12,3-.16a41.77,41.77,0,0,1-2.69-7.59,15.2,15.2,0,0,1-.48-5,6.23,6.23,0,0,1,2.76-4.85c1.25-.82,3.24-.59,5.15.36a9.91,9.91,0,0,1,4.56,4.68c2.22-5.22,5.6-7.08,11.56-3.74,3.65,2.34,5.43,5.1,5.67,8s-1.09,6-3.5,8.94a6.11,6.11,0,0,1,6.22,3.76,7.37,7.37,0,0,1-1.75,8.05c-7,7.71-5.62,10-5.68,14.41s2.77,7.05,2.59,3.32c-.15-8.63,4.78-12.6,8.65-10.31a9.94,9.94,0,0,1,4.24,4.12,12.12,12.12,0,0,1,1,6.36,5.6,5.6,0,0,1,6.16,2.68c1.19,2.08,1.06,4.84-1.81,6.94-4.16,4.24-5.31,8.13-5.25,11.16a9.7,9.7,0,0,0,2.1,6.12"/><path class="cls-1" d="M1116.2,442.49q4.53,18.28,7.62,36.9c2.08,12.4,3.53,24.89,4.67,37.4s1.67,25.08,1.94,37.64l.11,9.42c0,1.57-.06,3.14-.09,4.71s0,3.14-.18,4.71c-.26,3.13-.39,6.27-.86,9.38l-.62,4.67L1128,592a137.55,137.55,0,0,1-12,35.6,162.13,162.13,0,0,1-20.76,31.36,218.67,218.67,0,0,1-26.84,26.39,292.76,292.76,0,0,1-30.54,22.07"/><path class="cls-2" d="M1119.05,620.84c.14,4,2.24,6.33,5,5.12a9.31,9.31,0,0,0,1.71-.91,8.85,8.85,0,0,0,1.37-1.21,11.3,11.3,0,0,0,2-2.86,10.54,10.54,0,0,0,.94-2.83,5.55,5.55,0,0,0,0-2.11c1.66,1,4-1.1,5.21-2.94,1.57-2.4,2.65-5.34.1-8.91a15.57,15.57,0,0,1-4.06-7.42,17.89,17.89,0,0,1-.34-4,15.64,15.64,0,0,1,.76-4.18,9.56,9.56,0,0,0-3-.7,9.79,9.79,0,0,0-3.1-.29,14.46,14.46,0,0,1-.73,4,9.89,9.89,0,0,1-1.86,3.36,12.56,12.56,0,0,1-6.82,4.14c-4.06,1.38-4.42,3.81-4.46,6.26-.06,1.83.58,4.52,2.43,4.93a4.31,4.31,0,0,0-1.25,1.36,9.9,9.9,0,0,0-1.16,2.35,9.17,9.17,0,0,0-.48,3,9.05,9.05,0,0,0,.17,1.69,9.61,9.61,0,0,0,.47,1.72C1112.83,623.1,1116,623.51,1119.05,620.84Z"/><path class="cls-2" d="M1114.93,439c-2.15-5.81-5.42-10.94-8.68-7.56-2,2.13.85,7.23,2.36,8.8-1-1.07-3.52-1.95-4.65-.22-.83,1.12-.49,2.95.64,5.28a62.3,62.3,0,0,0,5.26,8.43,46.24,46.24,0,0,1,5.08,7.44,39.8,39.8,0,0,1,3.15,7.13,40.52,40.52,0,0,1,1.53,6.7c.14,1.07.24,2.12.3,3.13s0,2,0,3a27,27,0,0,0-3.7-7.83,20.13,20.13,0,0,0-4.73-5c-3.29-2.33-6.46-2.59-8-.54a9.14,9.14,0,0,0-1.58,8.11,13.38,13.38,0,0,0,3.3,6.26c-3-.56-4.4,2.67-4.55,5.19a9.87,9.87,0,0,0,.94,5.22c.89,1.82,2.57,3.72,5.69,5.72a41.84,41.84,0,0,1,6.79,4.45,23.77,23.77,0,0,1,3.93,4.11,46.5,46.5,0,0,1,3.8,6.85c2.1,4-.68,5.75-2,2.21-6.3-11.21-11-10.94-13.74-10s-3.94,6.43-1.76,9.88c-5.52-1.23-9,.27-10.16,6.13-1,7.46,3.79,10.83,11.41,11.1a5.2,5.2,0,0,0-1.41,6.45c1,2.14,3.41,3.87,7,3.91,10.42.28,11.08,2.82,14.22,5.86s2.79,6.93.41,4.12c-5.82-6.24-12.18-5.44-13.35-1.46-1.41,4-.49,7.1,3.18,10.53a4.92,4.92,0,0,0-2.43,2.35,4.44,4.44,0,0,0-.54,3c.35,2,2.16,3.84,5.71,3.84,5.87.82,9.06,3.21,10.74,5.75a8.65,8.65,0,0,1,1.48,6.29"/><path class="cls-2" d="M1115.58,438.8c-.86-6.14-.95-12.26,3.64-11.07,3,.76,3,6.91,2.47,9.06.38-1.47,2.09-3.54,3.94-2.53,1.28.61,1.91,2.48,2.1,5.2a54.85,54.85,0,0,1-.8,10.34,73.51,73.51,0,0,0-1.48,9.14,56.06,56.06,0,0,0-.11,7.94,42.51,42.51,0,0,0,1,6.91c.24,1.07.51,2.1.82,3.09s.6,2,.93,2.89a35.87,35.87,0,0,1,.83-8.8,22.56,22.56,0,0,1,2.63-6.6c2.1-3.51,4.87-5.08,7.19-3.67,2.85,1.56,4.1,4.61,4.53,7.64a14,14,0,0,1-.86,7.58c2.7-1.6,5,1.29,6,3.93a11.88,11.88,0,0,1,.77,5.8c-.33,2.2-1.45,4.71-3.92,7.64a47.71,47.71,0,0,0-5.39,6.31,27.25,27.25,0,0,0-2.94,5.11,51.6,51.6,0,0,0-2.27,7.7c-1.35,4.45,1.62,5.7,2.31,1.87,3.93-12.59,8.43-13.66,11.36-13.27s5.25,6,3.88,10.21c5.12-2.42,8.9-1.54,11.06,4.88,2.42,8.29-2.13,12.8-9.63,14a6.06,6.06,0,0,1,2.18,6.87,7.39,7.39,0,0,1-6.65,4.85c-10.37,1.14-10.85,3.79-13.77,7.06s-2.57,7.13-.21,4.2c5.55-6.59,11.82-6.32,13.31-2.09s.66,7.59-2.94,11.23a4.88,4.88,0,0,1,2.48,2.52,7,7,0,0,1,.37,3.79,5,5,0,0,1-5.92,4.2c-6,.36-9.49,2.47-11.53,4.7a10.54,10.54,0,0,0-2.79,5.82"/><path class="cls-1" d="M1025.91,714.63c-21.7,12.68-44.53,23.36-67.77,32.9s-47,17.92-70.89,25.6c-47.87,15.36-96.54,28-145.36,40"/><path class="cls-2" d="M858.31,782.07c-3,2.71-3.21,5.85-.56,7.15,4.56,2.43,9.79.16,11-1.44.27,1.89,3.13,2.58,5.17,2.54,2.67-.05,5.45-.62,6.9-4.73A13.52,13.52,0,0,1,892,774.86a9.73,9.73,0,0,0-.76-3,10.07,10.07,0,0,0-1.16-2.89,13.12,13.12,0,0,1-15.23-2.31c-3.48-2.53-6-1.46-8.23,0-1.69,1.1-3.64,3.26-2.82,5-1.83-.66-7.36.28-9.83,4.79C852.45,778.92,854.31,781.45,858.31,782.07Z"/><path class="cls-2" d="M1028.94,712.43a36.09,36.09,0,0,0,3.44-2.88,15.24,15.24,0,0,0,2.38-2.93c1.1-1.89,1-3.55-1-4.65-1.33-.71-3,0-4.45,1.15a14.16,14.16,0,0,0-3.3,3.59c.73-1.28.88-3.91-1.1-4.51-1.31-.49-3,.34-4.88,2.08a60.37,60.37,0,0,0-6.6,7.4C1006,722.4,997.36,727,989.88,729c5.32-3.52,8.65-7.93,10-11.74s.71-6.89-1.71-7.86c-2.85-1.3-5.78-.58-8.24.78a13,13,0,0,0-5.13,4.91c-.31-3.07-3.79-3.44-6.28-2.87a9.94,9.94,0,0,0-4.79,2.38c-1.5,1.39-2.86,3.55-3.9,7.13-1.31,6.35-3.23,10.13-5.15,12.76s-3.9,4.06-5.47,5.64c-3.25,3.22-5.7,1.11-2.69-1.2,4.48-4.62,6.28-8.1,6.78-10.67a6.51,6.51,0,0,0-1.17-5.44c-1.82-2.37-7.33-1.8-10.08,1.25-.42-5.62-2.9-8.51-8.94-7.8-7.63,1.23-9.39,7-7.34,14.32-4.68-2.9-10.4,1.8-8.28,8.54,3,10,.77,11.41-1.13,15.34s-5.68,4.9-3.79,1.71c4.07-7.51,1.34-13.27-2.88-13.13s-7,1.89-9,6.48c-3.35-3.63-10.9-.69-8.25,5.91,2.71,11.56-4.21,15.62-6.48,16.18"/><path class="cls-2" d="M1029.28,713a39.24,39.24,0,0,1,4.19-1.67,15.23,15.23,0,0,1,3.69-.89c2.18-.18,3.71.55,3.78,2.92,0,1.51-1.4,2.74-3.13,3.61a13.55,13.55,0,0,1-4.88,1.34c1.51,0,4,1,3.53,3.07-.22,1.4-1.85,2.53-4.42,3.47a54.76,54.76,0,0,1-10.15,2.15c-13.35.74-22.13,4.66-28.45,9.42a28.37,28.37,0,0,1,15.71-1c4,1.06,6.25,3.31,5.53,5.9-.72,3.1-3.25,5.28-6,6.5a14.53,14.53,0,0,1-7.49,1.27c2.29,2.13.19,5.2-2,6.83a11.76,11.76,0,0,1-5.31,2.35c-2.18.31-4.89-.06-8.38-1.59-5.8-3.11-10-4.33-13.28-4.69a57.7,57.7,0,0,0-8,.06c-4.64,0-4.92,3.28-1.09,2.76,6.58.09,10.44,1.07,12.72,2.44a6.26,6.26,0,0,1,3.21,4.56c.46,3-4.15,6.81-8.51,6.64,3.81,4.22,4.07,8-1.27,12-7,4.65-12.61,1.78-16-5-1.7,5.34-9.57,5.86-12.38-.68-4.32-9.49-7-9.12-11-10.87s-7.56-.14-4,1.14c8,3.15,9.71,9.23,6.22,11.94s-6.86,3.06-11.45.82c-.41,4.93-8.48,7.38-10.37.52-5-10.8-12.86-9.91-15-9"/><path class="cls-1" d="M728.37,816.4c-97.72,23.54-196.18,44.14-293.11,70.87"/><path class="cls-2" d="M552,857.59c-3.15,2.54-3.51,5.66-.95,7.1,4.4,2.67,9.7.72,10.95-.79.15,1.9,2.94,2.78,5,2.88,2.65.12,5.41-.25,7.14-4.22a13.28,13.28,0,0,1,11.94-9.8,9.73,9.73,0,0,0-.5-3.07,9.83,9.83,0,0,0-.91-3,13.34,13.34,0,0,1-15.07-3.48c-3.32-2.79-6-1.88-8.29-.59-1.77,1-3.88,3-3.16,4.8-1.8-.79-7.43-.16-10.16,4.22C546.35,854.12,548.08,856.74,552,857.59Z"/><path class="cls-2" d="M731.91,815.2c5.84-2.09,11.13-5.11,7.86-8.5-2.09-2.18-7.37.67-9,2.16,1.1-1,2.07-3.5.33-4.65-2.25-1.7-7.53,1.26-14,5.89-10.14,8.4-19.54,10.95-27.35,11.23,12-4.53,17.19-14.23,12.85-17.25-5-3.84-12.67,0-14.81,2.57.4-3.08-3-4.18-5.69-4.1-3.48.1-7.28,1-10.82,7.67-5.23,12-10.39,13.68-14,16.29s-5.85.17-2.47-1.62c10.48-7.72,9.82-12.34,8.53-15s-7.13-3.06-10.45-.45c.57-5.62-1.41-8.88-7.77-9.1-8.08.12-10.86,5.6-9.87,13.15-4.31-3.5-10.88.41-9.64,7.4,1.65,10.29-.75,11.43-3.15,15.09s-6.24,4.2-4,1.25c5-7,3-13-1.27-13.4s-7.29,1.1-9.92,5.44c-3-4-11-1.79-9,5,1.51,11.78-5.73,15.17-8,15.52"/><path class="cls-2" d="M732.07,815.84c6.14-.79,12.24-.58,10.9,3.95-.86,2.9-6.88,2.81-9,2.21,1.44.4,3.45,2.17,2.42,4-1.23,2.52-7.31,2.33-15.25,1.14-12.86-2.89-22.4-1-29.53,2.22,12.77-1.27,21.79,5,19.24,9.7-2.77,5.69-11.38,5.71-14.47,4.32,1.73,2.59-.87,5.09-3.3,6.21-3.18,1.45-7,2.31-13.15-2.08-10-8.44-15.38-7.69-19.82-8.44s-5.34,2.42-1.51,2.55c12.82,2.33,14.28,6.75,14.26,9.68s-5.08,5.89-9.22,5c3,4.8,2.64,8.6-3,11.6-7.34,3.43-12.24-.28-14.66-7.5-2.34,5-10,4.4-11.9-2.42-3-10-5.69-10-9.45-12.19s-7.45-1-4.12.63c7.53,4.09,8.43,10.37,4.73,12.59s-7,2.21-11.29-.54c-.92,4.86-9,6.41-10.24-.6-3.82-11.24-11.81-11.09-14-10.38"/><path class="cls-1" d="M421.86,891c-48.33,13.74-96.29,29.12-142.67,48.52a645.74,645.74,0,0,0-67.85,32.79c-21.87,12.35-42.92,26.28-62.08,42.56"/><path class="cls-2" d="M251.48,951.79c-2.57,3.13-2.26,6.24.54,7.14a9.48,9.48,0,0,0,6.69-.17,7.64,7.64,0,0,0,3.78-2.73c.52,1.84,3.4,2.18,5.37,1.91,2.58-.38,5.19-1.2,6.15-5.4a13,13,0,0,1,10-11.65,23,23,0,0,0-2.37-5.74,14,14,0,0,1-7.8,2,14.24,14.24,0,0,1-7.73-2.84c-3.79-2.14-6.29-.78-8.35,1-1.59,1.33-3.3,3.73-2.25,5.33a7.78,7.78,0,0,0-4.66,1.1,9.79,9.79,0,0,0-4.55,5.1C245.18,949.56,247.44,951.77,251.48,951.79Z"/><path class="cls-2" d="M425.35,889.69c5.75-2.33,11-5.46,7.59-8.77-2.17-2.12-7.38.91-8.94,2.48,1.06-1.07,1.95-3.59.16-4.67-2.31-1.59-7.55,1.54-13.88,6.51-9.8,8.86-19,12-26.79,12.8,11.68-5.33,16.43-15.26,11.88-18-5.27-3.56-12.83.77-14.82,3.53.21-3.1-3.33-4-6-3.69-3.52.38-7.33,1.59-10.41,8.53-2.18,6.2-4.51,9.82-6.73,12.27a49.06,49.06,0,0,1-6,5.22c-3.52,3-5.85.73-2.63-1.38,9.8-8.69,8.82-13.21,7.29-15.71s-7.49-2.38-10.63.55c.08-5.66-2.21-8.74-8.73-8.28-8.24,1-10.54,6.79-8.75,14.2-4.73-3-11,1.7-8.93,8.51,2.83,10,.57,11.46-1.37,15.39s-5.68,5-3.82,1.73c4.08-7.56,1.46-13.31-2.94-13.13s-7.21,2.09-9.28,6.75c-3.49-3.52-11.26-.15-8.27,6.31,3.18,11.4-3.42,15.88-5.65,16.57"/><path class="cls-2" d="M425.53,890.33c6.11-1.05,12.21-1,11,3.58-.77,2.92-6.75,3-8.88,2.5,1.45.35,3.51,2,2.56,3.9-1.12,2.58-7.16,2.55-15.08,1.75-12.94-2.33-22.36.18-29.24,3.86,12.64-2.12,21.94,3.77,19.68,8.53-2.41,5.8-10.84,6.33-14,5.15,1.88,2.47-.51,5.11-2.8,6.39-3,1.67-6.69,2.75-13.08-1.16-5.26-3.81-9.23-5.41-12.44-6.11a47.66,47.66,0,0,0-7.86-.63c-4.58-.31-5.06,2.88-1.26,2.67,12.9,1.15,14.69,5.5,14.95,8.4s-4.43,6.27-8.56,5.75c3.39,4.52,3.39,8.31-1.76,11.78-6.72,4.08-11.87.86-15.05-6-1.71,5.25-9.18,5.39-11.91-1.13-4.17-9.55-6.79-9.21-10.78-11s-7.5-.08-4,1.13c8,3.13,9.6,9.28,6.27,11.9s-6.55,3.06-11.1.88c-.23,4.92-7.86,7.56-10.1.81-5.4-10.61-13.3-9.2-15.39-8.16"/><path class="cls-1" d="M138.87,1024.16c-18.32,17.16-34.44,36.9-46.15,59.17a189.06,189.06,0,0,0-14.08,34.9,191.36,191.36,0,0,0-6.88,37,206.65,206.65,0,0,0,.22,37.64,170.13,170.13,0,0,0,7.8,36.8c.9,3,2.14,5.9,3.24,8.85.52,1.48,1.21,2.89,1.84,4.33l1.91,4.31,2.13,4.2c.72,1.4,1.38,2.83,2.19,4.17,1.58,2.72,3,5.5,4.8,8.11A173.59,173.59,0,0,0,119.37,1293"/><path class="cls-2" d="M71.41,1185.49c2,3.55,5,4.3,6.84,2.06a9.29,9.29,0,0,0,2.3-6.09,7.1,7.1,0,0,0-1-4.41c1.9.23,3.32-2.17,3.86-4,.78-2.42,1.11-5-2.31-7.56a12.65,12.65,0,0,1-5.34-6,12.44,12.44,0,0,1-.91-3.79,14,14,0,0,1,.44-4.07,10.05,10.05,0,0,0-3.06-.54,9.54,9.54,0,0,0-3.11-.11,15.89,15.89,0,0,1-.45,4.19,12.91,12.91,0,0,1-1.39,3.75,15.58,15.58,0,0,1-6,5.84c-3.53,2.58-3.32,5.59-2.65,8.28.59,2.07,2.15,4.7,4,4.35a8.33,8.33,0,0,0-.81,4.87,10,10,0,0,0,3.08,6.3C67.05,1190.63,69.92,1189.23,71.41,1185.49Z"/><path class="cls-2" d="M141.38,1021.38a25.67,25.67,0,0,0,4.74-6.79c.84-2,.6-3.7-1.65-4.47-2.93-1-6.38,4.16-7.12,6.24.5-1.43.23-4.11-1.89-4.27-2.84-.41-6.33,5-9.63,12.52a68.26,68.26,0,0,1-7.62,15.55,42.52,42.52,0,0,1-4.33,5.52,41.33,41.33,0,0,1-4.46,4.43c3.3-5.63,4.82-11,4.77-15.25s-1.52-6.94-4.28-6.86c-3.3-.1-6,2-8,4.53a19.44,19.44,0,0,0-1.32,1.93,18.92,18.92,0,0,0-1,2,11.31,11.31,0,0,0-.87,3.37c-1.52-2.74-5.12-1.26-7.3.74-2.77,2.64-5.48,6.23-3.77,14,1.92,6.41,2.51,10.86,2.33,14.24,0,.85-.12,1.63-.21,2.37s-.18,1.44-.3,2.11c-.22,1.32-.48,2.5-.62,3.65-.33,2.33-1.28,3.49-2,3.61s-1.39-.86-.89-2.78a45.34,45.34,0,0,0,.32-8.24,16.53,16.53,0,0,0-.94-5.07,6,6,0,0,0-4-3.89c-1.44-.41-3.34.48-5,2.06a11.25,11.25,0,0,0-3.11,6.26c-1.84-2.19-3.71-3.45-5.74-3.46s-4.27,1.21-6.62,4.11a16.78,16.78,0,0,0-2.87,5.43,9.87,9.87,0,0,0-.08,4.88c.74,3,3,5.46,6.32,7.34a6.74,6.74,0,0,0-4.49,6.33,7.17,7.17,0,0,0,4.65,7c9.52,4.28,9.18,7,11,11s.53,7.65-.92,4.19c-1.8-4-4.18-6.41-6.45-7.32a5.16,5.16,0,0,0-3.28-.27,4.43,4.43,0,0,0-2.5,1.91,11,11,0,0,0-2.12,5.86,12.58,12.58,0,0,0,1.93,6.38,5.77,5.77,0,0,0-4.26,5.52c-.1,2.52,1.31,5,4.84,5.41,11.24,3.5,11.78,11.33,11.25,13.6"/><path class="cls-2" d="M141.82,1021.87c2.53-1.79,5.14-3.37,7.25-3.87s3.72.08,4.15,2.38c.52,2.89-4.63,5.53-6.77,6,1.45-.31,4,.34,4,2.39.15,2.75-5,5.25-12.21,8.22a40.81,40.81,0,0,0-14.48,8,39.64,39.64,0,0,0-4.66,5,40.19,40.19,0,0,0-3.19,5.19,23,23,0,0,1,13.54-6.81c4-.29,6.81,1.16,7.16,3.69,1.14,6-5.14,10.43-8.25,11.16,2.91,1,2.57,4.35,1.61,6.52-1.25,2.9-3.34,5.51-10.49,6.1-6.39,0-10.3,1.28-13.15,2.73a18.2,18.2,0,0,0-1.93,1.13c-.56.4-1.07.8-1.55,1.2-1,.79-1.8,1.56-2.67,2.22-1.78,1.38-2.19,2.75-1.81,3.43s1.43.62,2.72-.69a33.84,33.84,0,0,1,6.5-3.92,13.1,13.1,0,0,1,4.7-1.1,6.88,6.88,0,0,1,5.19,2,4.84,4.84,0,0,1,.88,4.56,7.09,7.09,0,0,1-3,4.56c2.74.59,4.76,1.58,6,3s1.59,3.43,1.23,6.07a8.19,8.19,0,0,1-1.82,3.85,6.12,6.12,0,0,1-3,2c-2.44.76-5.67.44-9.28-.76a4.57,4.57,0,0,1-.53,6c-1.62,1.48-4.36,2.25-7.74,1.21-10-2.94-11.35-.78-15.23,1.18s-4.54,5.83-1.46,3.79c3.61-2.19,6.86-2.56,9.27-1.93a5.8,5.8,0,0,1,2.82,1.59,4.11,4.11,0,0,1,1.15,2.61,7.38,7.38,0,0,1-1.1,5,11.26,11.26,0,0,1-4.49,3.75,4.92,4.92,0,0,1,1.65,5.82c-.79,1.92-3,3.33-6.42,2.49-11.93-1.22-14.72,6.43-14.9,8.77"/><path class="cls-1" d="M129.52,1302.55A234.81,234.81,0,0,0,159.75,1325a324.66,324.66,0,0,0,33,18.15A495.19,495.19,0,0,0,263.14,1370c24.05,7.29,48.48,13.3,73.09,18.41s49.37,9.42,74.22,13.2"/><path class="cls-2" d="M292.3,1378.18c4-.76,5.73-3.36,4.15-5.84-2.62-4.42-8.15-5.14-9.94-4.43.76-1.75-1.24-3.85-2.93-4.9-2.23-1.36-4.78-2.35-8.18.26a12.92,12.92,0,0,1-15.12,2.59,9.86,9.86,0,0,0-1.12,2.9,9.52,9.52,0,0,0-.72,3,13.72,13.72,0,0,1,11.46,10.55c1.56,4.09,4.37,4.58,7.07,4.56,2.06,0,4.91-.78,5.12-2.68,1.2,1.59,6.56,3.66,11,1.09C295.73,1383.92,295.4,1380.78,292.3,1378.18Z"/><path class="cls-2" d="M126.52,1300.31c-.63-.45-1.27-.89-1.9-1.31s-1.24-.84-1.84-1.2a15.67,15.67,0,0,0-3.44-1.65c-2.12-.65-3.79-.28-4.36,2-.36,1.46.82,3,2.36,4.23a15.89,15.89,0,0,0,2.42,1.58,12.44,12.44,0,0,0,2.13.81c-1.5-.36-4.18.17-4.11,2.28-.08,2.83,5.65,5.94,13.54,8.44a71.43,71.43,0,0,1,9,2.66,55.93,55.93,0,0,1,7.34,3.21,58.46,58.46,0,0,1,6,3.67,61.46,61.46,0,0,1,4.83,4c-.74-.33-1.48-.63-2.21-.91s-1.43-.55-2.14-.78a29.69,29.69,0,0,0-4.12-1,26.36,26.36,0,0,0-7.15-.36c-4.11.46-6.75,2.32-6.35,5,.33,3.2,2.62,5.83,5.34,7.42s5.72,2.46,7.49,2.33c-2.56,1.84-.72,5.15,1.42,7.1,2.77,2.57,6.56,4.64,13.91,2.34,6.18-2.61,10.45-3.41,13.81-3.51a52.1,52.1,0,0,1,8.06.63c4.64.36,4.78,3.56.93,2.85-13.24-.82-15.91,2.88-16.58,5.77s3.85,7.13,8.31,7.36c-4.11,3.9-4.63,7.8.75,12.14a14.51,14.51,0,0,0,5.08,2.53,8.9,8.9,0,0,0,4.54-.12c2.82-.84,5.19-3.15,7.06-6.47,1.56,5.5,9.66,6.27,12.63-.14,4.59-9.33,7.27-8.93,11.34-10.58a7.25,7.25,0,0,1,4.85-.44c1,.35,1,1.08-.82,1.68-8.07,3-10,9-6.45,11.8s6.95,3.19,11.59,1c.39,5,8.61,7.46,10.48.6,5-10.75,12.87-10,15-9"/><path class="cls-2" d="M127,1299.82c-.52-.58-1-1.16-1.49-1.74s-.88-1.2-1.27-1.79a14.9,14.9,0,0,1-1.7-3.35c-.67-2.06-.25-3.65,2-4.29,1.46-.41,2.9.62,4.07,2a14,14,0,0,1,1.49,2.23,10.74,10.74,0,0,1,.92,1.92c-.45-1.39,0-4,2-4.17,2.76-.48,5.59,4.4,9.28,11.22a46.43,46.43,0,0,0,4.42,7.7,39,39,0,0,0,5.16,5.77,32.34,32.34,0,0,0,5.48,4.07,30.66,30.66,0,0,0,5.48,2.67c-.61-.5-1.19-1-1.73-1.53s-1-1.08-1.51-1.63a27.87,27.87,0,0,1-2.44-3.29,18.1,18.1,0,0,1-2.57-6.34c-.73-3.91.38-6.86,2.87-7.51,5.8-1.77,11,4,12.07,7.1.7-3,4.13-3,6.43-2.25,3,1.11,6.07,2.84,7.32,10.12.7,6.32,2.24,10.28,3.93,13s3.57,4.26,5,6c3,3.42,5.58,1.39,2.73-1-8.17-9.82-6.12-14.13-4.28-16.35s7.3-1.42,9.68,1.8c.86-5.58,3.43-8.24,9.22-7.37a10.37,10.37,0,0,1,4.33,1.9,7.18,7.18,0,0,1,2.37,3.18c1,2.52.73,5.78-.47,9.4,4.67-2.71,10.06,2,7.74,8.72-3.3,9.92-1.12,11.36.68,15.32a7.12,7.12,0,0,0,3.22,3.6c.94.34,1.42-.19.5-1.8-3.88-7.63-1-13.28,3.15-13.09s6.82,1.93,8.8,6.55c3.35-3.58,10.75-.71,8.11,5.9-2.74,11.6,4.24,15.58,6.51,16.14"/><path class="cls-1" d="M424.22,1403.64C474,1410.78,524,1416,574,1420.77s100.13,8.92,150.17,13.63"/><path class="cls-2" d="M604.17,1423.57c3.8-1.4,5.14-4.25,3.16-6.43-3.32-3.94-9-3.78-10.63-2.74.46-1.85-1.9-3.57-3.79-4.31-2.47-1-5.21-1.49-8.11,1.73a13.25,13.25,0,0,1-14.43,5.49,22.4,22.4,0,0,0-.59,6.17,13.37,13.37,0,0,1,13.18,8.1c2.26,3.7,5.06,3.68,7.67,3.19,2-.38,4.64-1.63,4.52-3.54,1.45,1.32,7,2.52,11-.76C608.46,1428.67,607.65,1425.63,604.17,1423.57Z"/><path class="cls-2" d="M420.48,1403.43c-6.19-.23-12.25.53-10.51,4.92,1.12,2.82,7.13,2.16,9.19,1.38-1.41.53-3.25,2.47-2.05,4.19,1.45,2.42,7.53,1.66,15.33-.29,12.56-4.11,22.22-3.22,29.66-.75-12.83.06-21.21,7.23-18.19,11.61,3.35,5.4,12,4.51,14.92,2.83-1.46,2.75,1.41,5,4,5.82,3.34,1.1,7.28,1.57,12.93-3.48,9-9.46,14.47-9.34,18.8-10.59s5.6,1.79,1.8,2.36c-12.49,3.77-13.46,8.32-13.12,11.23s5.75,5.28,9.79,3.93c-2.44,5.11-1.65,8.85,4.36,11.18,7.75,2.56,12.22-1.69,13.77-9.15,3,4.72,10.49,3.17,11.58-3.84,1.79-10.26,4.44-10.57,7.9-13.26s7.27-2,4.17.11c-7,5-7.1,11.34-3.13,13.09s7.29,1.32,11.18-2c1.53,4.7,9.82,5.21,10.11-1.91,2.34-11.64,10.28-12.53,12.58-12.13"/><path class="cls-2" d="M420.58,1402.77c-6-1.54-11.55-4.07-8.59-7.75,1.88-2.34,7.38,0,9.12,1.33-1.18-.91-2.37-3.3-.75-4.6,2.07-1.89,7.57.56,14.49,4.54,10.87,7.38,20.49,9,28.28,8.41-12.4-3.25-18.51-12.39-14.5-15.84,4.57-4.3,12.52-1.35,14.91,1-.71-3,2.57-4.47,5.2-4.69,3.45-.28,7.28.26,11.51,6.46,6.48,11.32,11.8,12.42,15.72,14.6s5.83-.49,2.27-1.89c-11.26-6.47-11.11-11.15-10.13-13.9s6.71-3.84,10.28-1.63c-1.2-5.52.39-9,6.63-9.94,8-.83,11.32,4.29,11.24,11.89,3.84-4,10.78-.91,10.4,6.17-.38,10.42,2.14,11.26,5,14.59s6.72,3.39,4.11.74c-5.8-6.31-4.61-12.54-.41-13.45s7.34.18,10.48,4.15c2.42-4.31,10.58-3.18,9.49,3.85,0,11.87,7.65,14.28,10,14.32"/><path class="cls-1" d="M738,1435.72c50,4.84,100,10.23,149.71,17.82,24.84,3.78,49.6,8.18,74.17,13.48a716.94,716.94,0,0,1,72.79,19.48"/><path class="cls-2" d="M917.64,1458.41c3.9-1.08,5.49-3.79,3.69-6.14-3-4.22-8.7-4.48-10.45-3.59.61-1.8-1.65-3.72-3.5-4.58-2.42-1.13-5.15-1.85-8.27,1.16a13.45,13.45,0,0,1-14.81,4.61,9.64,9.64,0,0,0-.67,3,9.51,9.51,0,0,0-.25,3.1,13.17,13.17,0,0,1,12.6,8.86c2,3.84,4.75,4,7.37,3.7,2-.26,4.7-1.29,4.73-3.2,1.34,1.43,6.71,3,10.93.09C921.47,1463.86,921,1460.76,917.64,1458.41Z"/><path class="cls-2" d="M734.3,1435.69c-6.2.08-12.19,1.19-10.21,5.47,1.26,2.74,7.19,1.78,9.2.89-1.37.61-3.1,2.64-1.83,4.29,1.57,2.33,7.53,1.28,15.2-1,12.32-4.62,22-4,29.5-1.67-12.82.35-20.89,7.82-17.77,12.1,3.47,5.27,11.94,4.17,14.81,2.41-1.39,2.78,1.48,4.94,4,5.75,3.31,1,7.17,1.41,12.7-3.69,8.87-9.58,14.3-9.43,18.61-10.69s5.56,1.81,1.78,2.36c-12.43,3.78-13.33,8.36-13,11.26s5.66,5.25,9.64,3.9c-2.41,5.11-1.63,8.83,4.21,11.18,7.55,2.59,12-1.61,13.61-9,2.83,4.75,10.25,3.32,11.49-3.65,2-10.23,4.65-10.48,8.16-13.08s7.3-1.74,4.16.23c-7.09,4.8-7.35,11.16-3.49,13s7.14,1.52,11.11-1.61c1.35,4.73,9.48,5.57,10.08-1.53,2.81-11.55,10.81-12.06,13.09-11.53"/><path class="cls-2" d="M734.36,1435c-6.07-1.24-11.75-3.45-9-7.29,1.76-2.46,7.41-.4,9.22.85-1.23-.85-2.54-3.17-1-4.56,2-2,7.67.2,14.78,3.9,11.22,6.94,20.85,8.26,28.65,7.56-12.48-3-19-11.9-15-15.47,4.48-4.45,12.65-1.67,15.11.66-.79-3,2.5-4.52,5.17-4.78,3.5-.33,7.43.13,11.78,6.31,6.67,11.26,12,12.38,15.93,14.55s5.85-.47,2.28-1.89C801,1428.39,801,1423.73,802,1421s6.79-3.85,10.42-1.63c-1.22-5.52.39-9,6.77-9.9,8.16-.76,11.56,4.42,11.38,12,4-3.94,11-.71,10.45,6.37-.6,10.41,1.91,11.31,4.66,14.72s6.64,3.58,4.1.84c-5.64-6.47-4.32-12.66,0-13.46s7.43.42,10.47,4.5c2.6-4.23,10.83-2.74,9.43,4.23-.47,11.85,7,14.62,9.35,14.78"/><path class="cls-1" d="M1047.86,1491.07c23.6,8.57,46.66,19,67.81,32.58a203.4,203.4,0,0,1,29.61,23.24c1.17,1,2.25,2.19,3.35,3.32l3.28,3.37,3.13,3.53,1.56,1.77c.51.59,1,1.22,1.48,1.83l3,3.67c1,1.24,1.85,2.54,2.78,3.81,1.89,2.51,3.52,5.2,5.23,7.83a134.29,134.29,0,0,1,15,34.46,151.78,151.78,0,0,1,5,37.27,283.65,283.65,0,0,1-9.31,74.59"/><path class="cls-2" d="M1181.86,1603.39c2.71,2.94,5.87,3.24,7.13.47a9,9,0,0,0,.92-3.66,12,12,0,0,0-.49-3.44c-.64-2.12-1.7-3.77-2.61-4.3,1.87-.41,2.18-3.48,1.85-5.68a14,14,0,0,0-.47-2.13,6.82,6.82,0,0,0-5.46-4.56,15,15,0,0,1-10.94-5.52,15.79,15.79,0,0,1-2.3-3.58,9.37,9.37,0,0,0-2.7,1.53,9.81,9.81,0,0,0-2.48,1.87,14.24,14.24,0,0,1,2.19,3.42,10.47,10.47,0,0,1,.87,3.76,11.94,11.94,0,0,1-2.27,7.64,6.2,6.2,0,0,0-.9,4.51,5.63,5.63,0,0,0,.73,1.64,8.89,8.89,0,0,0,1.07,1.45c1.2,1.39,3.49,2.94,5.14,2a7.53,7.53,0,0,0,.66,4.37,9.26,9.26,0,0,0,1.69,2.55,9.42,9.42,0,0,0,2.72,2.11C1178.71,1609.22,1181.27,1607.45,1181.86,1603.39Z"/><path class="cls-2" d="M1044.24,1490.11c-6-1.41-12.1-1.66-11.14,3,.59,3,6.49,3.33,8.63,3-1.45.24-3.6,1.84-2.78,3.73.47,1.31,2.16,2.08,4.73,2.46a35.61,35.61,0,0,0,4.47.32c1.67.07,3.5.06,5.47,0q2.43-.24,4.68-.27c1.49,0,2.93.08,4.32.2a36.12,36.12,0,0,1,19.24,7.13,24,24,0,0,0-15.31-.26c-3.74,1.38-5.74,3.9-4.94,6.34a8.84,8.84,0,0,0,5.75,5.83,13.05,13.05,0,0,0,6.92.82c-2.18,2.2-.32,5.08,1.61,6.62,2.52,2.07,5.74,3.53,12.46.78,5.73-2.91,9.83-3.67,13-3.71s5.47.72,7.65,1.06c4.47.74,4.1,3.92.54,2.85a33.85,33.85,0,0,0-7.64-.33,14.11,14.11,0,0,0-4.72,1.24,6.78,6.78,0,0,0-3.63,4.21,5,5,0,0,0,1.49,4.5,7.76,7.76,0,0,0,5,2.63c-2.12,1.83-3.41,3.67-3.74,5.57a5.66,5.66,0,0,0,.27,2.89,11.65,11.65,0,0,0,1.79,3.09,8.87,8.87,0,0,0,3.59,2.56,6.72,6.72,0,0,0,3.71.28c2.53-.53,5.19-2.4,7.72-5.24a4.66,4.66,0,0,0,3.52,5c2.16.49,4.92-.23,7.32-2.83,7.16-7.54,9.44-6.38,13.76-6.62s6.86,2.75,3.16,2.54c-4.23-.06-7.21,1.23-9,3s-2.24,3.88-1.35,5.62a7.71,7.71,0,0,0,3.4,3.75,11.07,11.07,0,0,0,5.73,1,4.85,4.85,0,0,0,1.35,5.82,4.23,4.23,0,0,0,3,.83,6.45,6.45,0,0,0,3.75-1.86c4.87-3.37,8.85-3.79,11.82-3.07a8.87,8.87,0,0,1,3.54,1.72,7.73,7.73,0,0,1,1.8,1.92"/><path class="cls-2" d="M1044.47,1489.49c-5.59-2.66-10.67-6.1-7.12-9.21,2.28-2,7.41,1.33,8.88,3-1-1.15-1.76-3.7.11-4.68,1.22-.72,3.11-.18,5.46,1.21a36.72,36.72,0,0,1,3.83,2.67c1.36,1.1,2.8,2.37,4.3,3.75,1.15,1.22,2.29,2.34,3.42,3.38s2.23,2.05,3.34,3a58.92,58.92,0,0,0,6.52,4.56,43.62,43.62,0,0,0,6.26,3.09,42.52,42.52,0,0,0,5.93,2c-5.43-3.54-9.1-7.8-10.81-11.57s-1.49-6.9,1-8c2.88-1.45,6.16-.78,8.94.57a14.34,14.34,0,0,1,5.84,5.07c.19-3.12,4-3.41,6.73-2.66,3.57,1.05,7.44,2.93,9.42,10.5,1.19,6.54,2.78,10.66,4.5,13.57a71.86,71.86,0,0,0,4.86,6.54c2.77,3.77,5.63,2.17,2.93-.69a45.4,45.4,0,0,1-4.19-7,15.32,15.32,0,0,1-1.55-4.87,6.1,6.1,0,0,1,1.71-5.32c1.06-1.06,3.11-1.19,5.24-.61a10.49,10.49,0,0,1,5.61,3.88c.57-2.8,1.6-4.8,3.34-5.81a6.14,6.14,0,0,1,3.2-.74,12.61,12.61,0,0,1,4.43,1,16.19,16.19,0,0,1,5,3.25,9.29,9.29,0,0,1,2.43,4.13c.81,3,0,6.21-1.89,9.48a6.62,6.62,0,0,1,7,3.19,7.2,7.2,0,0,1-.53,8.37c-6.09,8.49-4.4,10.66-4,15.07s3.4,6.86,2.91,3.15c-.45-4.31.4-7.64,1.91-9.57a4.49,4.49,0,0,1,5.83-1.46,10.63,10.63,0,0,1,4.79,4.05,13,13,0,0,1,1.57,6.53c2.42-.82,5.09.64,6.47,2.8a5.27,5.27,0,0,1,.86,3.57,5.5,5.5,0,0,1-2.38,3.55c-4.13,4.29-5.29,8.23-5.27,11.25a12.72,12.72,0,0,0,.65,3.89,7.91,7.91,0,0,0,1.23,2.29"/><path class="cls-1" d="M1175.78,1735.7a315.58,315.58,0,0,1-31.24,68.42,402.63,402.63,0,0,1-45.12,60.26,535.66,535.66,0,0,1-54.36,52.16,718.49,718.49,0,0,1-60.32,45.16"/><path class="cls-2" d="M1078.47,1886.25c-1.4,3.79-.13,6.68,2.83,6.59a9.79,9.79,0,0,0,6.38-2.51,7.91,7.91,0,0,0,2.66-4c1.14,1.54,4,.76,5.81-.28,2.33-1.38,4.51-3.28,3.8-7.57a13.84,13.84,0,0,1,4.42-15,9.77,9.77,0,0,0-2.19-2.21,9.93,9.93,0,0,0-2.46-1.9,13,13,0,0,1-6.12,5.09,13.25,13.25,0,0,1-8.13.44c-4.28-.54-5.92,1.6-7.12,3.91-.93,1.74-1.6,4.54,0,5.66a7.43,7.43,0,0,0-3.85,2.6,9.51,9.51,0,0,0-2.49,6.19C1071.83,1886.17,1074.63,1887.56,1078.47,1886.25Z"/><path class="cls-2" d="M1176.57,1732.05c1.11-6.12,1-12.14-3.56-10.92-2.94.75-2.94,6.58-2.48,8.69-.3-1.43-2-3.47-3.86-2.58-1.28.52-2,2.21-2.22,4.76a37.79,37.79,0,0,0-.13,4.41c0,1.65.07,3.47.19,5.42a43.39,43.39,0,0,1,.32,8.93c-.09,1.39-.22,2.73-.42,4s-.51,2.49-.82,3.66a35.16,35.16,0,0,1-5.55,11.65,29.1,29.1,0,0,0,1.28-8.52,20.29,20.29,0,0,0-1.27-6.76c-1.45-3.69-4-5.61-6.43-4.8a8.59,8.59,0,0,0-5.68,5.76,12.42,12.42,0,0,0-.72,6.88c-2.25-2.14-5-.26-6.61,1.66a9.26,9.26,0,0,0-2.14,4.7,15,15,0,0,0,1.49,7.81c3,5.72,3.75,9.83,3.87,13.06s-.64,5.52-.92,7.72c-.64,4.51-3.83,4.26-2.84.63a35.5,35.5,0,0,0,.18-7.71,14,14,0,0,0-1.31-4.73,6.69,6.69,0,0,0-4.27-3.57c-1.43-.39-3.14.33-4.5,1.64a8,8,0,0,0-2.6,5.16c-3.77-4.2-7.41-5-11.71-1.14-5.15,5.15-3.22,10.64,2.71,15.43-5.34.27-7.3,7-1.71,11.46,8.12,6.56,7.1,9,7.7,13.24a7.08,7.08,0,0,1-.78,4.76c-.61.8-1.29.59-1.39-1.25-.83-8.51-6.32-11.7-9.68-9.35s-4.69,5.21-3.87,10.17c-4.76-1.28-9.42,5-3.71,9.25,8.4,8.34,4.64,15.5,2.94,17.11"/><path class="cls-2" d="M1177.21,1732.24c2.37-5.71,5.52-11,8.83-7.65,2.09,2.16-.94,7.56-2.56,9.11,1.12-1,3.61-2,4.69-.13.79,1.2.31,3.14-1,5.59a33.4,33.4,0,0,1-2.53,4c-1.07,1.42-2.29,2.92-3.62,4.48a83,83,0,0,0-6.18,7c-.87,1.13-1.66,2.26-2.39,3.36s-1.44,2.19-2,3.27a47.44,47.44,0,0,0-4.9,12.29,32.85,32.85,0,0,1,5.63-6.89,22.69,22.69,0,0,1,5.79-4.14c3.73-1.79,6.93-1.63,8.06.84,1.47,2.86.87,6.21-.45,9a15,15,0,0,1-5,5.95c3.11.13,3.48,4,2.71,6.7a12.53,12.53,0,0,1-2.72,5.34c-1.52,1.68-3.93,3.14-7.64,4.17-6.5,1.26-10.62,2.87-13.46,4.64a64.12,64.12,0,0,0-6.4,5c-3.69,2.85-2,5.65.78,2.89a42.84,42.84,0,0,1,6.88-4.29,15.58,15.58,0,0,1,4.82-1.6,6.16,6.16,0,0,1,5.34,1.62c1.08,1,1.27,3.07.74,5.18a10.22,10.22,0,0,1-3.66,5.55c5.58,1,8.13,4,6,10.62-3.12,8.31-9.54,9.3-16.26,5.76,1.7,5.51-4.79,10.6-10.75,6.8-8.9-5.37-10.92-3.56-15.26-2.76a7.27,7.27,0,0,0-4.33,2.24c-.62.81-.23,1.42,1.59,1,8.4-1.86,13.26,2.2,11.78,6.48s-4.21,6.48-9.29,7.16c2.29,4.41-3.41,11-8.62,6.12-10-6.55-16.15-1.65-17.57.2"/><path class="cls-1" d="M973.13,1969.39C931,1996.75,886.52,2020.5,841,2041.77s-92.23,40-139.57,56.92"/><path class="cls-2" d="M813.41,2054.29c-2.64,3.06-2.46,6.19.34,7.16,4.83,1.85,9.73-1.1,10.68-2.81.5,1.84,3.43,2.18,5.45,1.87,2.64-.4,5.32-1.32,6.25-5.55a13.49,13.49,0,0,1,9.77-12.06,22.73,22.73,0,0,0-2.64-5.61,13.15,13.15,0,0,1-15.4-.38c-3.78-2.09-6.17-.7-8.17,1-1.53,1.31-3.2,3.68-2.17,5.29-1.91-.45-7.26,1.21-9.15,6C807.2,2051.88,809.36,2054.16,813.41,2054.29Z"/><path class="cls-2" d="M976.07,1967.07c4.81-3.91,8.69-8.61,4.46-10.66-2.7-1.32-6.63,3.14-7.65,5.06.68-1.32.74-4-1.28-4.48-2.67-.85-6.56,3.68-11.17,10.14-6.8,11.17-15,16.55-22.33,19.11,10.07-7.91,11.83-18.76,6.8-20.27-5.9-2.13-11.84,3.77-13.09,6.86-.56-3-4.11-3.1-6.57-2.27-3.23,1.12-6.51,3-7.91,10.39-.75,6.43-2.26,10.43-3.92,13.26s-3.48,4.43-4.87,6.19c-2.89,3.56-5.55,1.74-2.81-.9,7.92-10.23,5.91-14.5,4-16.66s-7.58-1-10,2.36c-1-5.57-3.78-8.14-9.81-6.75-7.53,2.14-8.69,8.08-5.81,15.11-5-2.3-10.2,3-7.29,9.49,4.14,9.56,2.12,11.26.69,15.39s-5.05,5.55-3.56,2.14c3.14-7.95-.24-13.32-4.44-12.7s-6.7,2.76-8.23,7.55c-3.77-3.17-10.92.69-7.47,6.89,4.11,11.13-2.23,16.06-4.43,16.87"/><path class="cls-2" d="M976.43,1967.62c5.53-2.79,11.31-4.75,11.62,0,.19,3-5.54,5-7.76,5.18,1.51-.11,4,.87,3.64,2.93-.31,2.8-6.18,4.73-14.12,6.21-13.2,1.46-21.63,6.19-27.52,11.4,11.81-5,22.42-2,21.44,3.27-.93,6.29-9.27,9.08-12.67,8.68,2.45,1.93.66,5.13-1.37,7-2.67,2.38-6.2,4.35-13.4,2-6.06-2.6-10.3-3.35-13.61-3.38a51.82,51.82,0,0,0-7.94.88c-4.59.55-4.52,3.79-.78,2.87,13-1.28,15.71,2.48,16.51,5.32s-3.37,7.13-7.67,7.44c4.21,3.78,4.91,7.57.1,12-6.37,5.37-12.19,3.09-16.38-3.27-1,5.52-8.75,6.89-12.31.74-5.41-8.92-8-8.22-12.19-9.48s-7.51.77-3.87,1.6c8.32,2.17,10.74,8,7.61,11.1s-6.41,3.88-11.23,2.19c.2,5-7.48,8.37-10.21,1.78-6.25-10.11-14-8.2-16-7.06"/><path class="cls-1" d="M688.3,2103.33q-71.19,24.83-144,44.48t-146.68,34.83"/><path class="cls-2" d="M515,2155.57c-3.1,2.6-3.42,5.72-.81,7.12,4.46,2.59,9.75.52,11-1,.19,1.9,3,2.7,5.06,2.75,2.66.05,5.44-.41,7-4.43a13.43,13.43,0,0,1,11.65-10.22,9.58,9.58,0,0,0-.62-3.05,9.7,9.7,0,0,0-1-2.94,13.19,13.19,0,0,1-15.13-3c-3.39-2.69-6-1.71-8.26-.36-1.73,1-3.77,3.12-3,4.87-1.8-.74-7.38,0-10,4.42C509.23,2152.2,511,2154.8,515,2155.57Z"/><path class="cls-2" d="M691.7,2101.78c5.6-2.66,10.55-6.21,6.95-9.25-2.3-2-7.25,1.41-8.7,3,1-1.12,1.7-3.68-.15-4.66-2.39-1.45-7.32,2-13.34,7.24-9.26,9.32-18.4,12.71-26.15,13.66,11.56-5.55,15.79-15.7,11.2-18.31-5.31-3.37-12.53,1.08-14.43,3.85.12-3.11-3.36-3.9-6-3.61-3.44.38-7.09,1.63-10.06,8.51-4.2,12.34-9.23,14.42-12.67,17.29s-5.81.59-2.58-1.44c9.85-8.45,8.81-13,7.33-15.53s-7.28-2.51-10.37.31c.14-5.64-2.07-8.75-8.34-8.54-7.93.65-10.28,6.29-8.8,13.75-4.49-3.22-10.71,1.07-9.05,8,2.27,10.17,0,11.46-2.22,15.25s-6,4.54-3.9,1.46c4.56-7.24,2.25-13.15-2-13.3s-7.15,1.49-9.53,5.94c-3.14-3.79-10.93-1.27-8.63,5.46,2.08,11.7-5,15.4-7.32,15.84"/><path class="cls-2" d="M691.92,2102.41c6-1.4,12.13-1.83,11.26,2.81-.56,3-6.57,3.5-8.75,3.12,1.48.26,3.66,1.81,2.82,3.72-1,2.65-7.08,3.07-15.11,2.66-13.11-1.64-22.42,1.09-29.27,4.93,12.62-2.37,22.21,3,20.09,7.93-2.26,5.92-10.91,6.74-14.12,5.62,2,2.42-.44,5.16-2.79,6.48-3.08,1.72-6.87,2.92-13.37-1-10.69-7.58-16-6.45-20.49-6.86s-5.17,2.8-1.33,2.65c13,1.37,14.81,5.64,15,8.57s-4.67,6.28-8.9,5.7c3.35,4.57,3.27,8.38-2.22,11.81-7.19,4-12.39.61-15.29-6.44-2,5.19-9.78,5.06-12.13-1.64-3.63-9.77-6.29-9.58-10.18-11.6s-7.51-.61-4.09.86c7.76,3.67,9,9.88,5.43,12.31s-7,2.62-11.38.09c-.68,4.91-8.79,6.87-10.32-.08-4.35-11-12.32-10.55-14.51-9.75"/><path class="cls-2" d="M363.68,2189.07c-3.3,2.34-3.93,5.44-1.42,7,4.31,2.94,9.76,1.26,11.09-.19.06,1.91,2.82,2.92,4.86,3.11,2.66.24,5.48,0,7.38-3.92a13.45,13.45,0,0,1,12.34-9.38,22.56,22.56,0,0,0-1.22-6.09,13.16,13.16,0,0,1-14.87-4c-3.19-2.92-5.84-2.13-8.19-1-1.79.91-4,2.83-3.35,4.63-1.74-.88-7.34-.55-10.27,3.62C358.28,2185.24,359.77,2188,363.68,2189.07Z"/></svg>