<svg xmlns="http://www.w3.org/2000/svg" viewBox="0 0 85.04 85.04"><defs><style>.cls-1{fill:#d12428;}.cls-2{fill:#7fb253;}.cls-3{fill:none;stroke:#231815;stroke-miterlimit:10;}</style></defs><title>蔬菜圖示</title><g id="圖層_3" data-name="圖層 3"><path class="cls-1" d="M15.11,44.63c-.45-10.51,9.36-19.86,20.72-22.25l5.84,7.51-2.18,8.82,8.7-2.56L58.8,41.4,57.64,31.28l2.63-1.08C65.57,35.09,70,41.85,70,49.46S59.11,72.13,49,72.13C40.52,72.13,16.28,71.8,15.11,44.63Z"/><path class="cls-2" d="M45.61,21.76l5.73-8.46,1.51,9a16.44,16.44,0,0,0,3-2.62c.89-1.49,1.5-6.81,1.5-6.81l3.5.4S61,18.52,60.24,20c-1,1.76-5.08,6-5.08,6l11.2,1.73L60.27,30.2l-2.63,1.08L58.8,41.4,48.19,36.15l-8.7,2.56,2.18-8.82-5.84-7.51-.43-.55Z"/><path class="cls-3" d="M35.83,22.38C24.47,24.77,14.66,34.12,15.11,44.63,16.28,71.8,40.52,72.13,49,72.13c10.16,0,21-15,21-22.67S65.57,35.09,60.27,30.2"/><path class="cls-3" d="M60.27,30.2l6.09-2.49L55.16,26s4.1-4.26,5.08-6c.8-1.44.62-6.66.62-6.66l-3.5-.4s-.61,5.32-1.5,6.81a16.44,16.44,0,0,1-3,2.62l-1.51-9-5.73,8.46-10.21.07.43.55,5.84,7.51-2.18,8.82,8.7-2.56L58.8,41.4,57.64,31.28Z"/><line class="cls-3" x1="52.85" y1="22.33" x2="50.64" y2="24.73"/><path class="cls-3" d="M24.42,43.4s-3.56,3.86-2.87,8.06c1,6.27,4.25,8.57,4.25,8.57"/></g></svg>