<svg xmlns="http://www.w3.org/2000/svg" viewBox="0 0 85.04 85.04"><defs><style>.cls-1{fill:#b4947b;}.cls-2{fill:#b58e72;}.cls-3{fill:#b99477;}.cls-4{fill:none;stroke:#231815;stroke-miterlimit:10;}</style></defs><title>蔬菜圖示</title><g id="圖層_3" data-name="圖層 3"><path class="cls-1" d="M43.49,41.49c1.94,1.71,3.86,3.26,3.86,3.26s-5.17,3.51-6,5.34c-1.26,2.81,0,12.33,0,12.33s-9.74.87-12.83,0c-2.76-.78-7.39-4.55-9.33-6.67-1.61-1.75-4.84-8.16-4.84-8.16s-2.83-7.5-.83-13.84c1-3.23,3.67-7.5,11.17-7.66,3.17-.07,11.66,5,11.66,5a56.74,56.74,0,0,0,3.5,6.83A33.71,33.71,0,0,0,43.49,41.49Z"/><path class="cls-2" d="M36.35,31.09s2.9-5.77,4.17-7.5c1.59-2.17,5.67-6,8.17-7,2.29-.92,7.69-.4,9.83.83,1.89,1.09,4.53,5,5,7.17.76,3.41-.5,14-.5,14H59.35L56,39.42l-8.67,5.33s-1.92-1.55-3.86-3.26a33.71,33.71,0,0,1-3.64-3.57A56.74,56.74,0,0,1,36.35,31.09Z"/><path class="cls-3" d="M64,68.25s-12.53,1.49-16.33,0c-2-.78-6.34-5.83-6.34-5.83s-1.26-9.52,0-12.33c.83-1.83,6-5.34,6-5.34L56,39.42l3.33-.83H63s4.82.95,6,2c1.7,1.5,2.93,6.24,3.17,8.5.36,3.39-1.51,10.22-3,13.33C68.41,64,64,68.25,64,68.25Z"/><path class="cls-4" d="M36.35,31.09s-8.49-5.07-11.66-5c-7.5.16-10.15,4.43-11.17,7.66-2,6.34.83,13.84.83,13.84s3.23,6.41,4.84,8.16c1.94,2.12,6.57,5.89,9.33,6.67,3.09.87,12.83,0,12.83,0s4.33,5,6.34,5.83c3.8,1.49,16.33,0,16.33,0s4.39-4.21,5.17-5.83c1.49-3.11,3.36-9.94,3-13.33-.24-2.26-1.47-7-3.17-8.5-1.18-1.05-6-2-6-2s1.26-10.59.5-14c-.47-2.14-3.11-6.08-5-7.17-2.14-1.23-7.54-1.75-9.83-.83-2.5,1-6.58,4.83-8.17,7C39.25,25.32,36.35,31.09,36.35,31.09Z"/><path class="cls-4" d="M41.35,62.42s-1.26-9.52,0-12.33c.83-1.83,6-5.34,6-5.34L56,39.42l3.33-.83H63"/><path class="cls-4" d="M36.35,31.09a56.74,56.74,0,0,0,3.5,6.83,33.71,33.71,0,0,0,3.64,3.57c1.94,1.71,3.86,3.26,3.86,3.26"/><path class="cls-4" d="M16.52,40.25,20,48.42s2.87,5.91,4.67,7c2,1.2,9.16,1,9.16,1"/><path class="cls-4" d="M46.19,57.09s.47,4.15,1.16,5.33A14.7,14.7,0,0,0,50,64.75"/><path class="cls-4" d="M64,57.09s-.68,4.34-1.67,5.33c-1.39,1.39-7.5,2.33-7.5,2.33"/><path class="cls-4" d="M46.19,21.42a19.72,19.72,0,0,1-1.5,3.5,18.57,18.57,0,0,1-2.84,2.17,11.68,11.68,0,0,0-1.06,3.33c.09.9,1.73,3.17,1.73,3.17"/><polyline class="cls-4" points="43.49 35.92 43.49 38.59 43.49 41.49"/></g></svg>