<svg xmlns="http://www.w3.org/2000/svg" viewBox="0 0 85.04 85.04"><defs><style>.cls-1{fill:#e6852e;}.cls-2{fill:#e98f33;}.cls-3{fill:#e18730;}.cls-4{fill:#e78b47;}.cls-5{fill:#e99136;}.cls-6{fill:#da892c;}.cls-7{fill:#d89525;}.cls-8{fill:#e07c23;}.cls-9{fill:#e9932f;}.cls-10{fill:none;stroke:#231815;stroke-miterlimit:10;}</style></defs><title>蔬菜圖示</title><g id="圖層_3" data-name="圖層 3"><path class="cls-1" d="M66,54.91c1.26,2,2.31,3.93,2.31,5.48,0,7.84-4.24,9.43-7.25,10.5-6.08,2.17-11.3-1.75-11.3-1.75l-3.66-4.61s8-2.18,10.54-3.39S66,54.91,66,54.91Z"/><path class="cls-2" d="M25.8,34.64s-5-4.17-7.31-7.79c0,0,7.1-2.21,9.23-3.46a56.46,56.46,0,0,0,5.7-4.85,68.8,68.8,0,0,1,2.88,7.35S33.76,31.63,32.22,33C30.89,34.13,25.8,34.64,25.8,34.64Z"/><path class="cls-3" d="M17.8,25.64c-1.24-2.6-2.33-7.75,2.5-11.25,1.87-1.35,7.17-1,9.25,0a12.68,12.68,0,0,1,3.5,3.5,7.16,7.16,0,0,1,.37.65,56.46,56.46,0,0,1-5.7,4.85c-2.13,1.25-9.23,3.46-9.23,3.46A10.85,10.85,0,0,1,17.8,25.64Z"/><path class="cls-4" d="M45.8,47.64a99.12,99.12,0,0,1-7.45,7.06,3,3,0,0,0-1.3-.81,45.06,45.06,0,0,0-5.25,0s-5.58.48-6.75-.75c-.65-.68-.15-2.76-.75-3.39-1.37-1.45-5.83-.52-6.5-4.61a4.74,4.74,0,0,1,2.75-5.25l4.75-1s2.35,3.3,4.08,3.63a31.56,31.56,0,0,0,12.42-1,45.15,45.15,0,0,0,5.32-3,7.4,7.4,0,0,0,2.63,2.62A72.52,72.52,0,0,1,45.8,47.64Z"/><path class="cls-5" d="M41.13,21.09a4.61,4.61,0,0,1,.67-.45c3.06-1.62,6.66-1.26,8,.25,1,1.19,0,6.25,0,6.25l-4,6.5a27.89,27.89,0,0,1-3.28-4.16C41.66,27.53,41.13,21.09,41.13,21.09Z"/><path class="cls-6" d="M52.3,54.31c-2.63,1.34-11.17,3.81-11.17,3.81a20.65,20.65,0,0,0-2.78-3.42,99.12,99.12,0,0,0,7.45-7.06,72.52,72.52,0,0,0,4-6.5c2,1.2,4.3-1.5,4.3-1.5a23.77,23.77,0,0,1,2-2.15s1,3.69,1.9,4.49,4.33,1.16,4.33,1.16c-.68.91-.78,3.41-.5,4.5C61.8,47.64,54.89,53,52.3,54.31Z"/><path class="cls-7" d="M45.8,33.64a9.82,9.82,0,0,0,1.32,4.88,45.15,45.15,0,0,1-5.32,3,31.56,31.56,0,0,1-12.42,1c-1.73-.33-4.08-3.63-4.08-3.63l.5-4.25s5.09-.51,6.42-1.66c1.54-1.35,4.08-7.09,4.08-7.09a46.57,46.57,0,0,1,4.83-4.8s.53,6.44,1.39,8.39A27.89,27.89,0,0,0,45.8,33.64Z"/><path class="cls-8" d="M61.8,47.64c.51,2,2.53,4.66,4.19,7.27,0,0-6.83,5-9.36,6.23s-10.54,3.39-10.54,3.39L41.8,59.14s-.26-.42-.67-1c0,0,8.54-2.47,11.17-3.81S61.8,47.64,61.8,47.64Z"/><path class="cls-9" d="M63.8,35.64c3.5,4.75-.35,6-1.5,7.5,0,0-3.49-.43-4.33-1.16s-1.9-4.49-1.9-4.49C58.28,35.39,61.77,32.89,63.8,35.64Z"/><path class="cls-10" d="M25.8,34.64s-5-4.17-7.31-7.79a10.85,10.85,0,0,1-.69-1.21c-1.24-2.6-2.33-7.75,2.5-11.25,1.87-1.35,7.17-1,9.25,0a12.68,12.68,0,0,1,3.5,3.5,7.16,7.16,0,0,1,.37.65,68.8,68.8,0,0,1,2.88,7.35,46.57,46.57,0,0,1,4.83-4.8,4.61,4.61,0,0,1,.67-.45c3.06-1.62,6.66-1.26,8,.25,1,1.19,0,6.25,0,6.25l-4,6.5a9.82,9.82,0,0,0,1.32,4.88,7.4,7.4,0,0,0,2.63,2.62c2,1.2,4.3-1.5,4.3-1.5a23.77,23.77,0,0,1,2-2.15c2.21-2.1,5.7-4.6,7.73-1.85,3.5,4.75-.35,6-1.5,7.5-.68.91-.78,3.41-.5,4.5.51,2,2.53,4.66,4.19,7.27,1.26,2,2.31,3.93,2.31,5.48,0,7.84-4.24,9.43-7.25,10.5-6.08,2.17-11.3-1.75-11.3-1.75l-3.66-4.61L41.8,59.14s-.26-.42-.67-1a20.65,20.65,0,0,0-2.78-3.42,3,3,0,0,0-1.3-.81,45.06,45.06,0,0,0-5.25,0s-5.58.48-6.75-.75c-.65-.68-.15-2.76-.75-3.39-1.37-1.45-5.83-.52-6.5-4.61a4.74,4.74,0,0,1,2.75-5.25l4.75-1Z"/><path class="cls-10" d="M18.49,26.85s7.1-2.21,9.23-3.46a56.46,56.46,0,0,0,5.7-4.85"/><path class="cls-10" d="M41.13,21.09s.53,6.44,1.39,8.39a27.89,27.89,0,0,0,3.28,4.16"/><path class="cls-10" d="M56.07,37.49s1,3.69,1.9,4.49,4.33,1.16,4.33,1.16"/><path class="cls-10" d="M41.13,58.12s8.54-2.47,11.17-3.81,9.5-6.67,9.5-6.67"/><path class="cls-10" d="M46.09,64.53s8-2.18,10.54-3.39S66,54.91,66,54.91"/><path class="cls-10" d="M38.34,54.7h0a99.12,99.12,0,0,0,7.45-7.06,72.52,72.52,0,0,0,4-6.5"/><path class="cls-10" d="M25.8,34.64s5.09-.51,6.42-1.66c1.54-1.35,4.08-7.09,4.08-7.09"/><path class="cls-10" d="M25.3,38.89s2.35,3.3,4.08,3.63a31.56,31.56,0,0,0,12.42-1,45.15,45.15,0,0,0,5.32-3"/></g></svg>