<svg xmlns="http://www.w3.org/2000/svg" viewBox="0 0 85.04 85.04"><defs><style>.cls-1{fill:#8ab832;}.cls-2{fill:#80b240;}.cls-3{fill:#84ba5e;}.cls-4{fill:#86b441;}.cls-5{fill:#7aa530;}.cls-6{fill:none;stroke:#231815;stroke-miterlimit:10;}</style></defs><title>蔬菜圖示</title><g id="圖層_3" data-name="圖層 3"><path class="cls-1" d="M53.49,20.49s1.79-3.24,2.87-3.25c1.42,0,4.59,4.4,4.59,4.4s4.3,1.17,5.41,2.1c2,1.69,4.58,10.56,4.58,10.56s2.33,9.21.92,11.81c-.34.63-2.5,1.38-2.5,1.38S66.74,37.65,65.11,35a8,8,0,0,0-8.75-3.71,46.19,46.19,0,0,0-2.88-5.46h0l2.12-1.91Z"/><path class="cls-2" d="M56.36,31.24A8,8,0,0,1,65.11,35c1.63,2.7,4.25,12.54,4.25,12.54l-1.25,8.25s-3.52,8-5.62,10c-1.7,1.56-8.38,3.87-8.38,3.87s-8.31.81-14.76.67v-.67l-.62-7.37,3.56-2,1.31-4,3.25-5.75L43.53,46.2A34.64,34.64,0,0,1,48.61,44c1.53-.32,5,1,6.25,0,.86-.7.63-4.38.63-4.38a14.75,14.75,0,0,0,2.29-2.12C58.66,35.82,56.36,31.24,56.36,31.24Z"/><path class="cls-3" d="M28.11,30.49a14.07,14.07,0,0,0-2.75-2c-1.34-.44-5.62,0-5.62,0a11.73,11.73,0,0,1-.13-3.5,11,11,0,0,1,2.25-2.38s0-5.07,1.13-6.12,6.37-.63,6.37-.63l4.63.5s1.65-1.59,2.37-1.62c1.88-.07,6.5,3.75,6.5,3.75S45,15.2,50,16.36c1.31.31,3.5,4.13,3.5,4.13l2.12,3.37-2.12,1.91h0a5.17,5.17,0,0,0-1.11-1.33c-1.63-1.2-8.76-.92-8.76-.92s-4.58-2.66-6.5-2.42c-1.62.21-4.81,1.79-5.75,3.13A10.85,10.85,0,0,0,30.61,27Z"/><path class="cls-4" d="M41.86,43.36l1.67,2.84,3.33,4.29-3.25,5.75-1.31,4-3.56,2,.62,7.37v.67a24,24,0,0,1-6-.67c-3.3-1-11.37-7.87-11.37-7.87s-7.26-9.71-8.5-13.5c-.8-2.41-.75-10.13-.75-10.13s.87-4,1.62-5.12c1-1.46,5.38-4.5,5.38-4.5s4.28-.44,5.62,0a14.07,14.07,0,0,1,2.75,2l2.5-3.5s3.78.74,4.63,1.62c1,1.08,1.75,5.69,1.75,5.69s4.84-.21,5.31,1.06C43.69,39.2,41.86,43.36,41.86,43.36Z"/><path class="cls-5" d="M43.53,46.2l-1.67-2.84s1.83-4.16.44-8C41.83,34.09,37,34.3,37,34.3s-.72-4.61-1.75-5.69c-.85-.88-4.63-1.62-4.63-1.62a10.85,10.85,0,0,1,.75-2.75c.94-1.34,4.13-2.92,5.75-3.13,1.92-.24,6.5,2.42,6.5,2.42s7.13-.28,8.76.92a5.17,5.17,0,0,1,1.11,1.33,46.19,46.19,0,0,1,2.88,5.46s2.3,4.58,1.42,6.25a14.75,14.75,0,0,1-2.29,2.12s.23,3.68-.63,4.38c-1.21,1-4.72-.32-6.25,0A34.64,34.64,0,0,0,43.53,46.2Z"/><path class="cls-6" d="M19.74,28.49s-4.4,3-5.38,4.5c-.75,1.11-1.62,5.12-1.62,5.12s-.05,7.72.75,10.13C14.73,52,22,61.74,22,61.74s8.07,6.84,11.37,7.87a24,24,0,0,0,6,.67c6.45.14,14.76-.67,14.76-.67s6.68-2.31,8.38-3.87c2.1-1.95,5.62-10,5.62-10l1.25-8.25s2.16-.75,2.5-1.38c1.41-2.6-.92-11.81-.92-11.81s-2.56-8.87-4.58-10.56c-1.11-.93-5.41-2.1-5.41-2.1s-3.17-4.42-4.59-4.4c-1.08,0-2.87,3.25-2.87,3.25S51.3,16.67,50,16.36c-5-1.16-7.13,2.13-7.13,2.13s-4.62-3.82-6.5-3.75c-.72,0-2.37,1.62-2.37,1.62l-4.63-.5s-5.2-.46-6.37.63-1.13,6.12-1.13,6.12A11,11,0,0,0,19.61,25,11.73,11.73,0,0,0,19.74,28.49Z"/><path class="cls-6" d="M19.74,28.49s4.28-.44,5.62,0a14.07,14.07,0,0,1,2.75,2l2.5-3.5a10.85,10.85,0,0,1,.75-2.75c.94-1.34,4.13-2.92,5.75-3.13,1.92-.24,6.5,2.42,6.5,2.42s7.13-.28,8.76.92a5.17,5.17,0,0,1,1.11,1.33,46.19,46.19,0,0,1,2.88,5.46A8,8,0,0,1,65.11,35c1.63,2.7,4.25,12.54,4.25,12.54"/><path class="cls-6" d="M30.61,27s3.78.74,4.63,1.62c1,1.08,1.75,5.69,1.75,5.69s4.84-.21,5.31,1.06c1.39,3.84-.44,8-.44,8l1.67,2.84,3.33,4.29-3.25,5.75-1.31,4-3.56,2,.62,7.37"/><path class="cls-6" d="M40.11,31s0-2.38,3.25-3.25c1.21-.33,4.16-.92,5,0,.55.6,0,3.25,0,3.25s3.27,2.25,3.42,3.46a4.19,4.19,0,0,1-1.79,3,10,10,0,0,1-3.13,0"/><path class="cls-6" d="M43.53,46.2A34.64,34.64,0,0,1,48.61,44c1.53-.32,5,1,6.25,0,.86-.7.63-4.38.63-4.38a14.75,14.75,0,0,0,2.29-2.12c.88-1.67-1.42-6.25-1.42-6.25"/><path class="cls-6" d="M50.24,63.24S53.53,67,55,66.74c3.87-.71,4.79-4.88,4.79-4.88s3.58-.43,2.83-3.62c-.17-.71-2-2.13-2-2.13"/><path class="cls-6" d="M32.24,37.49s2.1,1.27,2.37,2c.16.44-.25,1.47,0,1.87s1.36.45,1.63.82c.45.61-.37,2.39,0,3.06s2.14.86,2.5,1.5a7,7,0,0,1,0,2.62l-.88,1.75"/><path class="cls-6" d="M20.49,36.61S19,39.45,19,40.61a14.62,14.62,0,0,0,.71,2.88l1.37,6.75,2.38,2.62a13.55,13.55,0,0,1,3.29,2c.84,1,.4,3.26.83,4.25s3,2.75,3,2.75l3.13,1.75"/><polyline class="cls-6" points="53.48 20.49 55.6 23.86 53.48 25.77"/><line class="cls-6" x1="31.36" y1="24.24" x2="29.11" y2="21.86"/></g></svg>