<svg xmlns="http://www.w3.org/2000/svg" viewBox="0 0 85.04 85.04"><defs><style>.cls-1{fill:#166133;}.cls-2{fill:#106a38;}.cls-3{fill:#8bbb41;}.cls-4{fill:#106738;}.cls-5{fill:none;stroke:#231815;stroke-miterlimit:10;}</style></defs><title>蔬菜圖示</title><g id="圖層_3" data-name="圖層 3"><path class="cls-1" d="M71.26,55.24c.83,4-2.79,4-2.79,4s2.5,1.34,2.25,3.29c-.5,3.84-6.13,2.38-6.13,2.38L57.47,63.7l-1-2.63L57,57.45s-1.5-4.88,1.75-7.71c3.62-3.16,8.08,1.08,8.08,1.08l-.54,2.27S70.61,52.12,71.26,55.24Z"/><path class="cls-2" d="M70.72,28.07c3.71,7-5.13,10.13-5.13,10.13s4.92,2.62,5.13,6.75-3.88,5.87-3.88,5.87-4.46-4.24-8.08-1.08C55.51,52.57,57,57.45,57,57.45l-3.79-.61V52.07h-4l-1.75,3s-4.28-1-4.94,0c.77-.94,1.06-4.75,1.06-4.75s5.67-.58,4.88-7C48,39.77,42.53,39,42.53,39s7.9-7.13,0-11.63c-6.05-3.45-10.19,2.88-10.19,2.88l-2.62-4s-1-4.21,2.62-6.38C38,16.4,40.59,18.7,40.59,18.7s2.51-7.25,9.75-5.63c9.67,2.17,7.13,10.38,7.13,10.38S66.49,20.08,70.72,28.07Z"/><path class="cls-3" d="M56.47,61.07l1,2.63-4.38,8.5h-7.5L36.87,56.84s4.74-.64,5.66-1.77c-1.15,1.82,3.69,7.75,3.69,7.75h2.25l-1-7.75,1.75-3h4v9Z"/><path class="cls-4" d="M24,53.58c-.23.07-7.41,2.34-9.62-2.13-3.46-7,3.88-9.75,3.88-9.75s-5-8.79-1-13.63c5-5.94,12.5-1.87,12.5-1.87l2.62,4s4.14-6.33,10.19-2.88c7.9,4.5,0,11.63,0,11.63s5.5.82,5.94,4.37c.79,6.42-4.88,7-4.88,7s-.29,3.81-1.06,4.75c-.92,1.13-5.66,1.77-5.66,1.77s-6.19,5-10.15,3.61C21.69,58.69,23.83,53.87,24,53.58Z"/><path class="cls-5" d="M24,53.57h0c-.23.07-7.41,2.34-9.62-2.13-3.46-7,3.88-9.75,3.88-9.75s-5-8.79-1-13.63c5-5.94,12.5-1.87,12.5-1.87s-1-4.21,2.62-6.38C38,16.4,40.59,18.7,40.59,18.7s2.51-7.25,9.75-5.63c9.67,2.17,7.13,10.38,7.13,10.38s9-3.37,13.25,4.62c3.71,7-5.13,10.13-5.13,10.13s4.92,2.62,5.13,6.75-3.88,5.87-3.88,5.87l-.54,2.27s4.31-1,5,2.15c.83,4-2.79,4-2.79,4s2.5,1.34,2.25,3.29c-.5,3.84-6.13,2.38-6.13,2.38L57.47,63.7l-4.38,8.5h-7.5L36.87,56.84s-6.19,5-10.15,3.61c-5-1.76-2.89-6.58-2.76-6.87"/><path class="cls-5" d="M29.72,26.2l2.62,4s4.14-6.33,10.19-2.88c7.9,4.5,0,11.63,0,11.63s5.5.82,5.94,4.37c.79,6.42-4.88,7-4.88,7s-.29,3.81-1.06,4.75c-.92,1.13-5.66,1.77-5.66,1.77"/><path class="cls-5" d="M42.53,55.07c-1.15,1.82,3.69,7.75,3.69,7.75h2.25l-1-7.75S43.19,54,42.53,55.07Z"/><polyline class="cls-5" points="57.47 63.7 56.47 61.07 53.22 61.07 53.22 56.84 53.22 52.07 49.22 52.07 47.47 55.07"/><path class="cls-5" d="M56.47,61.07,57,57.45s-1.5-4.88,1.75-7.71c3.62-3.16,8.08,1.08,8.08,1.08"/><path class="cls-5" d="M26.68,45h0c-.25.17-3,2.16-.46,3.57,2.89,1.59,3.52-1.75,3.52-1.75"/><path class="cls-5" d="M26.68,40.16s-4-.67-4,2.36,3.65,2.51,4,2.48"/><path class="cls-5" d="M51.68,31.82s-.75-3.51,2.59-3.51,2.2,3.85,2.2,3.85,4.32-1,3.21,2.83a3.57,3.57,0,0,1-3.21,2.83"/></g></svg>