<svg xmlns="http://www.w3.org/2000/svg" viewBox="0 0 85.04 85.04"><defs><style>.cls-1{fill:#dc8f28;}.cls-2{fill:#d2a236;}.cls-3{fill:#e68e2a;}.cls-4{fill:#7da33a;}.cls-5{fill:#e38b22;}.cls-6{fill:#e99b2b;}.cls-7{fill:none;stroke:#231815;stroke-miterlimit:10;}</style></defs><title>蔬菜圖示</title><g id="圖層_3" data-name="圖層 3"><path class="cls-1" d="M62.39,27.44c5.94,2.7,6.19,5,6.06,7.39-.5,9.63-2.87,16.06-4.06,22.44-.66,3.54-6.83,12.67-6.83,12.67s-4,2.47-5.48,2.39-5-2.89-5-2.89l3-11.67s1.84-13,1.25-17.25c-.75-5.38-9.63-5.38-9.63-5.38L45.31,33h0l8.75-5.19S60.49,26.57,62.39,27.44Z"/><path class="cls-2" d="M54.06,27.77,45.31,33a41.18,41.18,0,0,0,1.33-4.19c.43-1.95-.75-5.33-.75-5.33a31.06,31.06,0,0,1,4.33,1.33A34.24,34.24,0,0,1,54.06,27.77Z"/><path class="cls-3" d="M51.27,40.52C51.86,44.8,50,57.77,50,57.77l-3,11.67s-3.39,3.21-4.84,3.16c-1.81,0-5.83-4.33-5.83-4.33L33.52,56.52s-1.37-12.52,0-16.38c1.87-5.31,8.12-5,8.12-5S50.52,35.14,51.27,40.52Z"/><path class="cls-4" d="M45.89,23.44s1.18,3.38.75,5.33A41.18,41.18,0,0,1,45.31,33h0l-3.67,2.17-2.92-2.55c.11-.21,1.79-3.38,1.8-4.57s-1.8-4.58-1.8-4.58a32.69,32.69,0,0,0-1.16-4.71,36.07,36.07,0,0,0-3-4.13l7.5-2.16s3.31,2.72,3.83,4C46.54,18.07,45.89,23.44,45.89,23.44Z"/><path class="cls-5" d="M38.72,32.59l2.92,2.55s-6.25-.31-8.12,5c-1.37,3.86,0,16.38,0,16.38l2.87,11.75a13.81,13.81,0,0,1-2.83,2.5,7.22,7.22,0,0,1-4.17,0c-2.21-1-5.33-5.18-6.5-7.33-2.26-4.18-5-18.34-5-18.34s-1.68-7.7-1.24-10.77c.31-2.16,2-6.36,6.41-7.56a21.32,21.32,0,0,1,9,0Z"/><path class="cls-6" d="M38.72,23.44s1.8,3.35,1.8,4.58-1.69,4.36-1.8,4.57l-6.66-5.82s1.56-2.87,2.5-3.33S38.72,23.44,38.72,23.44Z"/><path class="cls-7" d="M38.72,23.44s-3.23-.47-4.16,0-2.5,3.33-2.5,3.33a21.32,21.32,0,0,0-9,0c-4.43,1.2-6.1,5.4-6.41,7.56-.44,3.07,1.24,10.77,1.24,10.77s2.74,14.16,5,18.34c1.17,2.15,4.29,6.28,6.5,7.33a7.22,7.22,0,0,0,4.17,0,13.81,13.81,0,0,0,2.83-2.5s4,4.28,5.83,4.33c1.45.05,4.84-3.16,4.84-3.16s3.57,2.81,5,2.89,5.48-2.39,5.48-2.39,6.17-9.13,6.83-12.67c1.19-6.38,3.56-12.81,4.06-22.44.13-2.39-.12-4.69-6.06-7.39-1.9-.87-8.33.33-8.33.33a34.24,34.24,0,0,0-3.84-3,31.06,31.06,0,0,0-4.33-1.33s.65-5.37,0-7c-.52-1.29-3.83-4-3.83-4l-7.5,2.16a36.07,36.07,0,0,1,3,4.13A32.69,32.69,0,0,1,38.72,23.44Z"/><path class="cls-7" d="M36.39,68.27,33.52,56.52s-1.37-12.52,0-16.38c1.87-5.31,8.12-5,8.12-5s8.88,0,9.63,5.38C51.86,44.8,50,57.77,50,57.77l-3,11.67"/><line class="cls-7" x1="45.31" y1="32.96" x2="54.06" y2="27.77"/><polyline class="cls-7" points="32.06 26.77 38.72 32.59 41.64 35.14 45.31 32.97"/><path class="cls-7" d="M38.72,23.44s1.8,3.35,1.8,4.58-1.69,4.36-1.8,4.57h0"/><path class="cls-7" d="M45.89,23.44s1.18,3.38.75,5.33A41.18,41.18,0,0,1,45.31,33h0"/></g></svg>