<svg xmlns="http://www.w3.org/2000/svg" viewBox="0 0 85.04 85.04"><defs><style>.cls-1{fill:#1f5f47;}.cls-2{fill:#fbead7;}.cls-3{fill:#25654d;}.cls-4{fill:#206551;}.cls-5{fill:#2d5f4c;}.cls-6{fill:none;stroke:#231815;stroke-miterlimit:10;}</style></defs><title>蔬菜圖示</title><g id="圖層_3" data-name="圖層 3"><path class="cls-1" d="M48.61,44c1.53-.31,5,1,6.25,0,.86-.69.63-4.37.63-4.37a14.42,14.42,0,0,0,2.29-2.13c.88-1.67-1.42-6.25-1.42-6.25A8,8,0,0,1,65.11,35c1.62,2.71,4.25,12.54,4.25,12.54l-1.25,8.25s-3.52,8.06-5.62,10c-1.7,1.57-8.38,3.88-8.38,3.88s-8.31.81-14.76.67v-.67l-.62-7.38,3.56-2,1.31-4,3.25-5.75L43.53,46.2A35.78,35.78,0,0,1,48.61,44Z"/><path class="cls-2" d="M31.36,24.24c.94-1.34,4.13-2.92,5.75-3.12,1.92-.25,6.5,2.41,6.5,2.41s7.13-.27,8.76.92a5.61,5.61,0,0,1,1.12,1.33,48,48,0,0,1,2.87,5.46s2.3,4.58,1.42,6.25a14.42,14.42,0,0,1-2.29,2.13s.23,3.68-.63,4.37c-1.21,1-4.72-.31-6.25,0a35.78,35.78,0,0,0-5.08,2.21l-1.67-2.83s1.83-4.17.44-8C41.83,34.1,37,34.31,37,34.31s-.72-4.62-1.75-5.69c-.85-.89-4.63-1.63-4.63-1.63A11,11,0,0,1,31.36,24.24Z"/><path class="cls-3" d="M42.86,18.49S45,15.2,50,16.37c1.31.31,3.5,4.12,3.5,4.12l2.12,3.38-2.12,1.91a5.61,5.61,0,0,0-1.12-1.33c-1.63-1.19-8.76-.92-8.76-.92s-4.58-2.66-6.5-2.41c-1.62.2-4.81,1.78-5.75,3.12A11,11,0,0,0,30.61,27l-2.5,3.5a14.51,14.51,0,0,0-2.75-2c-1.34-.43-5.62,0-5.62,0a11.73,11.73,0,0,1-.13-3.5,11.1,11.1,0,0,1,2.25-2.37s0-5.07,1.13-6.13,6.37-.62,6.37-.62l4.63.5s1.65-1.6,2.37-1.63C38.24,14.67,42.86,18.49,42.86,18.49Z"/><path class="cls-4" d="M30.61,27s3.78.74,4.63,1.63c1,1.07,1.75,5.69,1.75,5.69s4.84-.21,5.31,1.06c1.39,3.83-.44,8-.44,8l1.67,2.83,3.33,4.29-3.25,5.75-1.31,4-3.56,2,.62,7.38v.67a24,24,0,0,1-6-.67c-3.3-1-11.37-7.88-11.37-7.88s-7.26-9.71-8.5-13.5c-.8-2.41-.75-10.12-.75-10.12s.87-4,1.62-5.13c1-1.45,5.38-4.5,5.38-4.5s4.28-.43,5.62,0a14.51,14.51,0,0,1,2.75,2Z"/><path class="cls-5" d="M53.49,20.49s1.79-3.23,2.87-3.25c1.42,0,4.59,4.4,4.59,4.4s4.3,1.17,5.41,2.1c2,1.69,4.58,10.57,4.58,10.57s2.33,9.2.92,11.81c-.34.63-2.5,1.37-2.5,1.37S66.73,37.66,65.11,35a8,8,0,0,0-8.75-3.71,48,48,0,0,0-2.87-5.46l2.12-1.91Z"/><path class="cls-6" d="M19.74,28.49s-4.4,3.05-5.38,4.5c-.75,1.12-1.62,5.13-1.62,5.13s-.05,7.71.75,10.12C14.73,52,22,61.74,22,61.74s8.07,6.85,11.37,7.88a24,24,0,0,0,6,.67c6.45.14,14.76-.67,14.76-.67s6.68-2.31,8.38-3.88c2.1-1.94,5.62-10,5.62-10l1.25-8.25s2.16-.74,2.5-1.37c1.41-2.61-.92-11.81-.92-11.81s-2.56-8.88-4.58-10.57c-1.11-.93-5.41-2.1-5.41-2.1s-3.17-4.42-4.59-4.4c-1.08,0-2.87,3.25-2.87,3.25S51.3,16.68,50,16.37c-5-1.17-7.13,2.12-7.13,2.12s-4.62-3.82-6.5-3.75c-.72,0-2.37,1.63-2.37,1.63l-4.63-.5s-5.2-.46-6.37.62-1.13,6.13-1.13,6.13A11.1,11.1,0,0,0,19.61,25,11.73,11.73,0,0,0,19.74,28.49Z"/><path class="cls-6" d="M19.74,28.49s4.28-.43,5.62,0a14.51,14.51,0,0,1,2.75,2l2.5-3.5a11,11,0,0,1,.75-2.75c.94-1.34,4.13-2.92,5.75-3.12,1.92-.25,6.5,2.41,6.5,2.41s7.13-.27,8.76.92a5.61,5.61,0,0,1,1.12,1.33,48,48,0,0,1,2.87,5.46A8,8,0,0,1,65.11,35c1.62,2.71,4.25,12.54,4.25,12.54"/><path class="cls-6" d="M30.61,27s3.78.74,4.63,1.63c1,1.07,1.75,5.69,1.75,5.69s4.84-.21,5.31,1.06c1.39,3.83-.44,8-.44,8l1.67,2.83,3.33,4.29-3.25,5.75-1.31,4-3.56,2,.62,7.38"/><path class="cls-6" d="M40.11,31s0-2.37,3.25-3.25c1.21-.32,4.16-.92,5,0,.55.6,0,3.25,0,3.25s3.27,2.26,3.42,3.46a4.16,4.16,0,0,1-1.79,3,9.67,9.67,0,0,1-3.13,0"/><path class="cls-6" d="M43.53,46.2A35.78,35.78,0,0,1,48.61,44c1.53-.31,5,1,6.25,0,.86-.69.63-4.37.63-4.37a14.42,14.42,0,0,0,2.29-2.13c.88-1.67-1.42-6.25-1.42-6.25"/><path class="cls-6" d="M50.24,63.24S53.53,67,55,66.74c3.87-.71,4.79-4.87,4.79-4.87s3.58-.44,2.83-3.63c-.17-.71-2-2.12-2-2.12"/><path class="cls-6" d="M32.24,37.49s2.1,1.27,2.37,2c.16.44-.25,1.48,0,1.88s1.36.45,1.63.81c.45.62-.37,2.39,0,3.06s2.14.87,2.5,1.5a7.08,7.08,0,0,1,0,2.63l-.88,1.75"/><path class="cls-6" d="M20.49,36.62S19,39.46,19,40.62a14.48,14.48,0,0,0,.71,2.87l1.37,6.75,2.38,2.63a13.55,13.55,0,0,1,3.29,2c.84,1,.4,3.26.83,4.25s3,2.75,3,2.75l3.13,1.75"/><polyline class="cls-6" points="53.48 20.49 55.6 23.87 53.48 25.78"/><line class="cls-6" x1="31.36" y1="24.24" x2="29.11" y2="21.87"/></g></svg>