<svg xmlns="http://www.w3.org/2000/svg" viewBox="0 0 85.04 85.04"><defs><style>.cls-1{fill:#fffefe;}.cls-2{fill:#d7db70;}.cls-3{fill:#f7f1f5;}.cls-4{fill:#e8e58c;}.cls-5{fill:#e3db44;}.cls-6{fill:#e4e793;}.cls-7{fill:#dddd87;}.cls-8{fill:#ece9a3;}.cls-9{fill:none;stroke:#231815;stroke-miterlimit:10;}</style></defs><title>蔬菜圖示</title><g id="圖層_3" data-name="圖層 3"><path class="cls-1" d="M51,52a7.08,7.08,0,0,0-.75-4.63c-.46-.71-2.75-1.81-3-1.93a23.84,23.84,0,0,1,3.87-2.19,43.53,43.53,0,0,1,8.64-1.79l.38,0h0a4,4,0,0,0-2,.83c-.58.54-.52,2.58,0,3.18.8.93,2.86,1.67,4.84,1.91l-.23,2c-2.22-.25-4.47-.16-4.61.08-.64,1,.2,2.91,1.54,4.6l-1.89.15c-1.52-2.07-3.54-3.72-4.95-3.37a3,3,0,0,0-1.71,1.7l-.26-.14A2.73,2.73,0,0,0,51,52Z"/><path class="cls-2" d="M56.83,65.73c2.1-.22,6.57-1.91,8.12-3.33,2-1.87,5.76-9,6-9.57-1.29,9.63-9.1,17-18.55,17a18,18,0,0,1-11.78-4.44,20,20,0,0,1-6.31-10.29c.13-.11,1.62-1.35,3.72-3,0,0,1.19,5.49,2.25,7a19.05,19.05,0,0,0,5.87,4.5C48.67,64.72,54.13,66,56.83,65.73Z"/><path class="cls-3" d="M40.08,55.15c.38,1,2.47,2.13,3.5,2.33a10.5,10.5,0,0,0,3-.63s3.35-2.94,4.23-4.56l.26.14c-1.47,2.81-1.84,8.16-.12,9.42s8,.1,8.77-2c.5-1.32-.5-3.73-2-5.75L59.62,54c1.63,2.06,4,3.85,5.46,3.53,1.71-.39,3-5.38,1.87-6.75-.63-.8-2.43-1.24-4.26-1.46l.23-2c1.66.21,3.26.07,4-.59s.69-3.28,0-4C65.84,41.54,62.46,41,60.1,41.4h0c4.5-.6,8.78-.93,8.81-.93A20.81,20.81,0,0,1,71,52.83c-.29.57-4,7.7-6,9.57-1.55,1.42-6,3.11-8.12,3.33-2.7.28-8.16-1-10.63-2.13a19.05,19.05,0,0,1-5.87-4.5c-1.06-1.5-2.25-7-2.25-7l2.64-2S39.62,54,40.08,55.15Z"/><path class="cls-4" d="M50.2,47.35A7.08,7.08,0,0,1,51,52a2.73,2.73,0,0,1-.14.31c-.88,1.62-4.23,4.56-4.23,4.56a10.5,10.5,0,0,1-3,.63c-1-.2-3.12-1.35-3.5-2.33-.46-1.19.64-5.09.64-5.09,2.1-1.6,4.42-3.3,6.48-4.64h0C47.45,45.54,49.74,46.64,50.2,47.35Z"/><path class="cls-5" d="M47.2,45.42c-2.06,1.34-4.38,3-6.48,4.64l-2.64,2c-2.1,1.66-3.59,2.9-3.72,3a20,20,0,0,0,6.31,10.29,24.26,24.26,0,0,1-3.84.32c-4.71,0-23-10-23-22.25,0,0-.14-15.82,1.56-19.44.73-1.56,4-3.38,4.94-4.81.61-.94.94-3.64,2-4S25.52,17.47,26.7,18c1.42.6,4.63.18,6.13.5s8.07,2.7,11.36,3.91c.61.21,1.21.43,1.8.68l.09,0A22.34,22.34,0,0,1,59.72,41.44a43.53,43.53,0,0,0-8.64,1.79,23.84,23.84,0,0,0-3.87,2.19Z"/><path class="cls-6" d="M67,42.73c.69.72.76,3.35,0,4s-2.37.8-4,.59c-2-.24-4-1-4.84-1.91-.52-.6-.58-2.64,0-3.18a4,4,0,0,1,2-.83C62.46,41,65.84,41.54,67,42.73Z"/><path class="cls-7" d="M67,50.73c1.09,1.37-.16,6.36-1.87,6.75C63.64,57.8,61.25,56,59.62,54c-1.34-1.69-2.18-3.57-1.54-4.6.14-.24,2.39-.33,4.61-.08C64.52,49.49,66.32,49.93,67,50.73Z"/><path class="cls-8" d="M57.73,54.1c1.49,2,2.49,4.43,2,5.75-.79,2.1-6.95,3.32-8.77,2s-1.35-6.61.12-9.42a3,3,0,0,1,1.71-1.7C54.19,50.38,56.21,52,57.73,54.1Z"/><path class="cls-9" d="M59.72,41.44A22.34,22.34,0,0,0,46.08,23.1l-.09,0c-.59-.25-1.19-.47-1.8-.68-3.29-1.21-9.83-3.59-11.36-3.91s-4.71.1-6.13-.5c-1.18-.51-3.26-3.14-4.37-2.75s-1.39,3.06-2,4c-.95,1.43-4.21,3.25-4.94,4.81-1.7,3.62-1.56,19.44-1.56,19.44,0,12.28,18.29,22.25,23,22.25a24.26,24.26,0,0,0,3.84-.32"/><path class="cls-9" d="M47.2,45.42c-2.06,1.34-4.38,3-6.48,4.64l-2.64,2c-2.1,1.66-3.59,2.9-3.72,3a20,20,0,0,0,6.31,10.29,18,18,0,0,0,11.78,4.44c9.45,0,17.26-7.39,18.55-17a20.81,20.81,0,0,0-2.09-12.37s-4.31.33-8.81.93l-.38,0a43.53,43.53,0,0,0-8.64,1.79,23.84,23.84,0,0,0-3.87,2.19"/><path class="cls-9" d="M40.72,50.06s-1.1,3.9-.64,5.09c.38,1,2.47,2.13,3.5,2.33a10.5,10.5,0,0,0,3-.63s3.35-2.94,4.23-4.56A2.73,2.73,0,0,0,51,52a7.08,7.08,0,0,0-.75-4.63c-.46-.71-2.75-1.81-3-1.93h0"/><path class="cls-9" d="M57.73,54.1c-1.52-2.07-3.54-3.72-4.95-3.37a3,3,0,0,0-1.71,1.7c-1.47,2.81-1.84,8.16-.12,9.42s8,.1,8.77-2C60.22,58.53,59.22,56.12,57.73,54.1Z"/><path class="cls-9" d="M59.62,54c-1.34-1.69-2.18-3.57-1.54-4.6.14-.24,2.39-.33,4.61-.08,1.83.22,3.63.66,4.26,1.46,1.09,1.37-.16,6.36-1.87,6.75C63.64,57.8,61.25,56,59.62,54Z"/><path class="cls-9" d="M60.1,41.4a4,4,0,0,0-2,.83c-.58.54-.52,2.58,0,3.18.8.93,2.86,1.67,4.84,1.91,1.66.21,3.26.07,4-.59s.69-3.28,0-4C65.84,41.54,62.46,41,60.1,41.4Z"/><path class="cls-9" d="M18,28.35s-1.25,1.4-1.31,2.06a30.16,30.16,0,0,0,.44,4"/><line class="cls-9" x1="21.2" y1="36.23" x2="21.2" y2="38.35"/><path class="cls-9" d="M16.2,39s.49,1.29.88,1.48c.2.09.68-.11.87,0,.44.25,1,1.77,1,1.77"/><path class="cls-9" d="M21.2,43.6s-1.79,2.19-1.56,3.13c.15.61,1.22.59,1.56,1.12s-.06,3,.38,3.59c.84,1.11,5,.79,5,.79"/><path class="cls-9" d="M23.58,43.6s-.26,1.44,0,1.81,1.87.69,1.87.69"/><line class="cls-9" x1="26.58" y1="42.73" x2="27.58" y2="44.85"/><path class="cls-9" d="M38.08,52.11s1.19,5.49,2.25,7a19.05,19.05,0,0,0,5.87,4.5c2.47,1.12,7.93,2.41,10.63,2.13,2.1-.22,6.57-1.91,8.12-3.33,2-1.87,5.76-9,6-9.57l0,0"/></g></svg>