<svg xmlns="http://www.w3.org/2000/svg" viewBox="0 0 85.04 85.04"><defs><style>.cls-1{fill:#59af50;}.cls-2{fill:#ca232b;}.cls-3{fill:#c71d2f;}.cls-4{fill:#ca2426;}.cls-5{fill:#cc1f37;}.cls-6{fill:#af2124;}.cls-7{fill:none;stroke:#231815;stroke-miterlimit:10;}</style></defs><title>蔬菜圖示</title><g id="圖層_3" data-name="圖層 3"><path class="cls-1" d="M40.52,28c0-1.23-1.8-4.59-1.8-4.59a32.64,32.64,0,0,0-1.16-4.7,36.07,36.07,0,0,0-3-4.13l7.5-2.17s3.31,2.73,3.83,4c.65,1.63,0,7,0,7s1.18,3.39.75,5.34A40.38,40.38,0,0,1,45.31,33l-3.67,2.18-2.92-2.55S40.51,29.25,40.52,28Z"/><path class="cls-2" d="M41.64,35.14s-6.25-.31-8.12,5c-1.37,3.86,0,16.38,0,16.38l2.87,11.75a14.12,14.12,0,0,1-2.83,2.5,7.31,7.31,0,0,1-4.17,0c-2.21-1-5.33-5.18-6.5-7.34-2.26-4.17-5-18.33-5-18.33s-1.68-7.7-1.24-10.77c.31-2.16,2-6.36,6.41-7.56a21.32,21.32,0,0,1,9,0l6.66,5.82Z"/><path class="cls-3" d="M38.72,23.43s1.8,3.36,1.8,4.59-1.8,4.57-1.8,4.57l-6.66-5.82s1.56-2.87,2.5-3.34S38.72,23.43,38.72,23.43Z"/><path class="cls-4" d="M51.27,40.52C51.86,44.8,50,57.77,50,57.77l-3,11.66s-3.39,3.21-4.84,3.17c-1.81,0-5.83-4.33-5.83-4.33L33.52,56.52s-1.37-12.52,0-16.38c1.87-5.31,8.12-5,8.12-5S50.52,35.14,51.27,40.52Z"/><path class="cls-5" d="M50,57.77s1.84-13,1.25-17.25c-.75-5.38-9.63-5.38-9.63-5.38L45.31,33l8.75-5.19s6.43-1.2,8.33-.34c5.94,2.71,6.19,5,6.06,7.4-.5,9.63-2.87,16.06-4.06,22.44-.66,3.54-6.83,12.66-6.83,12.66s-4,2.48-5.48,2.4-5-2.9-5-2.9Z"/><path class="cls-6" d="M54.06,27.77,45.31,33a40.38,40.38,0,0,0,1.33-4.19c.43-1.95-.75-5.34-.75-5.34a31.45,31.45,0,0,1,4.33,1.34A34.24,34.24,0,0,1,54.06,27.77Z"/><path class="cls-7" d="M38.72,23.43s-3.23-.46-4.16,0-2.5,3.34-2.5,3.34a21.32,21.32,0,0,0-9,0c-4.43,1.2-6.1,5.4-6.41,7.56-.44,3.07,1.24,10.77,1.24,10.77s2.74,14.16,5,18.33c1.17,2.16,4.29,6.29,6.5,7.34a7.31,7.31,0,0,0,4.17,0,14.12,14.12,0,0,0,2.83-2.5s4,4.28,5.83,4.33c1.45,0,4.84-3.17,4.84-3.17s3.57,2.82,5,2.9,5.48-2.4,5.48-2.4,6.17-9.12,6.83-12.66c1.19-6.38,3.56-12.81,4.06-22.44.13-2.39-.12-4.69-6.06-7.4-1.9-.86-8.33.34-8.33.34a34.24,34.24,0,0,0-3.84-3,31.45,31.45,0,0,0-4.33-1.34s.65-5.36,0-7c-.52-1.28-3.83-4-3.83-4l-7.5,2.17a36.07,36.07,0,0,1,3,4.13A32.64,32.64,0,0,1,38.72,23.43Z"/><path class="cls-7" d="M36.39,68.27,33.52,56.52s-1.37-12.52,0-16.38c1.87-5.31,8.12-5,8.12-5s8.88,0,9.63,5.38C51.86,44.8,50,57.77,50,57.77l-3,11.66"/><polyline class="cls-7" points="32.06 26.77 38.72 32.59 41.64 35.14 45.31 32.96 54.06 27.77"/><path class="cls-7" d="M38.72,23.43s1.8,3.36,1.8,4.59-1.8,4.57-1.8,4.57"/><path class="cls-7" d="M45.89,23.43s1.18,3.39.75,5.34A40.38,40.38,0,0,1,45.31,33"/></g></svg>