<svg xmlns="http://www.w3.org/2000/svg" viewBox="0 0 85.04 85.04"><defs><style>.cls-1{fill:#9471a2;}.cls-2{fill:#7a5478;}.cls-3{fill:#9370a3;}.cls-4{fill:#936da0;}.cls-5{fill:#9871aa;}.cls-6{fill:none;stroke:#231815;stroke-miterlimit:10;}</style></defs><title>蔬菜圖示</title><g id="圖層_3" data-name="圖層 3"><path class="cls-1" d="M19.73,28.49s4.29-.44,5.63,0a14.07,14.07,0,0,1,2.75,2l2.5-3.5s3.77.74,4.62,1.62c1,1.08,1.75,5.69,1.75,5.69s4.85-.21,5.32,1.06c1.39,3.84-.44,8-.44,8l1.67,2.84,3.33,4.29-3.25,5.75-1.31,4-3.57,2,.63,7.37v.67a24,24,0,0,1-6-.67c-3.3-1-11.38-7.87-11.38-7.87s-7.25-9.71-8.5-13.5c-.79-2.41-.75-10.13-.75-10.13s.88-4,1.63-5.12C15.33,31.53,19.73,28.49,19.73,28.49Z"/><path class="cls-2" d="M54.86,44c-1.22,1-4.72-.32-6.25,0a34.64,34.64,0,0,0-5.08,2.21l-1.67-2.84s1.83-4.16.44-8C41.83,34.09,37,34.3,37,34.3s-.72-4.61-1.75-5.69c-.85-.88-4.62-1.62-4.62-1.62a10.85,10.85,0,0,1,.75-2.75c.94-1.34,4.13-2.92,5.75-3.13,1.92-.24,6.5,2.42,6.5,2.42s7.13-.28,8.76.92a5.49,5.49,0,0,1,1.11,1.32,46,46,0,0,1,2.88,5.47s2.3,4.58,1.42,6.25a14.73,14.73,0,0,1-2.3,2.12S55.72,43.29,54.86,44Z"/><path class="cls-3" d="M68.11,55.74s-3.52,8-5.63,10c-1.69,1.56-8.37,3.87-8.37,3.87s-8.31.81-14.76.67v-.67l-.63-7.37,3.57-2,1.31-4,3.25-5.75L43.53,46.2A34.64,34.64,0,0,1,48.61,44c1.53-.32,5,1,6.25,0,.86-.7.62-4.38.62-4.38a14.73,14.73,0,0,0,2.3-2.12c.88-1.67-1.42-6.25-1.42-6.25A8,8,0,0,1,65.11,35c1.62,2.7,4.25,12.54,4.25,12.54Z"/><path class="cls-4" d="M25.36,28.49c-1.34-.44-5.63,0-5.63,0a11.8,11.8,0,0,1-.12-3.5,11,11,0,0,1,2.25-2.38s0-5.07,1.12-6.12,6.38-.63,6.38-.63l4.62.5s1.66-1.59,2.38-1.62c1.87-.07,6.5,3.75,6.5,3.75S45,15.2,50,16.36c1.32.31,3.5,4.13,3.5,4.13l2.13,3.37-2.13,1.91a5.49,5.49,0,0,0-1.11-1.32c-1.63-1.2-8.76-.92-8.76-.92s-4.58-2.66-6.5-2.42c-1.62.21-4.81,1.79-5.75,3.13A10.85,10.85,0,0,0,30.61,27l-2.5,3.5A14.07,14.07,0,0,0,25.36,28.49Z"/><path class="cls-5" d="M69.36,47.49S66.73,37.65,65.11,35a8,8,0,0,0-8.75-3.71,46,46,0,0,0-2.88-5.47l2.13-1.91-2.13-3.37s1.79-3.24,2.88-3.25c1.41,0,4.59,4.4,4.59,4.4s4.3,1.17,5.41,2.1c2,1.69,4.58,10.56,4.58,10.56s2.33,9.21.92,11.81C71.52,46.74,69.36,47.49,69.36,47.49Z"/><path class="cls-6" d="M19.73,28.49s-4.4,3-5.37,4.5c-.75,1.11-1.63,5.12-1.63,5.12s0,7.72.75,10.13C14.73,52,22,61.74,22,61.74s8.08,6.84,11.38,7.87a24,24,0,0,0,6,.67c6.45.14,14.76-.67,14.76-.67s6.68-2.31,8.37-3.87c2.11-1.95,5.63-10,5.63-10l1.25-8.25s2.16-.75,2.5-1.38c1.41-2.6-.92-11.81-.92-11.81s-2.56-8.87-4.58-10.56c-1.11-.93-5.41-2.1-5.41-2.1s-3.18-4.42-4.59-4.4c-1.09,0-2.88,3.25-2.88,3.25S51.3,16.67,50,16.36c-4.95-1.16-7.12,2.13-7.12,2.13s-4.63-3.82-6.5-3.75c-.72,0-2.38,1.62-2.38,1.62l-4.62-.5s-5.2-.46-6.38.63-1.12,6.12-1.12,6.12A11,11,0,0,0,19.61,25,11.8,11.8,0,0,0,19.73,28.49Z"/><path class="cls-6" d="M19.73,28.49s4.29-.44,5.63,0a14.07,14.07,0,0,1,2.75,2l2.5-3.5a10.85,10.85,0,0,1,.75-2.75c.94-1.34,4.13-2.92,5.75-3.13,1.92-.24,6.5,2.42,6.5,2.42s7.13-.28,8.76.92a5.49,5.49,0,0,1,1.11,1.32,46,46,0,0,1,2.88,5.47A8,8,0,0,1,65.11,35c1.62,2.7,4.25,12.54,4.25,12.54"/><path class="cls-6" d="M30.61,27s3.77.74,4.62,1.62c1,1.08,1.75,5.69,1.75,5.69s4.85-.21,5.32,1.06c1.39,3.84-.44,8-.44,8l1.67,2.84,3.33,4.29-3.25,5.75-1.31,4-3.57,2,.63,7.37"/><path class="cls-6" d="M40.11,31s0-2.38,3.25-3.25c1.21-.33,4.15-.92,5,0,.55.6,0,3.25,0,3.25s3.27,2.25,3.42,3.46a4.2,4.2,0,0,1-1.8,3,9.91,9.91,0,0,1-3.12,0"/><path class="cls-6" d="M43.53,46.2A34.64,34.64,0,0,1,48.61,44c1.53-.32,5,1,6.25,0,.86-.7.62-4.38.62-4.38a14.73,14.73,0,0,0,2.3-2.12c.88-1.67-1.42-6.25-1.42-6.25"/><path class="cls-6" d="M50.23,63.24S53.53,67,55,66.74c3.88-.71,4.8-4.88,4.8-4.88s3.58-.43,2.83-3.62c-.17-.71-2-2.13-2-2.13"/><path class="cls-6" d="M32.23,37.49s2.11,1.27,2.38,2c.16.44-.25,1.47,0,1.87s1.35.45,1.62.82c.46.61-.36,2.39,0,3.06s2.14.86,2.5,1.5a6.81,6.81,0,0,1,0,2.62l-.87,1.75"/><path class="cls-6" d="M20.48,36.61S19,39.45,19,40.61a14.78,14.78,0,0,0,.7,2.88l1.38,6.75,2.37,2.62a13.56,13.56,0,0,1,3.3,2c.84,1,.39,3.26.83,4.25s3,2.75,3,2.75l3.12,1.75"/><polyline class="cls-6" points="53.48 20.49 55.61 23.86 53.48 25.77"/><line class="cls-6" x1="31.36" y1="24.24" x2="29.11" y2="21.86"/></g></svg>