<svg xmlns="http://www.w3.org/2000/svg" viewBox="0 0 85.04 85.04"><defs><style>.cls-1{fill:#e78a3f;}.cls-2{fill:#7f6752;}.cls-3{fill:#e38c2f;}.cls-4{fill:#e1972c;}.cls-5{fill:#e68421;}.cls-6{fill:#e68c33;}.cls-7{fill:#de8d34;}.cls-8{fill:#e67e34;}.cls-9{fill:none;stroke:#231815;stroke-miterlimit:10;}</style></defs><title>蔬菜圖示</title><g id="圖層_3" data-name="圖層 3"><path class="cls-1" d="M19.75,60.62l.28-3,2.19.2c.22-1.24,1.06-3.06,1.32-4.07s.63-4.5.63-4.5l-2.83-.49,0-.14s1.39-7.78,3.06-9.69c1.45-1.66,8-3.75,8-3.75l5.44,5.13-3.38,3.56a34,34,0,0,0-2.06,4.88c-.67,3.32-.81,10.26,0,13.56.2.83,1.1,2.31,1.37,3.12a32.7,32.7,0,0,1,.69,3.71s-6.83-.23-8.75-1.33C23.28,66.34,19.75,60.62,19.75,60.62Z"/><path class="cls-2" d="M39.92,27.82s0-4.21.36-7.29l2.94.32a40.68,40.68,0,0,0,.43,7.74,5.57,5.57,0,0,0,0,2c.61,1.16,4.33,2.94,4.33,2.94L52,35.76l-4.5,3.81a47,47,0,0,0-5-.56,24.82,24.82,0,0,0-4.66,1.25l-5.44-5.13s5.6-2.41,6.75-4A11.12,11.12,0,0,0,39.92,27.82Z"/><path class="cls-3" d="M52,35.76s4.88.3,6.28,1.06a13.3,13.3,0,0,1,4.22,4.63c.73,1.61,1.5,6.93,1.5,6.93l1.11,12.71s-3.23,5.44-5,6.48c-2.29,1.32-8.94,2.07-8.94,2.07a47.81,47.81,0,0,0,2-5.32,44.75,44.75,0,0,0,0-11.62,66.94,66.94,0,0,0-2.25-7.44l-3.38-5.69Z"/><path class="cls-4" d="M58.32,29.42s5.35-.52,6.83.34c2.29,1.34,5,6.41,5.67,9,1,4.18,2.37,13.09,1,17.16a10.28,10.28,0,0,1-2.9,3.34,26.56,26.56,0,0,1-3.77,1.83L64,48.38s-.77-5.32-1.5-6.93a13.3,13.3,0,0,0-4.22-4.63c-1.4-.76-6.28-1.06-6.28-1.06l3.57-4.28Z"/><path class="cls-5" d="M37.86,40.26A24.82,24.82,0,0,1,42.52,39a47,47,0,0,1,5,.56l3.38,5.69a66.94,66.94,0,0,1,2.25,7.44,44.75,44.75,0,0,1,0,11.62,47.81,47.81,0,0,1-2,5.32S43.64,73,41.65,72.92s-7.17-3.83-7.17-3.83a32.7,32.7,0,0,0-.69-3.71c-.27-.81-1.17-2.29-1.37-3.12-.81-3.3-.67-10.24,0-13.56a34,34,0,0,1,2.06-4.88Z"/><path class="cls-2" d="M48,15.42c-.69,1.24-3.66,2.42-4.33,3.67a5.14,5.14,0,0,0-.43,1.76l-2.94-.32A13.49,13.49,0,0,1,40.73,18a14.21,14.21,0,0,1,4.42-5.59,3.12,3.12,0,0,1,2.67,0A3.46,3.46,0,0,1,48,15.42Z"/><path class="cls-1" d="M20.29,54.7l1.05-6,2.83.49s-.33,3.4-.63,4.5-1.1,2.83-1.32,4.07L20,57.57Z"/><path class="cls-6" d="M32.39,25.72c1.55-.13,7.53,2.1,7.53,2.1a11.12,11.12,0,0,1-.75,3.31c-1.15,1.59-6.75,4-6.75,4a38.65,38.65,0,0,0-2.84-3.43,19.79,19.79,0,0,0-3.76-1.94S30.32,25.9,32.39,25.72Z"/><path class="cls-7" d="M43.65,28.59s5.18-2.89,6.9-2.91c2.33,0,7.77,3.74,7.77,3.74l-2.71,2.06L52,35.76,48,33.51s-3.72-1.78-4.33-2.94A5.57,5.57,0,0,1,43.65,28.59Z"/><path class="cls-8" d="M19.75,60.62S15.41,59,14.86,58.7c-1.38-.74-2.21-4.94-2.21-4.94s1.15-14.57,2.67-19.17c.46-1.4,2.11-3.87,3.79-4.52,1.2-.46,6.71-.31,6.71-.31a19.79,19.79,0,0,1,3.76,1.94,38.65,38.65,0,0,1,2.84,3.43s-6.55,2.09-8,3.75c-1.67,1.91-3.06,9.69-3.06,9.69l0,.14-1.05,6L20,57.57Z"/><path class="cls-9" d="M39.92,27.82s-6-2.23-7.53-2.1c-2.07.18-6.57,4-6.57,4s-5.51-.15-6.71.31c-1.68.65-3.33,3.12-3.79,4.52-1.52,4.6-2.67,19.17-2.67,19.17s.83,4.2,2.21,4.94c.55.29,4.89,1.92,4.89,1.92s3.53,5.72,6,7.14c1.92,1.1,8.75,1.33,8.75,1.33s5.14,3.75,7.17,3.83,9.52-3.28,9.52-3.28,6.65-.75,8.94-2.07c1.81-1,5-6.48,5-6.48a26.56,26.56,0,0,0,3.77-1.83,10.28,10.28,0,0,0,2.9-3.34c1.37-4.07,0-13-1-17.16-.63-2.59-3.38-7.66-5.67-9-1.48-.86-6.83-.34-6.83-.34s-5.44-3.78-7.77-3.74c-1.72,0-6.9,2.91-6.9,2.91a40.68,40.68,0,0,1-.43-7.74,5.14,5.14,0,0,1,.43-1.76c.67-1.25,3.64-2.43,4.33-3.67a3.46,3.46,0,0,0-.16-3,3.12,3.12,0,0,0-2.67,0A14.21,14.21,0,0,0,40.73,18a13.49,13.49,0,0,0-.45,2.52C39.94,23.61,39.92,27.82,39.92,27.82Z"/><path class="cls-9" d="M25.82,29.76a19.79,19.79,0,0,1,3.76,1.94,38.65,38.65,0,0,1,2.84,3.43s5.6-2.41,6.75-4a11.12,11.12,0,0,0,.75-3.31"/><path class="cls-9" d="M34.48,69.09a32.7,32.7,0,0,0-.69-3.71c-.27-.81-1.17-2.29-1.37-3.12-.81-3.3-.67-10.24,0-13.56a34,34,0,0,1,2.06-4.88l3.38-3.56-5.44-5.13s-6.55,2.09-8,3.75c-1.67,1.91-3.06,9.69-3.06,9.69l0,.14-1.05,6L20,57.57l-.28,3"/><path class="cls-9" d="M43.65,28.59a5.57,5.57,0,0,0,0,2c.61,1.16,4.33,2.94,4.33,2.94L52,35.76l-4.5,3.81a47,47,0,0,0-5-.56,24.82,24.82,0,0,0-4.66,1.25"/><path class="cls-9" d="M58.32,29.42l-2.71,2.06L52,35.76s4.88.3,6.28,1.06a13.3,13.3,0,0,1,4.22,4.63c.73,1.61,1.5,6.93,1.5,6.93l1.11,12.71"/><path class="cls-9" d="M47.54,39.57l3.38,5.69a66.94,66.94,0,0,1,2.25,7.44,44.75,44.75,0,0,1,0,11.62,47.81,47.81,0,0,1-2,5.32"/><path class="cls-9" d="M61.17,32.57s2.06-.39,2.56,0c.26.2.06,1.06.31,1.25s1.14-.24,1.38,0,0,2,0,2"/><path class="cls-9" d="M37.23,48.07a14.57,14.57,0,0,0-1.5,2.5c-.59,2.12,0,8.81,0,8.81l.38,2.25,1.12,2.19"/><path class="cls-9" d="M24.17,49.2s-.33,3.4-.63,4.5-1.1,2.83-1.32,4.07a3,3,0,0,0,0,.49,7.07,7.07,0,0,0,1,3.75c.75.8,4,1.81,4,1.81"/></g></svg>