<svg xmlns="http://www.w3.org/2000/svg" viewBox="0 0 85.04 85.04"><defs><style>.cls-1{fill:#70a932;}.cls-2{fill:#eca849;}.cls-3{fill:none;stroke:#231815;stroke-miterlimit:10;}</style></defs><title>蔬菜圖示</title><g id="圖層_3" data-name="圖層 3"><path class="cls-1" d="M23.29,19.87c-.39-1.69,1.6-5.44,3.17-6.16,2-.94,7.31.27,8.67,2s1.5,9,1.5,9,3.12-6.2,4.66-5.34c1.78,1-2.28,7.64-2.49,8,.24-.12,4.44-2.21,5.66-1.49s1.33,5.34,1.33,5.34a42.06,42.06,0,0,0-5.5,1.5,36.73,36.73,0,0,0-4,2.83l-7.66-1s-5.39-.33-5.34-3.83c.05-3.12,7.5-2.67,7.5-2.67S23.92,22.57,23.29,19.87Z"/><path class="cls-2" d="M61.79,50.87V65.71A6.14,6.14,0,0,1,58,71c-1.72.75-5.87.92-7.5,0C46,68.5,37.63,54.87,37.63,54.87a19.25,19.25,0,0,1-3.89-10.24,17.08,17.08,0,0,1,2.55-9.09,36.73,36.73,0,0,1,4-2.83,42.06,42.06,0,0,1,5.5-1.5s9.67.5,13.34,9.5c.18.45.39,1.08.6,1.81C60.68,45.73,61.79,50.87,61.79,50.87Z"/><path class="cls-3" d="M38.8,27.36c.21-.35,4.27-7,2.49-8-1.54-.86-4.66,5.34-4.66,5.34s-.11-7.17-1.5-9-6.65-3-8.67-2c-1.57.72-3.56,4.47-3.17,6.16.63,2.7,7.5,8.17,7.5,8.17s-7.45-.45-7.5,2.67c-.05,3.5,5.34,3.83,5.34,3.83l7.66,1a17.08,17.08,0,0,0-2.55,9.09,19.25,19.25,0,0,0,3.89,10.24S46,68.5,50.46,71c1.63.92,5.78.75,7.5,0a6.14,6.14,0,0,0,3.83-5.33V50.87s-1.11-5.14-2.06-8.35c-.21-.73-.42-1.36-.6-1.81-3.67-9-13.34-9.5-13.34-9.5s-.15-4.64-1.33-5.34S39,27.24,38.8,27.36h0"/><path class="cls-3" d="M36.29,35.54a36.73,36.73,0,0,1,4-2.83,42.06,42.06,0,0,1,5.5-1.5"/><path class="cls-3" d="M59.73,42.52s-4.2,4.32-6,5.06c-2.2.9-9.5.75-9.5.75"/><path class="cls-3" d="M61.79,50.87a38.19,38.19,0,0,1-4.33,4.46,41.76,41.76,0,0,1-6.38,2.5"/></g></svg>