<svg xmlns="http://www.w3.org/2000/svg" viewBox="0 0 85.04 85.04"><defs><style>.cls-1{fill:#9bb663;}.cls-2{fill:#83b642;}.cls-3{fill:#fdfbed;}.cls-4{fill:#a5bf50;}.cls-5{fill:#b8be87;}.cls-6{fill:#98b451;}.cls-7{fill:#afc270;}.cls-8{fill:none;stroke:#231815;stroke-miterlimit:10;}</style></defs><title>蔬菜圖示</title><g id="圖層_3" data-name="圖層 3"><path class="cls-1" d="M58.2,38.68A11.54,11.54,0,1,0,69.47,50.22,11.41,11.41,0,0,0,58.2,38.68Zm-.57,26.07a15.07,15.07,0,0,1-15-13.92c0-.38-.06-.77-.06-1.16A15.09,15.09,0,1,1,57.63,64.75Z"/><path class="cls-2" d="M12.34,38.68c0-10.16,7.74-18.4,17.29-18.4s17.3,8.24,17.3,18.4c0,.13,0,.25,0,.38a15,15,0,0,0-4.37,10.61c0,.39,0,.78.06,1.16a16.82,16.82,0,0,1-13,6.26C20.08,57.09,12.34,48.85,12.34,38.68Z"/><path class="cls-3" d="M65.57,48.42c-1-.74-5.27.59-5.57,1.8-.35,1.43,2.11,4.9,3.57,4.7C65.27,54.69,67,49.44,65.57,48.42Zm-7.94-7.69c-1.28.76-.94,5.15.31,5.94s5.31-.77,5.63-2.25C63.93,42.71,59.13,39.84,57.63,40.73Zm-10.7,9.49A11.27,11.27,0,1,1,58.2,61.75,11.41,11.41,0,0,1,46.93,50.22Zm4.82.45c1.22.52,4.31-1.56,4.44-2.87s-2.71-4.32-4-3.82C50.63,44.59,50.22,50,51.75,50.67Zm4.88.56c-1.28-.56-5,1.36-4.88,2.75.17,1.91,4.88,4.73,6.45,3.63S58.24,52,56.63,51.23Z"/><path class="cls-4" d="M60,50.22c.3-1.21,4.57-2.54,5.57-1.8,1.38,1-.3,6.27-2,6.5C62.11,55.12,59.65,51.65,60,50.22Z"/><path class="cls-5" d="M57.94,46.67c-1.25-.79-1.59-5.18-.31-5.94,1.5-.89,6.3,2,5.94,3.69C63.25,45.9,59.22,47.48,57.94,46.67Z"/><path class="cls-6" d="M52.19,44c1.29-.5,4.14,2.44,4,3.82S53,51.19,51.75,50.67C50.22,50,50.63,44.59,52.19,44Z"/><path class="cls-7" d="M51.75,54c-.12-1.39,3.6-3.31,4.88-2.75,1.61.72,3,5.37,1.57,6.38S51.92,55.89,51.75,54Z"/><path class="cls-8" d="M46.91,39.06c0-.13,0-.25,0-.38,0-10.16-7.75-18.4-17.3-18.4s-17.29,8.24-17.29,18.4,7.74,18.41,17.29,18.41a16.82,16.82,0,0,0,13-6.26"/><path class="cls-8" d="M42.6,50.83a14.64,14.64,0,1,0-.06-1.16C42.54,50.06,42.57,50.45,42.6,50.83Z"/><path class="cls-8" d="M69.47,50.22A11.27,11.27,0,1,1,58.2,38.68,11.4,11.4,0,0,1,69.47,50.22Z"/><path class="cls-8" d="M52.19,44c-1.56.61-2,6-.44,6.69,1.22.52,4.31-1.56,4.44-2.87S53.48,43.48,52.19,44Z"/><path class="cls-8" d="M57.63,40.73c-1.28.76-.94,5.15.31,5.94s5.31-.77,5.63-2.25C63.93,42.71,59.13,39.84,57.63,40.73Z"/><path class="cls-8" d="M65.57,48.42c-1-.74-5.27.59-5.57,1.8-.35,1.43,2.11,4.9,3.57,4.7C65.27,54.69,67,49.44,65.57,48.42Z"/><path class="cls-8" d="M51.75,54c.17,1.91,4.88,4.73,6.45,3.63s0-5.66-1.57-6.38C55.35,50.67,51.63,52.59,51.75,54Z"/><path class="cls-8" d="M32.5,22.92A16,16,0,0,0,34.42,24a15.57,15.57,0,0,0,2.25.34"/><path class="cls-8" d="M19.17,30.92s-1.33,2.7-1.25,3.67,2,3.75,2,3.75"/><line class="cls-8" x1="16.92" y1="40.09" x2="16.92" y2="42.25"/><line class="cls-8" x1="17.92" y1="46.89" x2="18.92" y2="48.21"/><path class="cls-8" d="M22.5,42.25s-.41,2.5,0,3.17,2.76.67,2.92,1.47-2.92,2.45-2.92,2.45"/></g></svg>